STARTFONT 2.1
FONT -DIGITAL-VWSVT0-Bold-R-Normal--20-190-75-75-C-100-DEC-DECtech
SIZE 19 75 75
FONTBOUNDINGBOX 10 20 0 -5

STARTPROPERTIES 25
FONTNAME_REGISTRY ""
FAMILY_NAME "VWSVT0"
FOUNDRY_NAME "DIGITAL"
WEIGHT_NAME "Bold"
SETWIDTH_NAME "Normal"
SLANT "R"
ADD_STYLE_NAME ""
PIXEL_SIZE 20
POINT_SIZE 190
RESOLUTION_X 75
RESOLUTION_Y 75
SPACING "C"
AVERAGE_WIDTH 100
CHARSET_REGISTRY "DEC"
CHARSET_ENCODING "DECtech"
CHARSET_COLLECTIONS "ASCII ISO8859-1"
FULL_NAME "VWSVT0"
COPYRIGHT "Copyright ©1990 by Digital Equipment Corporation"
CAP_HEIGHT 11
X_HEIGHT 8
WEIGHT 10
QUAD_WIDTH 10
DEFAULT_CHAR 0
FONT_DESCENT 5
FONT_ASCENT 15
ENDPROPERTIES

CHARS 180

STARTCHAR char_0x0020
ENCODING 32
SWIDTH 935 0
DWIDTH 10 0
BBX 10 20 0 -5
BITMAP
0000
0000
0000
0000
0000
0000
0000
0000
0000
0000
0000
0000
0000
0000
0000
0000
0000
0000
0000
0000
ENDCHAR

STARTCHAR char_0x0021
ENCODING 33
SWIDTH 935 0
DWIDTH 10 0
BBX 10 20 0 -5
BITMAP
0000
0000
0000
0000
1C00
1C00
1C00
1C00
1C00
1C00
1C00
1C00
0000
1C00
1C00
0000
0000
0000
0000
0000
ENDCHAR

STARTCHAR char_0x0022
ENCODING 34
SWIDTH 935 0
DWIDTH 10 0
BBX 10 20 0 -5
BITMAP
0000
3B80
3B80
3B80
3B80
0000
0000
0000
0000
0000
0000
0000
0000
0000
0000
0000
0000
0000
0000
0000
ENDCHAR

STARTCHAR char_0x0023
ENCODING 35
SWIDTH 935 0
DWIDTH 10 0
BBX 10 20 0 -5
BITMAP
0000
0000
0000
0000
3B80
3B80
7FC0
3B80
3B80
3B80
3B80
7FC0
3B80
3B80
0000
0000
0000
0000
0000
0000
ENDCHAR

STARTCHAR char_0x0024
ENCODING 36
SWIDTH 935 0
DWIDTH 10 0
BBX 10 20 0 -5
BITMAP
0000
0000
0000
0400
0400
1F00
3B80
3B80
3800
1F00
0380
3B80
3B80
1F00
0400
0400
0000
0000
0000
0000
ENDCHAR

STARTCHAR char_0x0025
ENCODING 37
SWIDTH 935 0
DWIDTH 10 0
BBX 10 20 0 -5
BITMAP
0000
0000
0000
0000
3840
74C0
7580
7700
3E00
0C00
1B80
3740
6740
4740
0380
0000
0000
0000
0000
0000
ENDCHAR

STARTCHAR char_0x0026
ENCODING 38
SWIDTH 935 0
DWIDTH 10 0
BBX 10 20 0 -5
BITMAP
0000
0000
0000
0000
0E00
1D00
1D00
1D00
1E00
0E00
1F40
3380
7180
79C0
3E40
0000
0000
0000
0000
0000
ENDCHAR

STARTCHAR char_0x0027
ENCODING 39
SWIDTH 935 0
DWIDTH 10 0
BBX 10 20 0 -5
BITMAP
0000
0700
0E00
1C00
0000
0000
0000
0000
0000
0000
0000
0000
0000
0000
0000
0000
0000
0000
0000
0000
ENDCHAR

STARTCHAR char_0x0028
ENCODING 40
SWIDTH 935 0
DWIDTH 10 0
BBX 10 20 0 -5
BITMAP
0000
0000
0000
0380
0700
0E00
0E00
1C00
1C00
1C00
1C00
1C00
0E00
0E00
0700
0380
0000
0000
0000
0000
ENDCHAR

STARTCHAR char_0x0029
ENCODING 41
SWIDTH 935 0
DWIDTH 10 0
BBX 10 20 0 -5
BITMAP
0000
0000
0000
7000
3800
1C00
1C00
0E00
0E00
0E00
0E00
0E00
1C00
1C00
3800
7000
0000
0000
0000
0000
ENDCHAR

STARTCHAR char_0x002A
ENCODING 42
SWIDTH 935 0
DWIDTH 10 0
BBX 10 20 0 -5
BITMAP
0000
0000
0000
0000
0C00
6D80
6D80
1E00
7F80
7F80
1E00
6D80
6D80
0C00
0000
0000
0000
0000
0000
0000
ENDCHAR

STARTCHAR char_0x002B
ENCODING 43
SWIDTH 935 0
DWIDTH 10 0
BBX 10 20 0 -5
BITMAP
0000
0000
0000
0000
0E00
0E00
0E00
0E00
7FC0
7FC0
0E00
0E00
0E00
0E00
0000
0000
0000
0000
0000
0000
ENDCHAR

STARTCHAR char_0x002C
ENCODING 44
SWIDTH 935 0
DWIDTH 10 0
BBX 10 20 0 -5
BITMAP
0000
0000
0000
0000
0000
0000
0000
0000
0000
0000
0000
0000
1C00
1C00
1C00
1800
3000
0000
0000
0000
ENDCHAR

STARTCHAR char_0x002D
ENCODING 45
SWIDTH 935 0
DWIDTH 10 0
BBX 10 20 0 -5
BITMAP
0000
0000
0000
0000
0000
0000
0000
0000
3F00
3F00
0000
0000
0000
0000
0000
0000
0000
0000
0000
0000
ENDCHAR

STARTCHAR char_0x002E
ENCODING 46
SWIDTH 935 0
DWIDTH 10 0
BBX 10 20 0 -5
BITMAP
0000
0000
0000
0000
0000
0000
0000
0000
0000
0000
0000
0000
1C00
1C00
1C00
0000
0000
0000
0000
0000
ENDCHAR

STARTCHAR char_0x002F
ENCODING 47
SWIDTH 935 0
DWIDTH 10 0
BBX 10 20 0 -5
BITMAP
0000
0000
0000
0380
0380
0700
0700
0E00
0E00
1C00
1C00
3800
3800
7000
7000
0000
0000
0000
0000
0000
ENDCHAR

STARTCHAR char_0x0030
ENCODING 48
SWIDTH 935 0
DWIDTH 10 0
BBX 10 20 0 -5
BITMAP
0000
0000
0000
0000
1E00
3300
7380
7380
7380
7380
7380
7380
7380
3300
1E00
0000
0000
0000
0000
0000
ENDCHAR

STARTCHAR char_0x0031
ENCODING 49
SWIDTH 935 0
DWIDTH 10 0
BBX 10 20 0 -5
BITMAP
0000
0000
0000
0000
0600
0E00
1E00
3E00
0E00
0E00
0E00
0E00
0E00
0E00
3F80
0000
0000
0000
0000
0000
ENDCHAR

STARTCHAR char_0x0032
ENCODING 50
SWIDTH 935 0
DWIDTH 10 0
BBX 10 20 0 -5
BITMAP
0000
0000
0000
0000
3F00
7380
7380
7380
0700
0E00
1C00
3800
7180
7F80
7F80
0000
0000
0000
0000
0000
ENDCHAR

STARTCHAR char_0x0033
ENCODING 51
SWIDTH 935 0
DWIDTH 10 0
BBX 10 20 0 -5
BITMAP
0000
0000
0000
0000
3F00
7380
7380
0380
0700
0E00
0700
0380
7380
7380
3F00
0000
0000
0000
0000
0000
ENDCHAR

STARTCHAR char_0x0034
ENCODING 52
SWIDTH 935 0
DWIDTH 10 0
BBX 10 20 0 -5
BITMAP
0000
0000
0000
0000
0380
0780
0F80
1B80
3380
7380
7380
7FC0
0380
0380
0380
0000
0000
0000
0000
0000
ENDCHAR

STARTCHAR char_0x0035
ENCODING 53
SWIDTH 935 0
DWIDTH 10 0
BBX 10 20 0 -5
BITMAP
0000
0000
0000
0000
7F80
7000
7000
7000
7F00
0380
0380
0380
7380
7380
3F00
0000
0000
0000
0000
0000
ENDCHAR

STARTCHAR char_0x0036
ENCODING 54
SWIDTH 935 0
DWIDTH 10 0
BBX 10 20 0 -5
BITMAP
0000
0000
0000
0000
3F00
7380
7380
7000
7F00
7380
7380
7380
7380
7380
3F00
0000
0000
0000
0000
0000
ENDCHAR

STARTCHAR char_0x0037
ENCODING 55
SWIDTH 935 0
DWIDTH 10 0
BBX 10 20 0 -5
BITMAP
0000
0000
0000
0000
7F80
7380
7380
0700
0700
0E00
0E00
0E00
1C00
1C00
1C00
0000
0000
0000
0000
0000
ENDCHAR

STARTCHAR char_0x0038
ENCODING 56
SWIDTH 935 0
DWIDTH 10 0
BBX 10 20 0 -5
BITMAP
0000
0000
0000
0000
3F00
7380
7380
7380
7380
3F00
7380
7380
7380
7380
3F00
0000
0000
0000
0000
0000
ENDCHAR

STARTCHAR char_0x0039
ENCODING 57
SWIDTH 935 0
DWIDTH 10 0
BBX 10 20 0 -5
BITMAP
0000
0000
0000
0000
3F00
7380
7380
7380
7380
7380
3F80
0380
7380
7380
3F00
0000
0000
0000
0000
0000
ENDCHAR

STARTCHAR char_0x003A
ENCODING 58
SWIDTH 935 0
DWIDTH 10 0
BBX 10 20 0 -5
BITMAP
0000
0000
0000
0000
0000
0000
0000
1C00
1C00
1C00
0000
0000
1C00
1C00
1C00
0000
0000
0000
0000
0000
ENDCHAR

STARTCHAR char_0x003B
ENCODING 59
SWIDTH 935 0
DWIDTH 10 0
BBX 10 20 0 -5
BITMAP
0000
0000
0000
0000
0000
0000
0000
1C00
1C00
1C00
0000
0000
1C00
1C00
1C00
1800
3000
0000
0000
0000
ENDCHAR

STARTCHAR char_0x003C
ENCODING 60
SWIDTH 935 0
DWIDTH 10 0
BBX 10 20 0 -5
BITMAP
0000
0000
0000
0000
0380
0700
0E00
1C00
3800
7000
3800
1C00
0E00
0700
0380
0000
0000
0000
0000
0000
ENDCHAR

STARTCHAR char_0x003D
ENCODING 61
SWIDTH 935 0
DWIDTH 10 0
BBX 10 20 0 -5
BITMAP
0000
0000
0000
0000
0000
0000
3F80
3F80
0000
0000
3F80
3F80
0000
0000
0000
0000
0000
0000
0000
0000
ENDCHAR

STARTCHAR char_0x003E
ENCODING 62
SWIDTH 935 0
DWIDTH 10 0
BBX 10 20 0 -5
BITMAP
0000
0000
0000
0000
7000
3800
1C00
0E00
0700
0380
0700
0E00
1C00
3800
7000
0000
0000
0000
0000
0000
ENDCHAR

STARTCHAR char_0x003F
ENCODING 63
SWIDTH 935 0
DWIDTH 10 0
BBX 10 20 0 -5
BITMAP
0000
0000
0000
3F00
7380
7380
0380
0700
0E00
0C00
0800
0000
1C00
1C00
1C00
0000
0000
0000
0000
0000
ENDCHAR

STARTCHAR char_0x0040
ENCODING 64
SWIDTH 935 0
DWIDTH 10 0
BBX 10 20 0 -5
BITMAP
0000
0000
0000
0000
1F00
3880
70C0
73C0
76C0
76C0
76C0
73C0
7000
3180
1F00
0000
0000
0000
0000
0000
ENDCHAR

STARTCHAR char_0x0041
ENCODING 65
SWIDTH 935 0
DWIDTH 10 0
BBX 10 20 0 -5
BITMAP
0000
0000
0000
0000
0C00
1E00
3300
7380
7380
7380
7F80
7380
7380
7380
7380
0000
0000
0000
0000
0000
ENDCHAR

STARTCHAR char_0x0042
ENCODING 66
SWIDTH 935 0
DWIDTH 10 0
BBX 10 20 0 -5
BITMAP
0000
0000
0000
0000
7E00
7300
7380
7380
7380
7F00
7380
7380
7380
7300
7E00
0000
0000
0000
0000
0000
ENDCHAR

STARTCHAR char_0x0043
ENCODING 67
SWIDTH 935 0
DWIDTH 10 0
BBX 10 20 0 -5
BITMAP
0000
0000
0000
0000
1F00
3180
7180
7000
7000
7000
7000
7000
7180
3180
1F00
0000
0000
0000
0000
0000
ENDCHAR

STARTCHAR char_0x0044
ENCODING 68
SWIDTH 935 0
DWIDTH 10 0
BBX 10 20 0 -5
BITMAP
0000
0000
0000
0000
7E00
7300
7380
7380
7380
7380
7380
7380
7380
7300
7E00
0000
0000
0000
0000
0000
ENDCHAR

STARTCHAR char_0x0045
ENCODING 69
SWIDTH 935 0
DWIDTH 10 0
BBX 10 20 0 -5
BITMAP
0000
0000
0000
0000
7F80
7000
7000
7000
7000
7E00
7000
7000
7000
7000
7F80
0000
0000
0000
0000
0000
ENDCHAR

STARTCHAR char_0x0046
ENCODING 70
SWIDTH 935 0
DWIDTH 10 0
BBX 10 20 0 -5
BITMAP
0000
0000
0000
0000
7F80
7000
7000
7000
7000
7E00
7000
7000
7000
7000
7000
0000
0000
0000
0000
0000
ENDCHAR

STARTCHAR char_0x0047
ENCODING 71
SWIDTH 935 0
DWIDTH 10 0
BBX 10 20 0 -5
BITMAP
0000
0000
0000
0000
1F00
3380
7380
7000
7000
7780
7380
7380
7380
3300
1E00
0000
0000
0000
0000
0000
ENDCHAR

STARTCHAR char_0x0048
ENCODING 72
SWIDTH 935 0
DWIDTH 10 0
BBX 10 20 0 -5
BITMAP
0000
0000
0000
0000
7380
7380
7380
7380
7380
7F80
7380
7380
7380
7380
7380
0000
0000
0000
0000
0000
ENDCHAR

STARTCHAR char_0x0049
ENCODING 73
SWIDTH 935 0
DWIDTH 10 0
BBX 10 20 0 -5
BITMAP
0000
0000
0000
0000
7FC0
0E00
0E00
0E00
0E00
0E00
0E00
0E00
0E00
0E00
7FC0
0000
0000
0000
0000
0000
ENDCHAR

STARTCHAR char_0x004A
ENCODING 74
SWIDTH 935 0
DWIDTH 10 0
BBX 10 20 0 -5
BITMAP
0000
0000
0000
0000
1FC0
0700
0700
0700
0700
0700
0700
0700
7700
7700
3E00
0000
0000
0000
0000
0000
ENDCHAR

STARTCHAR char_0x004B
ENCODING 75
SWIDTH 935 0
DWIDTH 10 0
BBX 10 20 0 -5
BITMAP
0000
0000
0000
0000
70C0
7180
7300
7600
7C00
7C00
7E00
7F00
7780
73C0
71C0
0000
0000
0000
0000
0000
ENDCHAR

STARTCHAR char_0x004C
ENCODING 76
SWIDTH 935 0
DWIDTH 10 0
BBX 10 20 0 -5
BITMAP
0000
0000
0000
0000
7000
7000
7000
7000
7000
7000
7000
7000
7000
7000
7F80
0000
0000
0000
0000
0000
ENDCHAR

STARTCHAR char_0x004D
ENCODING 77
SWIDTH 935 0
DWIDTH 10 0
BBX 10 20 0 -5
BITMAP
0000
0000
0000
0000
60C0
71C0
7BC0
7FC0
7FC0
75C0
75C0
71C0
71C0
71C0
71C0
0000
0000
0000
0000
0000
ENDCHAR

STARTCHAR char_0x004E
ENCODING 78
SWIDTH 935 0
DWIDTH 10 0
BBX 10 20 0 -5
BITMAP
0000
0000
0000
0000
71C0
71C0
79C0
79C0
7DC0
7FC0
77C0
73C0
73C0
71C0
71C0
0000
0000
0000
0000
0000
ENDCHAR

STARTCHAR char_0x004F
ENCODING 79
SWIDTH 935 0
DWIDTH 10 0
BBX 10 20 0 -5
BITMAP
0000
0000
0000
0000
3F00
7380
7380
7380
7380
7380
7380
7380
7380
7380
3F00
0000
0000
0000
0000
0000
ENDCHAR

STARTCHAR char_0x0050
ENCODING 80
SWIDTH 935 0
DWIDTH 10 0
BBX 10 20 0 -5
BITMAP
0000
0000
0000
0000
7E00
7300
7380
7380
7380
7380
7300
7E00
7000
7000
7000
0000
0000
0000
0000
0000
ENDCHAR

STARTCHAR char_0x0051
ENCODING 81
SWIDTH 935 0
DWIDTH 10 0
BBX 10 20 0 -5
BITMAP
0000
0000
0000
0000
3F00
7380
7380
7380
7380
7380
7380
7380
7380
7780
3F00
0700
0380
0000
0000
0000
ENDCHAR

STARTCHAR char_0x0052
ENCODING 82
SWIDTH 935 0
DWIDTH 10 0
BBX 10 20 0 -5
BITMAP
0000
0000
0000
0000
7E00
7300
7380
7380
7380
7380
7F00
7E00
7700
7380
71C0
0000
0000
0000
0000
0000
ENDCHAR

STARTCHAR char_0x0053
ENCODING 83
SWIDTH 935 0
DWIDTH 10 0
BBX 10 20 0 -5
BITMAP
0000
0000
0000
0000
3F00
7380
7380
7380
7000
3F00
0380
7380
7380
7380
3F00
0000
0000
0000
0000
0000
ENDCHAR

STARTCHAR char_0x0054
ENCODING 84
SWIDTH 935 0
DWIDTH 10 0
BBX 10 20 0 -5
BITMAP
0000
0000
0000
0000
7FC0
0E00
0E00
0E00
0E00
0E00
0E00
0E00
0E00
0E00
0E00
0000
0000
0000
0000
0000
ENDCHAR

STARTCHAR char_0x0055
ENCODING 85
SWIDTH 935 0
DWIDTH 10 0
BBX 10 20 0 -5
BITMAP
0000
0000
0000
0000
7380
7380
7380
7380
7380
7380
7380
7380
7380
7380
3F00
0000
0000
0000
0000
0000
ENDCHAR

STARTCHAR char_0x0056
ENCODING 86
SWIDTH 935 0
DWIDTH 10 0
BBX 10 20 0 -5
BITMAP
0000
0000
0000
0000
7380
7380
7380
7380
7380
7380
7380
7380
3300
1E00
0C00
0000
0000
0000
0000
0000
ENDCHAR

STARTCHAR char_0x0057
ENCODING 87
SWIDTH 935 0
DWIDTH 10 0
BBX 10 20 0 -5
BITMAP
0000
0000
0000
0000
71C0
71C0
71C0
71C0
75C0
75C0
75C0
75C0
7FC0
3B80
1100
0000
0000
0000
0000
0000
ENDCHAR

STARTCHAR char_0x0058
ENCODING 88
SWIDTH 935 0
DWIDTH 10 0
BBX 10 20 0 -5
BITMAP
0000
0000
0000
0000
7BC0
7BC0
3B80
1B00
1F00
0E00
1F00
1B00
3B80
7BC0
7BC0
0000
0000
0000
0000
0000
ENDCHAR

STARTCHAR char_0x0059
ENCODING 89
SWIDTH 935 0
DWIDTH 10 0
BBX 10 20 0 -5
BITMAP
0000
0000
0000
0000
71C0
71C0
71C0
71C0
3180
1B00
0E00
0E00
0E00
0E00
0E00
0000
0000
0000
0000
0000
ENDCHAR

STARTCHAR char_0x005A
ENCODING 90
SWIDTH 935 0
DWIDTH 10 0
BBX 10 20 0 -5
BITMAP
0000
0000
0000
0000
7F80
0380
0380
0780
0F00
1E00
3C00
7800
7000
7000
7F80
0000
0000
0000
0000
0000
ENDCHAR

STARTCHAR char_0x005B
ENCODING 91
SWIDTH 935 0
DWIDTH 10 0
BBX 10 20 0 -5
BITMAP
0000
0000
0000
1F00
1C00
1C00
1C00
1C00
1C00
1C00
1C00
1C00
1C00
1C00
1C00
1F00
0000
0000
0000
0000
ENDCHAR

STARTCHAR char_0x005C
ENCODING 92
SWIDTH 935 0
DWIDTH 10 0
BBX 10 20 0 -5
BITMAP
0000
0000
0000
7000
7000
3800
3800
1C00
1C00
0E00
0E00
0700
0700
0380
0380
0000
0000
0000
0000
0000
ENDCHAR

STARTCHAR char_0x005D
ENCODING 93
SWIDTH 935 0
DWIDTH 10 0
BBX 10 20 0 -5
BITMAP
0000
0000
0000
3E00
0E00
0E00
0E00
0E00
0E00
0E00
0E00
0E00
0E00
0E00
0E00
3E00
0000
0000
0000
0000
ENDCHAR

STARTCHAR char_0x005E
ENCODING 94
SWIDTH 935 0
DWIDTH 10 0
BBX 10 20 0 -5
BITMAP
0000
0C00
1E00
3F00
7380
0000
0000
0000
0000
0000
0000
0000
0000
0000
0000
0000
0000
0000
0000
0000
ENDCHAR

STARTCHAR char_0x005F
ENCODING 95
SWIDTH 935 0
DWIDTH 10 0
BBX 10 20 0 -5
BITMAP
0000
0000
0000
0000
0000
0000
0000
0000
0000
0000
0000
0000
0000
0000
0000
0000
0000
0000
0000
0000
ENDCHAR

STARTCHAR char_0x0060
ENCODING 96
SWIDTH 935 0
DWIDTH 10 0
BBX 10 20 0 -5
BITMAP
0000
0000
0000
0000
0400
0E00
1F00
3F80
7FC0
3F80
1F00
0E00
0400
0000
0000
0000
0000
0000
0000
0000
ENDCHAR

STARTCHAR char_0x0061
ENCODING 97
SWIDTH 935 0
DWIDTH 10 0
BBX 10 20 0 -5
BITMAP
AA80
FFC0
5540
FFC0
AA80
FFC0
5540
FFC0
AA80
FFC0
5540
FFC0
AA80
FFC0
5540
FFC0
AA80
FFC0
5540
FFC0
ENDCHAR

STARTCHAR char_0x0062
ENCODING 98
SWIDTH 935 0
DWIDTH 10 0
BBX 10 20 0 -5
BITMAP
0000
0000
7700
7700
7700
7F00
7700
7700
7700
0000
0000
3F80
0E00
0E00
0E00
0E00
0E00
0E00
0000
0000
ENDCHAR

STARTCHAR char_0x0063
ENCODING 99
SWIDTH 935 0
DWIDTH 10 0
BBX 10 20 0 -5
BITMAP
0000
0000
7E00
7000
7000
7C00
7000
7000
7000
0000
0000
1F80
1C00
1C00
1F00
1C00
1C00
1C00
0000
0000
ENDCHAR

STARTCHAR char_0x0064
ENCODING 100
SWIDTH 935 0
DWIDTH 10 0
BBX 10 20 0 -5
BITMAP
0000
0000
3E00
7300
7300
7000
7300
7300
3E00
0000
0000
3F00
3B80
3B80
3F00
3F00
3B80
3B80
0000
0000
ENDCHAR

STARTCHAR char_0x0065
ENCODING 101
SWIDTH 935 0
DWIDTH 10 0
BBX 10 20 0 -5
BITMAP
0000
0000
7000
7000
7000
7000
7000
7000
7E00
0000
0000
1F80
1C00
1C00
1F00
1C00
1C00
1C00
0000
0000
ENDCHAR

STARTCHAR char_0x0066
ENCODING 102
SWIDTH 935 0
DWIDTH 10 0
BBX 10 20 0 -5
BITMAP
0000
0000
0000
3E00
7700
7700
3E00
0000
0000
0000
0000
0000
0000
0000
0000
0000
0000
0000
0000
0000
ENDCHAR

STARTCHAR char_0x0067
ENCODING 103
SWIDTH 935 0
DWIDTH 10 0
BBX 10 20 0 -5
BITMAP
0000
0000
0000
0000
0E00
0E00
3F80
3F80
0E00
0E00
0E00
0000
3F80
3F80
0000
0000
0000
0000
0000
0000
ENDCHAR

STARTCHAR char_0x0068
ENCODING 104
SWIDTH 935 0
DWIDTH 10 0
BBX 10 20 0 -5
BITMAP
0000
0000
6300
7300
7300
7F00
7F00
7700
7300
0000
0000
1C00
1C00
1C00
1C00
1C00
1C00
1F80
0000
0000
ENDCHAR

STARTCHAR char_0x0069
ENCODING 105
SWIDTH 935 0
DWIDTH 10 0
BBX 10 20 0 -5
BITMAP
0000
0000
7380
7380
7380
7380
3F00
1E00
0C00
0000
0000
3F80
0E00
0E00
0E00
0E00
0E00
0E00
0000
0000
ENDCHAR

STARTCHAR char_0x006A
ENCODING 106
SWIDTH 935 0
DWIDTH 10 0
BBX 10 20 0 -5
BITMAP
0E00
0E00
0E00
0E00
0E00
0E00
0E00
0E00
FE00
FE00
FE00
0000
0000
0000
0000
0000
0000
0000
0000
0000
ENDCHAR

STARTCHAR char_0x006B
ENCODING 107
SWIDTH 935 0
DWIDTH 10 0
BBX 10 20 0 -5
BITMAP
0000
0000
0000
0000
0000
0000
0000
0000
FE00
FE00
FE00
0E00
0E00
0E00
0E00
0E00
0E00
0E00
0E00
0E00
ENDCHAR

STARTCHAR char_0x006C
ENCODING 108
SWIDTH 935 0
DWIDTH 10 0
BBX 10 20 0 -5
BITMAP
0000
0000
0000
0000
0000
0000
0000
0000
0FC0
0FC0
0FC0
0E00
0E00
0E00
0E00
0E00
0E00
0E00
0E00
0E00
ENDCHAR

STARTCHAR char_0x006D
ENCODING 109
SWIDTH 935 0
DWIDTH 10 0
BBX 10 20 0 -5
BITMAP
0E00
0E00
0E00
0E00
0E00
0E00
0E00
0E00
0FC0
0FC0
0FC0
0000
0000
0000
0000
0000
0000
0000
0000
0000
ENDCHAR

STARTCHAR char_0x006E
ENCODING 110
SWIDTH 935 0
DWIDTH 10 0
BBX 10 20 0 -5
BITMAP
0E00
0E00
0E00
0E00
0E00
0E00
0E00
0E00
FFC0
FFC0
FFC0
0E00
0E00
0E00
0E00
0E00
0E00
0E00
0E00
0E00
ENDCHAR

STARTCHAR char_0x006F
ENCODING 111
SWIDTH 935 0
DWIDTH 10 0
BBX 10 20 0 -5
BITMAP
FFC0
FFC0
FFC0
0000
0000
0000
0000
0000
0000
0000
0000
0000
0000
0000
0000
0000
0000
0000
0000
0000
ENDCHAR

STARTCHAR char_0x0070
ENCODING 112
SWIDTH 935 0
DWIDTH 10 0
BBX 10 20 0 -5
BITMAP
0000
0000
0000
0000
FFC0
FFC0
FFC0
0000
0000
0000
0000
0000
0000
0000
0000
0000
0000
0000
0000
0000
ENDCHAR

STARTCHAR char_0x0071
ENCODING 113
SWIDTH 935 0
DWIDTH 10 0
BBX 10 20 0 -5
BITMAP
0000
0000
0000
0000
0000
0000
0000
0000
FFC0
FFC0
FFC0
0000
0000
0000
0000
0000
0000
0000
0000
0000
ENDCHAR

STARTCHAR char_0x0072
ENCODING 114
SWIDTH 935 0
DWIDTH 10 0
BBX 10 20 0 -5
BITMAP
0000
0000
0000
0000
0000
0000
0000
0000
0000
0000
0000
0000
FFC0
FFC0
FFC0
0000
0000
0000
0000
0000
ENDCHAR

STARTCHAR char_0x0073
ENCODING 115
SWIDTH 935 0
DWIDTH 10 0
BBX 10 20 0 -5
BITMAP
0000
0000
0000
0000
0000
0000
0000
0000
0000
0000
0000
0000
0000
0000
0000
0000
FFC0
FFC0
FFC0
0000
ENDCHAR

STARTCHAR char_0x0074
ENCODING 116
SWIDTH 935 0
DWIDTH 10 0
BBX 10 20 0 -5
BITMAP
0E00
0E00
0E00
0E00
0E00
0E00
0E00
0E00
0FC0
0FC0
0FC0
0E00
0E00
0E00
0E00
0E00
0E00
0E00
0E00
0E00
ENDCHAR

STARTCHAR char_0x0075
ENCODING 117
SWIDTH 935 0
DWIDTH 10 0
BBX 10 20 0 -5
BITMAP
0E00
0E00
0E00
0E00
0E00
0E00
0E00
0E00
FE00
FE00
FE00
0E00
0E00
0E00
0E00
0E00
0E00
0E00
0E00
0E00
ENDCHAR

STARTCHAR char_0x0076
ENCODING 118
SWIDTH 935 0
DWIDTH 10 0
BBX 10 20 0 -5
BITMAP
0E00
0E00
0E00
0E00
0E00
0E00
0E00
0E00
FFC0
FFC0
FFC0
0000
0000
0000
0000
0000
0000
0000
0000
0000
ENDCHAR

STARTCHAR char_0x0077
ENCODING 119
SWIDTH 935 0
DWIDTH 10 0
BBX 10 20 0 -5
BITMAP
0000
0000
0000
0000
0000
0000
0000
0000
FFC0
FFC0
FFC0
0E00
0E00
0E00
0E00
0E00
0E00
0E00
0E00
0E00
ENDCHAR

STARTCHAR char_0x0078
ENCODING 120
SWIDTH 935 0
DWIDTH 10 0
BBX 10 20 0 -5
BITMAP
0E00
0E00
0E00
0E00
0E00
0E00
0E00
0E00
0E00
0E00
0E00
0E00
0E00
0E00
0E00
0E00
0E00
0E00
0E00
0E00
ENDCHAR

STARTCHAR char_0x0079
ENCODING 121
SWIDTH 935 0
DWIDTH 10 0
BBX 10 20 0 -5
BITMAP
0000
0000
0000
0000
0700
0E00
1C00
3800
7000
3800
1C00
0E00
0700
7F00
7F00
0000
0000
0000
0000
0000
ENDCHAR

STARTCHAR char_0x007A
ENCODING 122
SWIDTH 935 0
DWIDTH 10 0
BBX 10 20 0 -5
BITMAP
0000
0000
0000
0000
3800
1C00
0E00
0700
0380
0700
0E00
1C00
3800
3F80
3F80
0000
0000
0000
0000
0000
ENDCHAR

STARTCHAR char_0x007B
ENCODING 123
SWIDTH 935 0
DWIDTH 10 0
BBX 10 20 0 -5
BITMAP
0000
0000
0000
0000
0000
1C40
3FC0
7F80
3B00
3B00
3B00
3B00
3B00
3B00
3B00
0000
0000
0000
0000
0000
ENDCHAR

STARTCHAR char_0x007C
ENCODING 124
SWIDTH 935 0
DWIDTH 10 0
BBX 10 20 0 -5
BITMAP
0000
0000
0000
0000
0000
0380
7F80
7F80
0E00
1C00
7F80
7F80
7000
0000
0000
0000
0000
0000
0000
0000
ENDCHAR

STARTCHAR char_0x007D
ENCODING 125
SWIDTH 935 0
DWIDTH 10 0
BBX 10 20 0 -5
BITMAP
0000
0000
0000
0000
0780
0DC0
1DC0
1C00
1C00
7F80
1C00
1C00
3DC0
7DC0
77C0
0000
0000
0000
0000
0000
ENDCHAR

STARTCHAR char_0x007E
ENCODING 126
SWIDTH 935 0
DWIDTH 10 0
BBX 10 20 0 -5
BITMAP
0000
0000
0000
0000
0000
0000
0000
0000
1C00
1C00
1C00
0000
0000
0000
0000
0000
0000
0000
0000
0000
ENDCHAR

STARTCHAR char_0x00A1
ENCODING 161
SWIDTH 935 0
DWIDTH 10 0
BBX 10 20 0 -5
BITMAP
0E00
0E00
0E00
0E00
0E00
0E00
0E00
0E00
0E00
0E00
4E00
6E00
7E00
3E00
1E00
0E00
0000
0000
0000
0000
ENDCHAR

STARTCHAR char_0x00A2
ENCODING 162
SWIDTH 935 0
DWIDTH 10 0
BBX 10 20 0 -5
BITMAP
0000
0000
0000
0000
0000
0000
0000
0000
0000
0FC0
0FC0
0FC0
0E00
0E00
0E00
0E00
0E00
0E00
0E00
0E00
ENDCHAR

STARTCHAR char_0x00A3
ENCODING 163
SWIDTH 935 0
DWIDTH 10 0
BBX 10 20 0 -5
BITMAP
0000
0000
0000
0000
0000
0000
0000
0000
0000
FFC0
FFC0
FFC0
0000
0000
0000
0000
0000
0000
0000
0000
ENDCHAR

STARTCHAR char_0x00A4
ENCODING 164
SWIDTH 935 0
DWIDTH 10 0
BBX 10 20 0 -5
BITMAP
0000
0780
0FC0
0EC0
0E00
0E00
0E00
0E00
0E00
0E00
0E00
0E00
0E00
0E00
0E00
0E00
0E00
0E00
0E00
0E00
ENDCHAR

STARTCHAR char_0x00A5
ENCODING 165
SWIDTH 935 0
DWIDTH 10 0
BBX 10 20 0 -5
BITMAP
0E00
0E00
0E00
0E00
0E00
0E00
0E00
0E00
0E00
0E00
0E00
0E00
0E00
0E00
0E00
0E00
6E00
7E00
3C00
0000
ENDCHAR

STARTCHAR char_0x00A6
ENCODING 166
SWIDTH 935 0
DWIDTH 10 0
BBX 10 20 0 -5
BITMAP
0E00
0E00
0E00
0E00
0E00
0E00
0E00
0E00
0E00
0E00
0E00
0E00
0E00
0E00
0E00
0E00
0E00
0E00
0E00
0E00
ENDCHAR

STARTCHAR char_0x00A7
ENCODING 167
SWIDTH 935 0
DWIDTH 10 0
BBX 10 20 0 -5
BITMAP
0000
0FC0
0FC0
0FC0
0E00
0E00
0E00
0E00
0E00
0E00
0E00
0E00
0E00
0E00
0E00
0E00
0E00
0E00
0E00
0E00
ENDCHAR

STARTCHAR char_0x00A8
ENCODING 168
SWIDTH 935 0
DWIDTH 10 0
BBX 10 20 0 -5
BITMAP
0E00
0E00
0E00
0E00
0E00
0E00
0E00
0E00
0E00
0E00
0E00
0E00
0E00
0E00
0E00
0E00
0FC0
0FC0
0FC0
0000
ENDCHAR

STARTCHAR char_0x00A9
ENCODING 169
SWIDTH 935 0
DWIDTH 10 0
BBX 10 20 0 -5
BITMAP
0000
7E00
7E00
7E00
0E00
0E00
0E00
0E00
0E00
0E00
0E00
0E00
0E00
0E00
0E00
0E00
0E00
0E00
0E00
0E00
ENDCHAR

STARTCHAR char_0x00AA
ENCODING 170
SWIDTH 935 0
DWIDTH 10 0
BBX 10 20 0 -5
BITMAP
0E00
0E00
0E00
0E00
0E00
0E00
0E00
0E00
0E00
0E00
0E00
0E00
0E00
0E00
0E00
0E00
0E00
7E00
7E00
7E00
ENDCHAR

STARTCHAR char_0x00AB
ENCODING 171
SWIDTH 935 0
DWIDTH 10 0
BBX 10 20 0 -5
BITMAP
0000
03C0
07C0
0F00
0E00
0E00
0E00
0E00
0E00
0E00
0E00
0E00
0E00
0E00
0E00
0E00
0E00
0E00
0E00
0E00
ENDCHAR

STARTCHAR char_0x00AC
ENCODING 172
SWIDTH 935 0
DWIDTH 10 0
BBX 10 20 0 -5
BITMAP
0E00
0E00
0E00
0E00
0E00
0E00
0E00
0E00
0E00
0E00
0E00
0E00
0E00
0E00
0E00
0E00
0F00
07C0
03C0
0000
ENDCHAR

STARTCHAR char_0x00AD
ENCODING 173
SWIDTH 935 0
DWIDTH 10 0
BBX 10 20 0 -5
BITMAP
0000
7800
7C00
1E00
0E00
0E00
0E00
0E00
0E00
0E00
0E00
0E00
0E00
0E00
0E00
0E00
0E00
0E00
0E00
0E00
ENDCHAR

STARTCHAR char_0x00AE
ENCODING 174
SWIDTH 935 0
DWIDTH 10 0
BBX 10 20 0 -5
BITMAP
0E00
0E00
0E00
0E00
0E00
0E00
0E00
0E00
0E00
0E00
0E00
0E00
0E00
0E00
0E00
0E00
1E00
7C00
7800
0000
ENDCHAR

STARTCHAR char_0x00AF
ENCODING 175
SWIDTH 935 0
DWIDTH 10 0
BBX 10 20 0 -5
BITMAP
0E00
0E00
0E00
0E00
0E00
0E00
0E00
0E00
1C00
7800
1C00
0E00
0E00
0E00
0E00
0E00
0E00
0E00
0E00
0E00
ENDCHAR

STARTCHAR char_0x00B0
ENCODING 176
SWIDTH 935 0
DWIDTH 10 0
BBX 10 20 0 -5
BITMAP
0E00
0E00
0E00
0E00
0E00
0E00
0E00
0E00
0700
03C0
0700
0E00
0E00
0E00
0E00
0E00
0E00
0E00
0E00
0E00
ENDCHAR

STARTCHAR char_0x00B1
ENCODING 177
SWIDTH 935 0
DWIDTH 10 0
BBX 10 20 0 -5
BITMAP
0000
0000
0000
0000
0000
0000
0000
0000
0000
3FC0
3FC0
1FC0
1C00
0E00
0E00
0700
0700
0380
0380
01C0
ENDCHAR

STARTCHAR char_0x00B2
ENCODING 178
SWIDTH 935 0
DWIDTH 10 0
BBX 10 20 0 -5
BITMAP
01C0
0380
0380
0700
0700
0E00
0E00
1C00
1C00
3FC0
3FC0
3FC0
0000
0000
0000
0000
0000
0000
0000
0000
ENDCHAR

STARTCHAR char_0x00B3
ENCODING 179
SWIDTH 935 0
DWIDTH 10 0
BBX 10 20 0 -5
BITMAP
E000
E000
E000
7000
7000
3800
3800
3800
1C00
1C00
0E00
0E00
0E00
0700
0700
0380
0380
0380
01C0
01C0
ENDCHAR

STARTCHAR char_0x00B4
ENCODING 180
SWIDTH 935 0
DWIDTH 10 0
BBX 10 20 0 -5
BITMAP
01C0
01C0
0380
0380
0380
0700
0700
0E00
0E00
0E00
1C00
1C00
3800
3800
3800
7000
7000
E000
E000
E000
ENDCHAR

STARTCHAR char_0x00B5
ENCODING 181
SWIDTH 935 0
DWIDTH 10 0
BBX 10 20 0 -5
BITMAP
0000
0000
0000
0000
0000
0000
0000
0000
0000
FF80
FF80
FF80
0380
0380
0000
0000
0000
0000
0000
0000
ENDCHAR

STARTCHAR char_0x00B6
ENCODING 182
SWIDTH 935 0
DWIDTH 10 0
BBX 10 20 0 -5
BITMAP
0000
0000
0000
0000
0000
0000
0000
0380
0380
FF80
FF80
FF80
0000
0000
0000
0000
0000
0000
0000
0000
ENDCHAR

STARTCHAR char_0x00B7
ENCODING 183
SWIDTH 935 0
DWIDTH 10 0
BBX 10 20 0 -5
BITMAP
E000
E000
7000
7000
7000
3800
3800
1C00
1C00
0E00
0E00
1C00
1C00
3800
3800
7000
7000
7000
E000
E000
ENDCHAR

STARTCHAR char_0x00BC
ENCODING 188
SWIDTH 935 0
DWIDTH 10 0
BBX 10 20 0 -5
BITMAP
0000
0000
0000
0000
0000
0380
0700
0E00
1C00
3800
7F80
7F80
0000
0000
7F80
7F80
7F80
0000
0000
0000
ENDCHAR

STARTCHAR char_0x00BD
ENCODING 189
SWIDTH 935 0
DWIDTH 10 0
BBX 10 20 0 -5
BITMAP
0000
0000
0000
0000
0000
0000
0000
0000
0700
0700
7FC0
7FC0
0E00
0E00
7FC0
7FC0
1C00
1C00
0000
0000
ENDCHAR

STARTCHAR char_0x00BE
ENCODING 190
SWIDTH 935 0
DWIDTH 10 0
BBX 10 20 0 -5
BITMAP
0000
0000
0000
0000
0000
7000
3800
1C00
0E00
0700
7F80
7F80
0000
0000
7F80
7F80
7F80
0000
0000
0000
ENDCHAR

STARTCHAR char_0x00BF
ENCODING 191
SWIDTH 935 0
DWIDTH 10 0
BBX 10 20 0 -5
BITMAP
0000
0000
0780
0FC0
0EC0
0E00
0E00
0E00
0E00
0E00
0E00
0E00
0E00
0E00
0E00
0E00
6E00
7E00
3C00
0000
ENDCHAR

STARTCHAR char_0x00C0
ENCODING 192
SWIDTH 935 0
DWIDTH 10 0
BBX 10 20 0 -5
BITMAP
0000
0000
0000
0000
0000
0000
0E00
0E00
0E00
0000
0000
71C0
71C0
71C0
0000
0000
0000
0000
0000
0000
ENDCHAR

STARTCHAR char_0x00C1
ENCODING 193
SWIDTH 935 0
DWIDTH 10 0
BBX 10 20 0 -5
BITMAP
0000
0000
0000
0000
0000
0000
0000
0000
1CC0
3B80
7380
7380
7380
7380
3B80
1DC0
0000
0000
0000
0000
ENDCHAR

STARTCHAR char_0x00C2
ENCODING 194
SWIDTH 935 0
DWIDTH 10 0
BBX 10 20 0 -5
BITMAP
0000
0000
0000
0000
0000
0000
0000
0000
3380
6DC0
EDC0
EDC0
EDC0
EDC0
6D80
3300
0000
0000
0000
0000
ENDCHAR

STARTCHAR char_0x00C3
ENCODING 195
SWIDTH 935 0
DWIDTH 10 0
BBX 10 20 0 -5
BITMAP
0000
0000
0000
0000
0000
0000
0E00
0E00
0000
7FC0
7FC0
7FC0
0000
0E00
0E00
0000
0000
0000
0000
0000
ENDCHAR

STARTCHAR char_0x00C4
ENCODING 196
SWIDTH 935 0
DWIDTH 10 0
BBX 10 20 0 -5
BITMAP
0000
0000
0000
0000
0000
0400
0E00
0E00
1B00
1B00
3B80
3B80
3180
71C0
71C0
7FC0
0000
0000
0000
0000
ENDCHAR

STARTCHAR char_0x00C5
ENCODING 197
SWIDTH 935 0
DWIDTH 10 0
BBX 10 20 0 -5
BITMAP
0000
0000
0000
0000
0000
0000
7FC0
71C0
71C0
3180
3B80
3B80
1B00
1B00
0E00
0400
0000
0000
0000
0000
ENDCHAR

STARTCHAR char_0x00C6
ENCODING 198
SWIDTH 935 0
DWIDTH 10 0
BBX 10 20 0 -5
BITMAP
0000
0000
0000
0000
0000
3F80
0E00
0E00
3F80
6EC0
6EC0
6EC0
3F80
0E00
0E00
3F80
0000
0000
0000
0000
ENDCHAR

STARTCHAR char_0x00C7
ENCODING 199
SWIDTH 935 0
DWIDTH 10 0
BBX 10 20 0 -5
BITMAP
0000
0000
0000
0000
0000
7F80
3880
3880
3800
3800
3800
3800
3800
3800
3800
7C00
0000
0000
0000
0000
ENDCHAR

STARTCHAR char_0x00C8
ENCODING 200
SWIDTH 935 0
DWIDTH 10 0
BBX 10 20 0 -5
BITMAP
0000
0000
0000
0000
0000
0000
0000
0000
0000
3D80
7F80
6F00
0000
0000
0000
0000
0000
0000
0000
0000
ENDCHAR

STARTCHAR char_0x00C9
ENCODING 201
SWIDTH 935 0
DWIDTH 10 0
BBX 10 20 0 -5
BITMAP
0000
0000
0000
0000
0000
0000
0000
0000
3D80
7F80
6F00
0000
0000
7F80
7F80
0000
0000
0000
0000
0000
ENDCHAR

STARTCHAR char_0x00CA
ENCODING 202
SWIDTH 935 0
DWIDTH 10 0
BBX 10 20 0 -5
BITMAP
0000
0000
0000
0000
0000
1E00
3300
7380
7380
7F80
7F80
7380
7380
7380
3300
1E00
0000
0000
0000
0000
ENDCHAR

STARTCHAR char_0x00CB
ENCODING 203
SWIDTH 935 0
DWIDTH 10 0
BBX 10 20 0 -5
BITMAP
0000
0000
0000
0000
0000
0000
0000
3B80
3F80
1F00
0E00
1F00
3F80
3B80
0000
0000
0000
0000
0000
0000
ENDCHAR

STARTCHAR char_0x00CC
ENCODING 204
SWIDTH 935 0
DWIDTH 10 0
BBX 10 20 0 -5
BITMAP
0000
0000
0000
0000
0000
0400
0E00
0E00
1B00
1B00
3B80
3B80
3180
71C0
71C0
F1C0
0000
0000
0000
0000
ENDCHAR

STARTCHAR char_0x00CD
ENCODING 205
SWIDTH 935 0
DWIDTH 10 0
BBX 10 20 0 -5
BITMAP
0000
0000
0000
0000
0000
0000
0000
0A00
1B00
3F80
7FC0
4040
7FC0
3F80
1B00
0A00
0000
0000
0000
0000
ENDCHAR

STARTCHAR char_0x00CE
ENCODING 206
SWIDTH 935 0
DWIDTH 10 0
BBX 10 20 0 -5
BITMAP
0000
0000
0000
0000
0000
0000
0000
0400
7E00
7F00
7F80
01C0
7F80
7F00
7E00
0400
0000
0000
0000
0000
ENDCHAR

STARTCHAR char_0x00CF
ENCODING 207
SWIDTH 935 0
DWIDTH 10 0
BBX 10 20 0 -5
BITMAP
0000
0000
0000
0000
0000
3F80
3F80
3F80
0000
3F80
3F80
3F80
0000
3F80
3F80
3F80
0000
0000
0000
0000
ENDCHAR

STARTCHAR char_0x00D0
ENCODING 208
SWIDTH 935 0
DWIDTH 10 0
BBX 10 20 0 -5
BITMAP
0000
0000
0000
0000
0000
FFC0
3980
3980
3980
3980
3980
3980
3980
3980
3980
7DC0
0000
0000
0000
0000
ENDCHAR

STARTCHAR char_0x00D1
ENCODING 209
SWIDTH 935 0
DWIDTH 10 0
BBX 10 20 0 -5
BITMAP
0000
0000
0000
0000
0000
6EC0
6EC0
6EC0
6EC0
6EC0
3F80
0E00
0E00
0E00
0E00
1F00
0000
0000
0000
0000
ENDCHAR

STARTCHAR char_0x00D3
ENCODING 211
SWIDTH 935 0
DWIDTH 10 0
BBX 10 20 0 -5
BITMAP
0000
0000
0000
0000
0000
7FC0
38C0
1C00
0E00
0700
0700
0E00
1C00
3800
70C0
7FC0
0000
0000
0000
0000
ENDCHAR

STARTCHAR char_0x00D6
ENCODING 214
SWIDTH 935 0
DWIDTH 10 0
BBX 10 20 0 -5
BITMAP
0000
0000
0000
0000
01C0
01C0
0380
0300
0300
0700
8600
C600
EE00
7C00
3C00
1800
0000
0000
0000
0000
ENDCHAR

STARTCHAR char_0x00D7
ENCODING 215
SWIDTH 935 0
DWIDTH 10 0
BBX 10 20 0 -5
BITMAP
0000
0000
0000
0000
0000
1E00
3300
7380
7380
7380
7380
7380
7380
3300
B340
E1C0
0000
0000
0000
0000
ENDCHAR

STARTCHAR char_0x00D8
ENCODING 216
SWIDTH 935 0
DWIDTH 10 0
BBX 10 20 0 -5
BITMAP
0000
0000
0000
0000
0000
7F80
7F80
6180
4080
1E00
1E00
1E00
4080
6180
7F80
7F80
0000
0000
0000
0000
ENDCHAR

STARTCHAR char_0x00D9
ENCODING 217
SWIDTH 935 0
DWIDTH 10 0
BBX 10 20 0 -5
BITMAP
0000
0000
0000
0000
0000
60C0
71C0
3B80
3B80
1B00
1F00
0E00
0E00
0E00
0E00
1F00
0000
0000
0000
0000
ENDCHAR

STARTCHAR char_0x00DA
ENCODING 218
SWIDTH 935 0
DWIDTH 10 0
BBX 10 20 0 -5
BITMAP
0000
0000
0000
0000
0000
0000
0000
1F80
7F80
7F80
E000
E000
E000
7F80
7F80
1F80
0000
0000
0000
0000
ENDCHAR

STARTCHAR char_0x00DB
ENCODING 219
SWIDTH 935 0
DWIDTH 10 0
BBX 10 20 0 -5
BITMAP
0000
0000
0000
0000
0000
0000
0000
7E00
7F80
7F80
01C0
01C0
01C0
7F80
7F80
7E00
0000
0000
0000
0000
ENDCHAR

STARTCHAR char_0x00DC
ENCODING 220
SWIDTH 935 0
DWIDTH 10 0
BBX 10 20 0 -5
BITMAP
0000
0000
0000
0000
0000
0000
0E00
3F80
3F80
71C0
71C0
71C0
71C0
71C0
71C0
71C0
0000
0000
0000
0000
ENDCHAR

STARTCHAR char_0x00DD
ENCODING 221
SWIDTH 935 0
DWIDTH 10 0
BBX 10 20 0 -5
BITMAP
0000
0000
0000
0000
0000
0000
71C0
71C0
71C0
71C0
71C0
71C0
7BC0
3F80
3F80
0E00
0000
0000
0000
0000
ENDCHAR

STARTCHAR char_0x00DE
ENCODING 222
SWIDTH 935 0
DWIDTH 10 0
BBX 10 20 0 -5
BITMAP
0000
0000
0000
0000
0000
0400
0E00
0E00
1F00
1B00
3B80
3B80
3180
71C0
71C0
71C0
0000
0000
0000
0000
ENDCHAR

STARTCHAR char_0x00DF
ENCODING 223
SWIDTH 935 0
DWIDTH 10 0
BBX 10 20 0 -5
BITMAP
0000
0000
0000
0000
0000
0000
71C0
71C0
71C0
3180
3B80
3B80
1B00
1F00
0E00
0400
0000
0000
0000
0000
ENDCHAR

STARTCHAR char_0x00E0
ENCODING 224
SWIDTH 935 0
DWIDTH 10 0
BBX 10 20 0 -5
BITMAP
0000
0000
0000
0000
0000
0000
0000
0000
0000
3F80
3F80
3F80
0180
0000
0000
0000
0000
0000
0000
0000
ENDCHAR

STARTCHAR char_0x00E1
ENCODING 225
SWIDTH 935 0
DWIDTH 10 0
BBX 10 20 0 -5
BITMAP
0000
0000
0000
0000
0000
0000
0000
0000
1EC0
33C0
7380
7380
7380
7380
33C0
1EC0
0000
0000
0000
0000
ENDCHAR

STARTCHAR char_0x00E2
ENCODING 226
SWIDTH 935 0
DWIDTH 10 0
BBX 10 20 0 -5
BITMAP
0000
0000
0000
0000
1E00
3300
7380
7380
7380
7300
7E00
7300
7380
7380
7380
7300
6E00
6000
6000
0000
ENDCHAR

STARTCHAR char_0x00E3
ENCODING 227
SWIDTH 935 0
DWIDTH 10 0
BBX 10 20 0 -5
BITMAP
0000
0000
0000
0000
0000
E0C0
E1C0
7180
7380
3B00
3E00
0C00
1E00
1F00
3700
7380
6380
E1C0
C1C0
0000
ENDCHAR

STARTCHAR char_0x00E4
ENCODING 228
SWIDTH 935 0
DWIDTH 10 0
BBX 10 20 0 -5
BITMAP
0000
0000
0000
0000
1E00
3800
1C00
0E00
0300
1F00
3380
7380
7380
7380
3300
1E00
0000
0000
0000
0000
ENDCHAR

STARTCHAR char_0x00E5
ENCODING 229
SWIDTH 935 0
DWIDTH 10 0
BBX 10 20 0 -5
BITMAP
0000
0000
0000
0000
0000
0000
0000
0000
3F00
7980
7000
3E00
7000
7000
7980
3F00
0000
0000
0000
0000
ENDCHAR

STARTCHAR char_0x00E6
ENCODING 230
SWIDTH 935 0
DWIDTH 10 0
BBX 10 20 0 -5
BITMAP
0000
0000
0000
0000
0000
0000
0C00
0C00
3F00
6D80
EDC0
EDC0
EDC0
EDC0
6D80
3F00
0C00
0C00
0000
0000
ENDCHAR

STARTCHAR char_0x00E7
ENCODING 231
SWIDTH 935 0
DWIDTH 10 0
BBX 10 20 0 -5
BITMAP
0000
0000
0000
0000
0000
0000
0000
0000
E0C0
E1C0
7380
7300
3700
3E00
1C00
1C00
1C00
1C00
1C00
0000
ENDCHAR

STARTCHAR char_0x00E8
ENCODING 232
SWIDTH 935 0
DWIDTH 10 0
BBX 10 20 0 -5
BITMAP
0000
0000
0000
0000
0000
0000
0000
0000
EF00
7780
7380
7380
7380
7380
7380
7380
0380
0380
0380
0000
ENDCHAR

STARTCHAR char_0x00E9
ENCODING 233
SWIDTH 935 0
DWIDTH 10 0
BBX 10 20 0 -5
BITMAP
0000
0000
0000
0000
0000
0000
0000
0000
1E00
0E00
0E00
0E00
0E00
0E00
0E00
0F00
0000
0000
0000
0000
ENDCHAR

STARTCHAR char_0x00EA
ENCODING 234
SWIDTH 935 0
DWIDTH 10 0
BBX 10 20 0 -5
BITMAP
0000
0000
0000
0000
0000
0000
1F00
3B80
71C0
71C0
7FC0
7BC0
71C0
71C0
3B80
1F00
0000
0000
0000
0000
ENDCHAR

STARTCHAR char_0x00EB
ENCODING 235
SWIDTH 935 0
DWIDTH 10 0
BBX 10 20 0 -5
BITMAP
0000
0000
0000
0000
0000
0000
0000
0000
7380
7780
7E00
7C00
7E00
7700
7380
71C0
0000
0000
0000
0000
ENDCHAR

STARTCHAR char_0x00EC
ENCODING 236
SWIDTH 935 0
DWIDTH 10 0
BBX 10 20 0 -5
BITMAP
0000
0000
0000
0000
0000
7000
7800
1C00
1C00
0E00
0E00
1F00
1B00
3B80
3380
71C0
0000
0000
0000
0000
ENDCHAR

STARTCHAR char_0x00EE
ENCODING 238
SWIDTH 935 0
DWIDTH 10 0
BBX 10 20 0 -5
BITMAP
0000
0000
0000
0000
0000
0000
0000
0000
F180
73C0
39C0
3B80
1F00
1E00
0C00
0C00
0000
0000
0000
0000
ENDCHAR

STARTCHAR char_0x00EF
ENCODING 239
SWIDTH 935 0
DWIDTH 10 0
BBX 10 20 0 -5
BITMAP
0000
0000
0000
0000
0000
3800
3C00
0E00
0700
1F00
3B80
7380
7380
7380
3B00
1E00
0000
0000
0000
0000
ENDCHAR

STARTCHAR char_0x00F0
ENCODING 240
SWIDTH 935 0
DWIDTH 10 0
BBX 10 20 0 -5
BITMAP
0000
0000
0000
0000
0000
0000
0000
0000
7FC0
B980
B980
3980
3980
3980
3980
3980
0000
0000
0000
0000
ENDCHAR

STARTCHAR char_0x00F1
ENCODING 241
SWIDTH 935 0
DWIDTH 10 0
BBX 10 20 0 -5
BITMAP
0000
0000
0000
0000
0000
0000
0000
0E00
6EC0
6EC0
6EC0
6EC0
6EC0
3F80
1F00
0E00
0E00
0E00
0E00
0000
ENDCHAR

STARTCHAR char_0x00F2
ENCODING 242
SWIDTH 935 0
DWIDTH 10 0
BBX 10 20 0 -5
BITMAP
0000
0000
0000
0000
0000
0000
0000
0000
1E00
3300
7380
7380
7380
7380
7300
7E00
7000
7000
7000
7000
ENDCHAR

STARTCHAR char_0x00F3
ENCODING 243
SWIDTH 935 0
DWIDTH 10 0
BBX 10 20 0 -5
BITMAP
0000
0000
0000
0000
0000
0000
0000
0000
1FC0
33C0
7300
7380
7380
7380
3300
1E00
0000
0000
0000
0000
ENDCHAR

STARTCHAR char_0x00F4
ENCODING 244
SWIDTH 935 0
DWIDTH 10 0
BBX 10 20 0 -5
BITMAP
0000
0000
0000
0000
0000
0000
0000
0000
3FC0
6E00
6E00
0E00
0E00
0E00
0F40
0780
0000
0000
0000
0000
ENDCHAR

STARTCHAR char_0x00F6
ENCODING 246
SWIDTH 935 0
DWIDTH 10 0
BBX 10 20 0 -5
BITMAP
0000
0000
0000
0380
07C0
0700
0E00
0E00
0E00
3F80
1C00
1C00
3800
3800
3800
7000
7000
F000
6000
0000
ENDCHAR

STARTCHAR char_0x00F7
ENCODING 247
SWIDTH 935 0
DWIDTH 10 0
BBX 10 20 0 -5
BITMAP
0000
0000
0000
0000
0000
0000
0000
0000
6180
EDC0
EDC0
EDC0
EDC0
EDC0
F3C0
7380
0000
0000
0000
0000
ENDCHAR

STARTCHAR char_0x00F8
ENCODING 248
SWIDTH 935 0
DWIDTH 10 0
BBX 10 20 0 -5
BITMAP
0000
0000
0000
0000
0000
1F80
0E00
1C00
1C00
1C00
0F00
1800
3800
3800
3E00
1F00
0300
0300
0E00
0000
ENDCHAR

STARTCHAR char_0x00F9
ENCODING 249
SWIDTH 935 0
DWIDTH 10 0
BBX 10 20 0 -5
BITMAP
0000
0000
0000
0000
0000
0000
0000
0000
7380
71C0
71C0
71C0
71C0
71C0
3180
1F00
0000
0000
0000
0000
ENDCHAR

STARTCHAR char_0x00FA
ENCODING 250
SWIDTH 935 0
DWIDTH 10 0
BBX 10 20 0 -5
BITMAP
0000
0000
0000
0000
0000
1F80
0700
0E00
1C00
1C00
3800
3800
3800
3800
1C00
0F00
0180
0700
0000
0000
ENDCHAR

STARTCHAR char_0x00FB
ENCODING 251
SWIDTH 935 0
DWIDTH 10 0
BBX 10 20 0 -5
BITMAP
0000
0000
0000
0000
0000
0000
0800
1800
3000
7F80
7F80
7F80
3000
1800
0800
0000
0000
0000
0000
0000
ENDCHAR

STARTCHAR char_0x00FC
ENCODING 252
SWIDTH 935 0
DWIDTH 10 0
BBX 10 20 0 -5
BITMAP
0000
0000
0000
0000
0000
0000
0000
0E00
1F00
3F80
6EC0
0E00
0E00
0E00
0E00
0000
0000
0000
0000
0000
ENDCHAR

STARTCHAR char_0x00FD
ENCODING 253
SWIDTH 935 0
DWIDTH 10 0
BBX 10 20 0 -5
BITMAP
0000
0000
0000
0000
0000
0000
0400
0600
0300
7F80
7F80
7F80
0300
0600
0400
0000
0000
0000
0000
0000
ENDCHAR

STARTCHAR char_0x00FE
ENCODING 254
SWIDTH 935 0
DWIDTH 10 0
BBX 10 20 0 -5
BITMAP
0000
0000
0000
0000
0000
0000
0000
0000
0E00
0E00
0E00
0E00
6EC0
3F80
1F00
0E00
0000
0000
0000
0000
ENDCHAR

ENDFONT
