STARTFONT 2.1
FONT -DIGITAL-VWSVT0-Medium-R-Narrow--20-190-75-75-C-60-ISO8859-1
SIZE 19 75 75
FONTBOUNDINGBOX 6 20 0 -5

STARTPROPERTIES 25
FONTNAME_REGISTRY ""
FAMILY_NAME "VWSVT0"
FOUNDRY_NAME "DIGITAL"
WEIGHT_NAME "Medium"
SETWIDTH_NAME "Narrow"
SLANT "R"
ADD_STYLE_NAME ""
PIXEL_SIZE 20
POINT_SIZE 190
RESOLUTION_X 75
RESOLUTION_Y 75
SPACING "C"
AVERAGE_WIDTH 60
CHARSET_REGISTRY "ISO8859"
CHARSET_ENCODING "1"
CHARSET_COLLECTIONS "ASCII ISO8859-1"
FULL_NAME "VWSVT0"
COPYRIGHT "Copyright ©1990 by Digital Equipment Corporation"
CAP_HEIGHT 11
X_HEIGHT 8
WEIGHT 10
QUAD_WIDTH 6
DEFAULT_CHAR 0
FONT_DESCENT 5
FONT_ASCENT 15
ENDPROPERTIES

CHARS 193

STARTCHAR char_0x0020
ENCODING 32
SWIDTH 561 0
DWIDTH 6 0
BBX 6 20 0 -5
BITMAP
00
00
00
00
00
00
00
00
00
00
00
00
00
00
00
00
00
00
00
00
ENDCHAR

STARTCHAR char_0x0021
ENCODING 33
SWIDTH 561 0
DWIDTH 6 0
BBX 6 20 0 -5
BITMAP
00
00
00
00
10
10
10
10
10
10
10
10
00
10
10
00
00
00
00
00
ENDCHAR

STARTCHAR char_0x0022
ENCODING 34
SWIDTH 561 0
DWIDTH 6 0
BBX 6 20 0 -5
BITMAP
00
28
28
28
00
00
00
00
00
00
00
00
00
00
00
00
00
00
00
00
ENDCHAR

STARTCHAR char_0x0023
ENCODING 35
SWIDTH 561 0
DWIDTH 6 0
BBX 6 20 0 -5
BITMAP
00
00
00
00
28
28
28
7C
28
28
28
7C
28
28
28
00
00
00
00
00
ENDCHAR

STARTCHAR char_0x0024
ENCODING 36
SWIDTH 561 0
DWIDTH 6 0
BBX 6 20 0 -5
BITMAP
00
00
00
00
10
38
54
54
50
38
14
54
54
38
10
00
00
00
00
00
ENDCHAR

STARTCHAR char_0x0025
ENCODING 37
SWIDTH 561 0
DWIDTH 6 0
BBX 6 20 0 -5
BITMAP
00
00
00
00
24
5C
28
08
10
10
20
20
48
74
48
00
00
00
00
00
ENDCHAR

STARTCHAR char_0x0026
ENCODING 38
SWIDTH 561 0
DWIDTH 6 0
BBX 6 20 0 -5
BITMAP
00
00
00
00
20
50
50
50
20
54
48
48
48
48
34
00
00
00
00
00
ENDCHAR

STARTCHAR char_0x0027
ENCODING 39
SWIDTH 561 0
DWIDTH 6 0
BBX 6 20 0 -5
BITMAP
00
18
10
20
00
00
00
00
00
00
00
00
00
00
00
00
00
00
00
00
ENDCHAR

STARTCHAR char_0x0028
ENCODING 40
SWIDTH 561 0
DWIDTH 6 0
BBX 6 20 0 -5
BITMAP
00
00
00
08
10
10
20
20
20
20
20
20
20
10
10
08
00
00
00
00
ENDCHAR

STARTCHAR char_0x0029
ENCODING 41
SWIDTH 561 0
DWIDTH 6 0
BBX 6 20 0 -5
BITMAP
00
00
00
40
20
20
10
10
10
10
10
10
10
20
20
40
00
00
00
00
ENDCHAR

STARTCHAR char_0x002A
ENCODING 42
SWIDTH 561 0
DWIDTH 6 0
BBX 6 20 0 -5
BITMAP
00
00
00
00
00
00
00
48
30
78
30
48
00
00
00
00
00
00
00
00
ENDCHAR

STARTCHAR char_0x002B
ENCODING 43
SWIDTH 561 0
DWIDTH 6 0
BBX 6 20 0 -5
BITMAP
00
00
00
00
00
00
10
10
10
7C
10
10
10
00
00
00
00
00
00
00
ENDCHAR

STARTCHAR char_0x002C
ENCODING 44
SWIDTH 561 0
DWIDTH 6 0
BBX 6 20 0 -5
BITMAP
00
00
00
00
00
00
00
00
00
00
00
00
00
30
20
40
00
00
00
00
ENDCHAR

STARTCHAR char_0x002D
ENCODING 45
SWIDTH 561 0
DWIDTH 6 0
BBX 6 20 0 -5
BITMAP
00
00
00
00
00
00
00
00
00
7C
00
00
00
00
00
00
00
00
00
00
ENDCHAR

STARTCHAR char_0x002E
ENCODING 46
SWIDTH 561 0
DWIDTH 6 0
BBX 6 20 0 -5
BITMAP
00
00
00
00
00
00
00
00
00
00
00
00
00
20
20
00
00
00
00
00
ENDCHAR

STARTCHAR char_0x002F
ENCODING 47
SWIDTH 561 0
DWIDTH 6 0
BBX 6 20 0 -5
BITMAP
00
00
00
00
04
04
08
08
10
10
10
20
20
40
40
00
00
00
00
00
ENDCHAR

STARTCHAR char_0x0030
ENCODING 48
SWIDTH 561 0
DWIDTH 6 0
BBX 6 20 0 -5
BITMAP
00
00
00
00
10
28
44
44
44
44
44
44
44
28
10
00
00
00
00
00
ENDCHAR

STARTCHAR char_0x0031
ENCODING 49
SWIDTH 561 0
DWIDTH 6 0
BBX 6 20 0 -5
BITMAP
00
00
00
00
10
30
50
10
10
10
10
10
10
10
7C
00
00
00
00
00
ENDCHAR

STARTCHAR char_0x0032
ENCODING 50
SWIDTH 561 0
DWIDTH 6 0
BBX 6 20 0 -5
BITMAP
00
00
00
00
38
44
44
04
08
10
20
40
40
40
7C
00
00
00
00
00
ENDCHAR

STARTCHAR char_0x0033
ENCODING 51
SWIDTH 561 0
DWIDTH 6 0
BBX 6 20 0 -5
BITMAP
00
00
00
00
38
44
44
04
04
18
04
04
44
44
38
00
00
00
00
00
ENDCHAR

STARTCHAR char_0x0034
ENCODING 52
SWIDTH 561 0
DWIDTH 6 0
BBX 6 20 0 -5
BITMAP
00
00
00
00
08
08
18
18
28
28
48
7C
08
08
08
00
00
00
00
00
ENDCHAR

STARTCHAR char_0x0035
ENCODING 53
SWIDTH 561 0
DWIDTH 6 0
BBX 6 20 0 -5
BITMAP
00
00
00
00
7C
40
40
40
78
44
04
04
44
44
38
00
00
00
00
00
ENDCHAR

STARTCHAR char_0x0036
ENCODING 54
SWIDTH 561 0
DWIDTH 6 0
BBX 6 20 0 -5
BITMAP
00
00
00
00
38
44
44
40
78
44
44
44
44
44
38
00
00
00
00
00
ENDCHAR

STARTCHAR char_0x0037
ENCODING 55
SWIDTH 561 0
DWIDTH 6 0
BBX 6 20 0 -5
BITMAP
00
00
00
00
7C
44
04
08
08
08
10
10
10
10
10
00
00
00
00
00
ENDCHAR

STARTCHAR char_0x0038
ENCODING 56
SWIDTH 561 0
DWIDTH 6 0
BBX 6 20 0 -5
BITMAP
00
00
00
00
38
44
44
44
44
38
44
44
44
44
38
00
00
00
00
00
ENDCHAR

STARTCHAR char_0x0039
ENCODING 57
SWIDTH 561 0
DWIDTH 6 0
BBX 6 20 0 -5
BITMAP
00
00
00
00
38
44
44
44
44
44
3C
04
44
44
38
00
00
00
00
00
ENDCHAR

STARTCHAR char_0x003A
ENCODING 58
SWIDTH 561 0
DWIDTH 6 0
BBX 6 20 0 -5
BITMAP
00
00
00
00
00
00
00
20
20
00
00
00
00
20
20
00
00
00
00
00
ENDCHAR

STARTCHAR char_0x003B
ENCODING 59
SWIDTH 561 0
DWIDTH 6 0
BBX 6 20 0 -5
BITMAP
00
00
00
00
00
00
00
20
20
00
00
00
00
20
20
40
00
00
00
00
ENDCHAR

STARTCHAR char_0x003C
ENCODING 60
SWIDTH 561 0
DWIDTH 6 0
BBX 6 20 0 -5
BITMAP
00
00
00
00
00
04
08
10
20
40
20
10
08
04
00
00
00
00
00
00
ENDCHAR

STARTCHAR char_0x003D
ENCODING 61
SWIDTH 561 0
DWIDTH 6 0
BBX 6 20 0 -5
BITMAP
00
00
00
00
00
00
00
00
7C
00
7C
00
00
00
00
00
00
00
00
00
ENDCHAR

STARTCHAR char_0x003E
ENCODING 62
SWIDTH 561 0
DWIDTH 6 0
BBX 6 20 0 -5
BITMAP
00
00
00
00
00
40
20
10
08
04
08
10
20
40
00
00
00
00
00
00
ENDCHAR

STARTCHAR char_0x003F
ENCODING 63
SWIDTH 561 0
DWIDTH 6 0
BBX 6 20 0 -5
BITMAP
00
00
00
00
38
44
44
04
08
10
10
10
00
10
10
00
00
00
00
00
ENDCHAR

STARTCHAR char_0x0040
ENCODING 64
SWIDTH 561 0
DWIDTH 6 0
BBX 6 20 0 -5
BITMAP
00
00
00
00
38
44
44
4C
54
54
54
54
4C
40
38
00
00
00
00
00
ENDCHAR

STARTCHAR char_0x0041
ENCODING 65
SWIDTH 561 0
DWIDTH 6 0
BBX 6 20 0 -5
BITMAP
00
00
00
00
10
10
28
28
44
44
7C
44
44
44
44
00
00
00
00
00
ENDCHAR

STARTCHAR char_0x0042
ENCODING 66
SWIDTH 561 0
DWIDTH 6 0
BBX 6 20 0 -5
BITMAP
00
00
00
00
78
44
44
44
44
78
44
44
44
44
78
00
00
00
00
00
ENDCHAR

STARTCHAR char_0x0043
ENCODING 67
SWIDTH 561 0
DWIDTH 6 0
BBX 6 20 0 -5
BITMAP
00
00
00
00
38
44
44
40
40
40
40
40
44
44
38
00
00
00
00
00
ENDCHAR

STARTCHAR char_0x0044
ENCODING 68
SWIDTH 561 0
DWIDTH 6 0
BBX 6 20 0 -5
BITMAP
00
00
00
00
78
44
44
44
44
44
44
44
44
44
78
00
00
00
00
00
ENDCHAR

STARTCHAR char_0x0045
ENCODING 69
SWIDTH 561 0
DWIDTH 6 0
BBX 6 20 0 -5
BITMAP
00
00
00
00
7C
40
40
40
40
70
40
40
40
40
7C
00
00
00
00
00
ENDCHAR

STARTCHAR char_0x0046
ENCODING 70
SWIDTH 561 0
DWIDTH 6 0
BBX 6 20 0 -5
BITMAP
00
00
00
00
7C
40
40
40
40
70
40
40
40
40
40
00
00
00
00
00
ENDCHAR

STARTCHAR char_0x0047
ENCODING 71
SWIDTH 561 0
DWIDTH 6 0
BBX 6 20 0 -5
BITMAP
00
00
00
00
38
44
44
40
40
4C
44
44
44
44
3C
00
00
00
00
00
ENDCHAR

STARTCHAR char_0x0048
ENCODING 72
SWIDTH 561 0
DWIDTH 6 0
BBX 6 20 0 -5
BITMAP
00
00
00
00
44
44
44
44
44
7C
44
44
44
44
44
00
00
00
00
00
ENDCHAR

STARTCHAR char_0x0049
ENCODING 73
SWIDTH 561 0
DWIDTH 6 0
BBX 6 20 0 -5
BITMAP
00
00
00
00
7C
10
10
10
10
10
10
10
10
10
7C
00
00
00
00
00
ENDCHAR

STARTCHAR char_0x004A
ENCODING 74
SWIDTH 561 0
DWIDTH 6 0
BBX 6 20 0 -5
BITMAP
00
00
00
00
1C
08
08
08
08
08
08
08
48
48
30
00
00
00
00
00
ENDCHAR

STARTCHAR char_0x004B
ENCODING 75
SWIDTH 561 0
DWIDTH 6 0
BBX 6 20 0 -5
BITMAP
00
00
00
00
44
44
48
48
50
60
50
48
48
44
44
00
00
00
00
00
ENDCHAR

STARTCHAR char_0x004C
ENCODING 76
SWIDTH 561 0
DWIDTH 6 0
BBX 6 20 0 -5
BITMAP
00
00
00
00
40
40
40
40
40
40
40
40
40
40
7C
00
00
00
00
00
ENDCHAR

STARTCHAR char_0x004D
ENCODING 77
SWIDTH 561 0
DWIDTH 6 0
BBX 6 20 0 -5
BITMAP
00
00
00
00
44
44
6C
7C
54
54
54
44
44
44
44
00
00
00
00
00
ENDCHAR

STARTCHAR char_0x004E
ENCODING 78
SWIDTH 561 0
DWIDTH 6 0
BBX 6 20 0 -5
BITMAP
00
00
00
00
44
44
64
64
54
54
54
4C
4C
44
44
00
00
00
00
00
ENDCHAR

STARTCHAR char_0x004F
ENCODING 79
SWIDTH 561 0
DWIDTH 6 0
BBX 6 20 0 -5
BITMAP
00
00
00
00
38
44
44
44
44
44
44
44
44
44
38
00
00
00
00
00
ENDCHAR

STARTCHAR char_0x0050
ENCODING 80
SWIDTH 561 0
DWIDTH 6 0
BBX 6 20 0 -5
BITMAP
00
00
00
00
78
44
44
44
44
44
78
40
40
40
40
00
00
00
00
00
ENDCHAR

STARTCHAR char_0x0051
ENCODING 81
SWIDTH 561 0
DWIDTH 6 0
BBX 6 20 0 -5
BITMAP
00
00
00
00
38
44
44
44
44
44
44
44
44
54
38
04
00
00
00
00
ENDCHAR

STARTCHAR char_0x0052
ENCODING 82
SWIDTH 561 0
DWIDTH 6 0
BBX 6 20 0 -5
BITMAP
00
00
00
00
78
44
44
44
44
44
78
48
44
44
44
00
00
00
00
00
ENDCHAR

STARTCHAR char_0x0053
ENCODING 83
SWIDTH 561 0
DWIDTH 6 0
BBX 6 20 0 -5
BITMAP
00
00
00
00
38
44
44
40
40
38
04
04
44
44
38
00
00
00
00
00
ENDCHAR

STARTCHAR char_0x0054
ENCODING 84
SWIDTH 561 0
DWIDTH 6 0
BBX 6 20 0 -5
BITMAP
00
00
00
00
7C
10
10
10
10
10
10
10
10
10
10
00
00
00
00
00
ENDCHAR

STARTCHAR char_0x0055
ENCODING 85
SWIDTH 561 0
DWIDTH 6 0
BBX 6 20 0 -5
BITMAP
00
00
00
00
44
44
44
44
44
44
44
44
44
44
38
00
00
00
00
00
ENDCHAR

STARTCHAR char_0x0056
ENCODING 86
SWIDTH 561 0
DWIDTH 6 0
BBX 6 20 0 -5
BITMAP
00
00
00
00
44
44
44
44
44
44
44
28
28
10
10
00
00
00
00
00
ENDCHAR

STARTCHAR char_0x0057
ENCODING 87
SWIDTH 561 0
DWIDTH 6 0
BBX 6 20 0 -5
BITMAP
00
00
00
00
44
44
44
44
44
54
54
54
54
38
28
00
00
00
00
00
ENDCHAR

STARTCHAR char_0x0058
ENCODING 88
SWIDTH 561 0
DWIDTH 6 0
BBX 6 20 0 -5
BITMAP
00
00
00
00
44
44
44
28
28
10
28
28
44
44
44
00
00
00
00
00
ENDCHAR

STARTCHAR char_0x0059
ENCODING 89
SWIDTH 561 0
DWIDTH 6 0
BBX 6 20 0 -5
BITMAP
00
00
00
00
44
44
44
44
28
28
10
10
10
10
10
00
00
00
00
00
ENDCHAR

STARTCHAR char_0x005A
ENCODING 90
SWIDTH 561 0
DWIDTH 6 0
BBX 6 20 0 -5
BITMAP
00
00
00
00
7C
04
08
08
10
10
20
20
40
40
7C
00
00
00
00
00
ENDCHAR

STARTCHAR char_0x005B
ENCODING 91
SWIDTH 561 0
DWIDTH 6 0
BBX 6 20 0 -5
BITMAP
00
00
00
38
20
20
20
20
20
20
20
20
20
20
20
38
00
00
00
00
ENDCHAR

STARTCHAR char_0x005C
ENCODING 92
SWIDTH 561 0
DWIDTH 6 0
BBX 6 20 0 -5
BITMAP
00
00
00
00
40
40
20
20
10
10
10
08
08
04
04
00
00
00
00
00
ENDCHAR

STARTCHAR char_0x005D
ENCODING 93
SWIDTH 561 0
DWIDTH 6 0
BBX 6 20 0 -5
BITMAP
00
00
00
70
10
10
10
10
10
10
10
10
10
10
10
70
00
00
00
00
ENDCHAR

STARTCHAR char_0x005E
ENCODING 94
SWIDTH 561 0
DWIDTH 6 0
BBX 6 20 0 -5
BITMAP
00
10
28
44
00
00
00
00
00
00
00
00
00
00
00
00
00
00
00
00
ENDCHAR

STARTCHAR char_0x005F
ENCODING 95
SWIDTH 561 0
DWIDTH 6 0
BBX 6 20 0 -5
BITMAP
00
00
00
00
00
00
00
00
00
00
00
00
00
00
7C
00
00
00
00
00
ENDCHAR

STARTCHAR char_0x0060
ENCODING 96
SWIDTH 561 0
DWIDTH 6 0
BBX 6 20 0 -5
BITMAP
00
30
10
08
00
00
00
00
00
00
00
00
00
00
00
00
00
00
00
00
ENDCHAR

STARTCHAR char_0x0061
ENCODING 97
SWIDTH 561 0
DWIDTH 6 0
BBX 6 20 0 -5
BITMAP
00
00
00
00
00
00
00
38
44
04
3C
44
44
4C
34
00
00
00
00
00
ENDCHAR

STARTCHAR char_0x0062
ENCODING 98
SWIDTH 561 0
DWIDTH 6 0
BBX 6 20 0 -5
BITMAP
00
00
00
00
40
40
40
58
64
44
44
44
44
44
78
00
00
00
00
00
ENDCHAR

STARTCHAR char_0x0063
ENCODING 99
SWIDTH 561 0
DWIDTH 6 0
BBX 6 20 0 -5
BITMAP
00
00
00
00
00
00
00
38
44
44
40
40
44
44
38
00
00
00
00
00
ENDCHAR

STARTCHAR char_0x0064
ENCODING 100
SWIDTH 561 0
DWIDTH 6 0
BBX 6 20 0 -5
BITMAP
00
00
00
00
04
04
04
34
4C
44
44
44
44
44
3C
00
00
00
00
00
ENDCHAR

STARTCHAR char_0x0065
ENCODING 101
SWIDTH 561 0
DWIDTH 6 0
BBX 6 20 0 -5
BITMAP
00
00
00
00
00
00
00
38
44
44
7C
40
44
44
38
00
00
00
00
00
ENDCHAR

STARTCHAR char_0x0066
ENCODING 102
SWIDTH 561 0
DWIDTH 6 0
BBX 6 20 0 -5
BITMAP
00
00
00
00
18
24
24
20
78
20
20
20
20
20
20
00
00
00
00
00
ENDCHAR

STARTCHAR char_0x0067
ENCODING 103
SWIDTH 561 0
DWIDTH 6 0
BBX 6 20 0 -5
BITMAP
00
00
00
00
00
00
00
34
4C
44
44
44
44
44
3C
04
04
44
38
00
ENDCHAR

STARTCHAR char_0x0068
ENCODING 104
SWIDTH 561 0
DWIDTH 6 0
BBX 6 20 0 -5
BITMAP
00
00
00
00
40
40
40
58
64
44
44
44
44
44
44
00
00
00
00
00
ENDCHAR

STARTCHAR char_0x0069
ENCODING 105
SWIDTH 561 0
DWIDTH 6 0
BBX 6 20 0 -5
BITMAP
00
00
00
00
10
10
00
30
10
10
10
10
10
10
7C
00
00
00
00
00
ENDCHAR

STARTCHAR char_0x006A
ENCODING 106
SWIDTH 561 0
DWIDTH 6 0
BBX 6 20 0 -5
BITMAP
00
00
00
00
08
08
00
38
08
08
08
08
08
08
08
08
48
48
30
00
ENDCHAR

STARTCHAR char_0x006B
ENCODING 107
SWIDTH 561 0
DWIDTH 6 0
BBX 6 20 0 -5
BITMAP
00
00
00
00
40
40
40
44
48
50
60
60
50
48
44
00
00
00
00
00
ENDCHAR

STARTCHAR char_0x006C
ENCODING 108
SWIDTH 561 0
DWIDTH 6 0
BBX 6 20 0 -5
BITMAP
00
00
00
00
30
10
10
10
10
10
10
10
10
10
7C
00
00
00
00
00
ENDCHAR

STARTCHAR char_0x006D
ENCODING 109
SWIDTH 561 0
DWIDTH 6 0
BBX 6 20 0 -5
BITMAP
00
00
00
00
00
00
00
6C
54
54
54
54
54
44
44
00
00
00
00
00
ENDCHAR

STARTCHAR char_0x006E
ENCODING 110
SWIDTH 561 0
DWIDTH 6 0
BBX 6 20 0 -5
BITMAP
00
00
00
00
00
00
00
58
64
44
44
44
44
44
44
00
00
00
00
00
ENDCHAR

STARTCHAR char_0x006F
ENCODING 111
SWIDTH 561 0
DWIDTH 6 0
BBX 6 20 0 -5
BITMAP
00
00
00
00
00
00
00
38
44
44
44
44
44
44
38
00
00
00
00
00
ENDCHAR

STARTCHAR char_0x0070
ENCODING 112
SWIDTH 561 0
DWIDTH 6 0
BBX 6 20 0 -5
BITMAP
00
00
00
00
00
00
00
58
64
44
44
44
44
44
78
40
40
40
40
00
ENDCHAR

STARTCHAR char_0x0071
ENCODING 113
SWIDTH 561 0
DWIDTH 6 0
BBX 6 20 0 -5
BITMAP
00
00
00
00
00
00
00
3C
44
44
44
44
44
4C
34
04
04
04
04
00
ENDCHAR

STARTCHAR char_0x0072
ENCODING 114
SWIDTH 561 0
DWIDTH 6 0
BBX 6 20 0 -5
BITMAP
00
00
00
00
00
00
00
58
64
44
40
40
40
40
40
00
00
00
00
00
ENDCHAR

STARTCHAR char_0x0073
ENCODING 115
SWIDTH 561 0
DWIDTH 6 0
BBX 6 20 0 -5
BITMAP
00
00
00
00
00
00
00
38
44
40
38
04
44
44
38
00
00
00
00
00
ENDCHAR

STARTCHAR char_0x0074
ENCODING 116
SWIDTH 561 0
DWIDTH 6 0
BBX 6 20 0 -5
BITMAP
00
00
00
00
20
20
20
78
20
20
20
20
24
24
18
00
00
00
00
00
ENDCHAR

STARTCHAR char_0x0075
ENCODING 117
SWIDTH 561 0
DWIDTH 6 0
BBX 6 20 0 -5
BITMAP
00
00
00
00
00
00
00
44
44
44
44
44
44
44
38
00
00
00
00
00
ENDCHAR

STARTCHAR char_0x0076
ENCODING 118
SWIDTH 561 0
DWIDTH 6 0
BBX 6 20 0 -5
BITMAP
00
00
00
00
00
00
00
44
44
44
44
44
44
28
10
00
00
00
00
00
ENDCHAR

STARTCHAR char_0x0077
ENCODING 119
SWIDTH 561 0
DWIDTH 6 0
BBX 6 20 0 -5
BITMAP
00
00
00
00
00
00
00
44
44
44
54
54
54
54
28
00
00
00
00
00
ENDCHAR

STARTCHAR char_0x0078
ENCODING 120
SWIDTH 561 0
DWIDTH 6 0
BBX 6 20 0 -5
BITMAP
00
00
00
00
00
00
00
44
44
28
10
10
28
44
44
00
00
00
00
00
ENDCHAR

STARTCHAR char_0x0079
ENCODING 121
SWIDTH 561 0
DWIDTH 6 0
BBX 6 20 0 -5
BITMAP
00
00
00
00
00
00
00
44
44
44
44
44
44
44
3C
04
04
44
38
00
ENDCHAR

STARTCHAR char_0x007A
ENCODING 122
SWIDTH 561 0
DWIDTH 6 0
BBX 6 20 0 -5
BITMAP
00
00
00
00
00
00
00
7C
04
08
10
20
40
40
7C
00
00
00
00
00
ENDCHAR

STARTCHAR char_0x007B
ENCODING 123
SWIDTH 561 0
DWIDTH 6 0
BBX 6 20 0 -5
BITMAP
00
00
00
18
20
20
20
20
10
60
10
20
20
20
20
18
00
00
00
00
ENDCHAR

STARTCHAR char_0x007C
ENCODING 124
SWIDTH 561 0
DWIDTH 6 0
BBX 6 20 0 -5
BITMAP
00
00
00
10
10
10
10
10
10
10
10
10
10
10
10
10
00
00
00
00
ENDCHAR

STARTCHAR char_0x007D
ENCODING 125
SWIDTH 561 0
DWIDTH 6 0
BBX 6 20 0 -5
BITMAP
00
00
00
60
10
10
10
10
20
18
20
10
10
10
10
60
00
00
00
00
ENDCHAR

STARTCHAR char_0x007E
ENCODING 126
SWIDTH 561 0
DWIDTH 6 0
BBX 6 20 0 -5
BITMAP
00
24
54
48
00
00
00
00
00
00
00
00
00
00
00
00
00
00
00
00
ENDCHAR

STARTCHAR char_0x0080
ENCODING 128
SWIDTH 561 0
DWIDTH 6 0
BBX 6 20 0 -5
BITMAP
00
00
00
00
3C
50
50
50
50
58
50
50
50
50
3C
00
00
00
00
00
ENDCHAR

STARTCHAR char_0x0081
ENCODING 129
SWIDTH 561 0
DWIDTH 6 0
BBX 6 20 0 -5
BITMAP
00
00
00
00
00
00
00
38
54
54
54
5C
50
50
2C
00
00
00
00
00
ENDCHAR

STARTCHAR char_0x0082
ENCODING 130
SWIDTH 561 0
DWIDTH 6 0
BBX 6 20 0 -5
BITMAP
00
28
28
00
44
44
44
44
44
28
28
10
10
10
10
00
00
00
00
00
ENDCHAR

STARTCHAR char_0x00A1
ENCODING 161
SWIDTH 561 0
DWIDTH 6 0
BBX 6 20 0 -5
BITMAP
00
00
00
00
10
10
00
10
10
10
10
10
10
10
10
10
00
00
00
00
ENDCHAR

STARTCHAR char_0x00A2
ENCODING 162
SWIDTH 561 0
DWIDTH 6 0
BBX 6 20 0 -5
BITMAP
00
00
00
00
10
10
38
54
54
50
54
54
38
10
10
00
00
00
00
00
ENDCHAR

STARTCHAR char_0x00A3
ENCODING 163
SWIDTH 561 0
DWIDTH 6 0
BBX 6 20 0 -5
BITMAP
00
00
00
00
18
24
24
20
20
20
78
20
20
24
5C
00
00
00
00
00
ENDCHAR

STARTCHAR char_0x00A4
ENCODING 164
SWIDTH 561 0
DWIDTH 6 0
BBX 6 20 0 -5
BITMAP
00
00
00
00
00
00
44
38
28
28
28
38
44
00
00
00
00
00
00
00
ENDCHAR

STARTCHAR char_0x00A5
ENCODING 165
SWIDTH 561 0
DWIDTH 6 0
BBX 6 20 0 -5
BITMAP
00
00
00
00
44
44
44
28
28
10
38
10
38
10
10
00
00
00
00
00
ENDCHAR

STARTCHAR char_0x00A6
ENCODING 166
SWIDTH 561 0
DWIDTH 6 0
BBX 6 20 0 -5
BITMAP
00
00
00
10
10
10
10
10
10
00
10
10
10
10
10
10
00
00
00
00
ENDCHAR

STARTCHAR char_0x00A7
ENCODING 167
SWIDTH 561 0
DWIDTH 6 0
BBX 6 20 0 -5
BITMAP
00
00
00
30
48
48
20
50
48
48
28
10
48
48
30
00
00
00
00
00
ENDCHAR

STARTCHAR char_0x00A8
ENCODING 168
SWIDTH 561 0
DWIDTH 6 0
BBX 6 20 0 -5
BITMAP
00
48
48
00
00
00
00
00
00
00
00
00
00
00
00
00
00
00
00
00
ENDCHAR

STARTCHAR char_0x00A9
ENCODING 169
SWIDTH 561 0
DWIDTH 6 0
BBX 6 20 0 -5
BITMAP
00
00
00
00
78
84
B4
A4
A4
A4
A4
B4
84
78
00
00
00
00
00
00
ENDCHAR

STARTCHAR char_0x00AA
ENCODING 170
SWIDTH 561 0
DWIDTH 6 0
BBX 6 20 0 -5
BITMAP
00
00
30
48
38
48
34
00
7C
00
00
00
00
00
00
00
00
00
00
00
ENDCHAR

STARTCHAR char_0x00AB
ENCODING 171
SWIDTH 561 0
DWIDTH 6 0
BBX 6 20 0 -5
BITMAP
00
00
00
00
00
00
00
14
28
50
28
14
00
00
00
00
00
00
00
00
ENDCHAR

STARTCHAR char_0x00AC
ENCODING 172
SWIDTH 561 0
DWIDTH 6 0
BBX 6 20 0 -5
BITMAP
00
00
7C
04
04
00
00
00
00
00
00
00
00
00
00
00
00
00
00
00
ENDCHAR

STARTCHAR char_0x00AD
ENCODING 173
SWIDTH 561 0
DWIDTH 6 0
BBX 6 20 0 -5
BITMAP
00
00
00
00
00
00
00
00
00
38
00
00
00
00
00
00
00
00
00
00
ENDCHAR

STARTCHAR char_0x00AE
ENCODING 174
SWIDTH 561 0
DWIDTH 6 0
BBX 6 20 0 -5
BITMAP
00
00
00
00
78
84
B4
AC
AC
B4
AC
AC
84
78
00
00
00
00
00
00
ENDCHAR

STARTCHAR char_0x00AF
ENCODING 175
SWIDTH 561 0
DWIDTH 6 0
BBX 6 20 0 -5
BITMAP
00
00
78
00
00
00
00
00
00
00
00
00
00
00
00
00
00
00
00
00
ENDCHAR

STARTCHAR char_0x00B0
ENCODING 176
SWIDTH 561 0
DWIDTH 6 0
BBX 6 20 0 -5
BITMAP
00
00
20
50
20
00
00
00
00
00
00
00
00
00
00
00
00
00
00
00
ENDCHAR

STARTCHAR char_0x00B1
ENCODING 177
SWIDTH 561 0
DWIDTH 6 0
BBX 6 20 0 -5
BITMAP
00
00
00
00
00
00
00
10
10
7C
10
10
00
7C
00
00
00
00
00
00
ENDCHAR

STARTCHAR char_0x00B2
ENCODING 178
SWIDTH 561 0
DWIDTH 6 0
BBX 6 20 0 -5
BITMAP
00
00
30
08
10
20
38
00
00
00
00
00
00
00
00
00
00
00
00
00
ENDCHAR

STARTCHAR char_0x00B3
ENCODING 179
SWIDTH 561 0
DWIDTH 6 0
BBX 6 20 0 -5
BITMAP
00
00
30
08
10
08
30
00
00
00
00
00
00
00
00
00
00
00
00
00
ENDCHAR

STARTCHAR char_0x00B4
ENCODING 180
SWIDTH 561 0
DWIDTH 6 0
BBX 6 20 0 -5
BITMAP
00
10
20
00
00
00
00
00
00
00
00
00
00
00
00
00
00
00
00
00
ENDCHAR

STARTCHAR char_0x00B5
ENCODING 181
SWIDTH 561 0
DWIDTH 6 0
BBX 6 20 0 -5
BITMAP
00
00
00
00
00
00
00
24
24
24
24
24
24
24
5C
00
00
00
00
00
ENDCHAR

STARTCHAR char_0x00B6
ENCODING 182
SWIDTH 561 0
DWIDTH 6 0
BBX 6 20 0 -5
BITMAP
00
00
00
1C
34
74
74
74
74
34
14
14
14
14
14
00
00
00
00
00
ENDCHAR

STARTCHAR char_0x00B7
ENCODING 183
SWIDTH 561 0
DWIDTH 6 0
BBX 6 20 0 -5
BITMAP
00
00
00
00
00
00
00
10
10
00
00
00
00
00
00
00
00
00
00
00
ENDCHAR

STARTCHAR char_0x00B8
ENCODING 184
SWIDTH 561 0
DWIDTH 6 0
BBX 6 20 0 -5
BITMAP
00
00
00
00
00
00
00
00
00
00
00
00
08
08
10
20
00
00
00
00
ENDCHAR

STARTCHAR char_0x00B9
ENCODING 185
SWIDTH 561 0
DWIDTH 6 0
BBX 6 20 0 -5
BITMAP
00
00
10
30
10
10
38
00
00
00
00
00
00
00
00
00
00
00
00
00
ENDCHAR

STARTCHAR char_0x00BA
ENCODING 186
SWIDTH 561 0
DWIDTH 6 0
BBX 6 20 0 -5
BITMAP
00
00
30
48
48
48
30
00
78
00
00
00
00
00
00
00
00
00
00
00
ENDCHAR

STARTCHAR char_0x00BB
ENCODING 187
SWIDTH 561 0
DWIDTH 6 0
BBX 6 20 0 -5
BITMAP
00
00
00
00
00
00
00
50
28
14
28
50
00
00
00
00
00
00
00
00
ENDCHAR

STARTCHAR char_0x00BC
ENCODING 188
SWIDTH 561 0
DWIDTH 6 0
BBX 6 20 0 -5
BITMAP
00
00
00
00
00
20
60
20
28
10
28
58
28
3C
08
00
00
00
00
00
ENDCHAR

STARTCHAR char_0x00BD
ENCODING 189
SWIDTH 561 0
DWIDTH 6 0
BBX 6 20 0 -5
BITMAP
00
00
00
00
00
20
60
20
28
10
28
54
08
10
1C
00
00
00
00
00
ENDCHAR

STARTCHAR char_0x00BE
ENCODING 190
SWIDTH 561 0
DWIDTH 6 0
BBX 6 20 0 -5
BITMAP
00
00
00
00
60
10
20
10
68
10
28
58
28
3C
08
00
00
00
00
00
ENDCHAR

STARTCHAR char_0x00BF
ENCODING 191
SWIDTH 561 0
DWIDTH 6 0
BBX 6 20 0 -5
BITMAP
00
00
00
00
10
10
00
10
10
10
20
40
44
44
38
00
00
00
00
00
ENDCHAR

STARTCHAR char_0x00C0
ENCODING 192
SWIDTH 561 0
DWIDTH 6 0
BBX 6 20 0 -5
BITMAP
00
20
10
00
10
10
28
28
44
44
7C
44
44
44
44
00
00
00
00
00
ENDCHAR

STARTCHAR char_0x00C1
ENCODING 193
SWIDTH 561 0
DWIDTH 6 0
BBX 6 20 0 -5
BITMAP
00
08
10
00
10
10
28
28
44
44
7C
44
44
44
44
00
00
00
00
00
ENDCHAR

STARTCHAR char_0x00C2
ENCODING 194
SWIDTH 561 0
DWIDTH 6 0
BBX 6 20 0 -5
BITMAP
00
10
28
00
10
10
28
28
44
44
7C
44
44
44
44
00
00
00
00
00
ENDCHAR

STARTCHAR char_0x00C3
ENCODING 195
SWIDTH 561 0
DWIDTH 6 0
BBX 6 20 0 -5
BITMAP
00
34
58
00
10
10
28
28
44
44
7C
44
44
44
44
00
00
00
00
00
ENDCHAR

STARTCHAR char_0x00C4
ENCODING 196
SWIDTH 561 0
DWIDTH 6 0
BBX 6 20 0 -5
BITMAP
00
28
28
00
10
10
28
28
44
44
7C
44
44
44
44
00
00
00
00
00
ENDCHAR

STARTCHAR char_0x00C5
ENCODING 197
SWIDTH 561 0
DWIDTH 6 0
BBX 6 20 0 -5
BITMAP
00
10
10
00
10
10
28
28
44
44
7C
44
44
44
44
00
00
00
00
00
ENDCHAR

STARTCHAR char_0x00C6
ENCODING 198
SWIDTH 561 0
DWIDTH 6 0
BBX 6 20 0 -5
BITMAP
00
00
00
00
1C
30
50
50
50
78
50
50
50
50
5C
00
00
00
00
00
ENDCHAR

STARTCHAR char_0x00C7
ENCODING 199
SWIDTH 561 0
DWIDTH 6 0
BBX 6 20 0 -5
BITMAP
00
00
00
00
38
44
44
40
40
40
40
40
44
44
38
10
20
00
00
00
ENDCHAR

STARTCHAR char_0x00C8
ENCODING 200
SWIDTH 561 0
DWIDTH 6 0
BBX 6 20 0 -5
BITMAP
00
10
08
00
3C
20
20
20
20
38
20
20
20
20
3C
00
00
00
00
00
ENDCHAR

STARTCHAR char_0x00C9
ENCODING 201
SWIDTH 561 0
DWIDTH 6 0
BBX 6 20 0 -5
BITMAP
00
08
10
00
3C
20
20
20
20
38
20
20
20
20
3C
00
00
00
00
00
ENDCHAR

STARTCHAR char_0x00CA
ENCODING 202
SWIDTH 561 0
DWIDTH 6 0
BBX 6 20 0 -5
BITMAP
00
10
28
00
3C
20
20
20
20
38
20
20
20
20
3C
00
00
00
00
00
ENDCHAR

STARTCHAR char_0x00CB
ENCODING 203
SWIDTH 561 0
DWIDTH 6 0
BBX 6 20 0 -5
BITMAP
00
28
28
00
3C
20
20
20
20
38
20
20
20
20
3C
00
00
00
00
00
ENDCHAR

STARTCHAR char_0x00CC
ENCODING 204
SWIDTH 561 0
DWIDTH 6 0
BBX 6 20 0 -5
BITMAP
00
20
10
00
7C
10
10
10
10
10
10
10
10
10
7C
00
00
00
00
00
ENDCHAR

STARTCHAR char_0x00CD
ENCODING 205
SWIDTH 561 0
DWIDTH 6 0
BBX 6 20 0 -5
BITMAP
00
08
10
00
7C
10
10
10
10
10
10
10
10
10
7C
00
00
00
00
00
ENDCHAR

STARTCHAR char_0x00CE
ENCODING 206
SWIDTH 561 0
DWIDTH 6 0
BBX 6 20 0 -5
BITMAP
00
10
28
00
7C
10
10
10
10
10
10
10
10
10
7C
00
00
00
00
00
ENDCHAR

STARTCHAR char_0x00CF
ENCODING 207
SWIDTH 561 0
DWIDTH 6 0
BBX 6 20 0 -5
BITMAP
00
28
28
00
7C
10
10
10
10
10
10
10
10
10
7C
00
00
00
00
00
ENDCHAR

STARTCHAR char_0x00D0
ENCODING 208
SWIDTH 561 0
DWIDTH 6 0
BBX 6 20 0 -5
BITMAP
00
00
00
00
30
28
24
24
24
74
24
24
24
28
30
00
00
00
00
00
ENDCHAR

STARTCHAR char_0x00D1
ENCODING 209
SWIDTH 561 0
DWIDTH 6 0
BBX 6 20 0 -5
BITMAP
00
34
58
00
44
44
64
64
54
54
54
4C
4C
44
44
00
00
00
00
00
ENDCHAR

STARTCHAR char_0x00D2
ENCODING 210
SWIDTH 561 0
DWIDTH 6 0
BBX 6 20 0 -5
BITMAP
00
20
10
00
38
44
44
44
44
44
44
44
44
44
38
00
00
00
00
00
ENDCHAR

STARTCHAR char_0x00D3
ENCODING 211
SWIDTH 561 0
DWIDTH 6 0
BBX 6 20 0 -5
BITMAP
00
08
10
00
38
44
44
44
44
44
44
44
44
44
38
00
00
00
00
00
ENDCHAR

STARTCHAR char_0x00D4
ENCODING 212
SWIDTH 561 0
DWIDTH 6 0
BBX 6 20 0 -5
BITMAP
00
10
28
00
38
44
44
44
44
44
44
44
44
44
38
00
00
00
00
00
ENDCHAR

STARTCHAR char_0x00D5
ENCODING 213
SWIDTH 561 0
DWIDTH 6 0
BBX 6 20 0 -5
BITMAP
00
34
58
00
38
44
44
44
44
44
44
44
44
44
38
00
00
00
00
00
ENDCHAR

STARTCHAR char_0x00D6
ENCODING 214
SWIDTH 561 0
DWIDTH 6 0
BBX 6 20 0 -5
BITMAP
00
28
28
00
38
44
44
44
44
44
44
44
44
44
38
00
00
00
00
00
ENDCHAR

STARTCHAR char_0x00D7
ENCODING 215
SWIDTH 561 0
DWIDTH 6 0
BBX 6 20 0 -5
BITMAP
00
00
00
00
00
00
00
44
28
10
28
44
00
00
00
00
00
00
00
00
ENDCHAR

STARTCHAR char_0x00D8
ENCODING 216
SWIDTH 561 0
DWIDTH 6 0
BBX 6 20 0 -5
BITMAP
00
00
00
00
14
28
4C
54
54
54
54
54
64
28
50
00
00
00
00
00
ENDCHAR

STARTCHAR char_0x00D9
ENCODING 217
SWIDTH 561 0
DWIDTH 6 0
BBX 6 20 0 -5
BITMAP
00
20
10
00
44
44
44
44
44
44
44
44
44
44
38
00
00
00
00
00
ENDCHAR

STARTCHAR char_0x00DA
ENCODING 218
SWIDTH 561 0
DWIDTH 6 0
BBX 6 20 0 -5
BITMAP
00
08
10
00
44
44
44
44
44
44
44
44
44
44
38
00
00
00
00
00
ENDCHAR

STARTCHAR char_0x00DB
ENCODING 219
SWIDTH 561 0
DWIDTH 6 0
BBX 6 20 0 -5
BITMAP
00
10
28
00
44
44
44
44
44
44
44
44
44
44
38
00
00
00
00
00
ENDCHAR

STARTCHAR char_0x00DC
ENCODING 220
SWIDTH 561 0
DWIDTH 6 0
BBX 6 20 0 -5
BITMAP
00
28
28
00
44
44
44
44
44
44
44
44
44
44
38
00
00
00
00
00
ENDCHAR

STARTCHAR char_0x00DD
ENCODING 221
SWIDTH 561 0
DWIDTH 6 0
BBX 6 20 0 -5
BITMAP
00
08
10
00
44
44
44
44
28
28
10
10
10
10
10
00
00
00
00
00
ENDCHAR

STARTCHAR char_0x00DE
ENCODING 222
SWIDTH 561 0
DWIDTH 6 0
BBX 6 20 0 -5
BITMAP
00
00
00
00
70
20
38
24
24
24
38
20
20
20
70
00
00
00
00
00
ENDCHAR

STARTCHAR char_0x00DF
ENCODING 223
SWIDTH 561 0
DWIDTH 6 0
BBX 6 20 0 -5
BITMAP
00
00
00
00
00
50
20
50
08
34
44
44
44
44
38
00
00
00
00
00
ENDCHAR

STARTCHAR char_0x00E0
ENCODING 224
SWIDTH 561 0
DWIDTH 6 0
BBX 6 20 0 -5
BITMAP
00
00
00
00
20
10
00
38
44
04
3C
44
44
4C
34
00
00
00
00
00
ENDCHAR

STARTCHAR char_0x00E1
ENCODING 225
SWIDTH 561 0
DWIDTH 6 0
BBX 6 20 0 -5
BITMAP
00
00
00
00
08
10
00
38
44
04
3C
44
44
4C
34
00
00
00
00
00
ENDCHAR

STARTCHAR char_0x00E2
ENCODING 226
SWIDTH 561 0
DWIDTH 6 0
BBX 6 20 0 -5
BITMAP
00
00
00
00
10
28
00
38
44
04
3C
44
44
4C
34
00
00
00
00
00
ENDCHAR

STARTCHAR char_0x00E3
ENCODING 227
SWIDTH 561 0
DWIDTH 6 0
BBX 6 20 0 -5
BITMAP
00
00
00
00
34
58
00
38
44
04
3C
44
44
4C
34
00
00
00
00
00
ENDCHAR

STARTCHAR char_0x00E4
ENCODING 228
SWIDTH 561 0
DWIDTH 6 0
BBX 6 20 0 -5
BITMAP
00
00
00
00
28
28
00
38
44
04
3C
44
44
4C
34
00
00
00
00
00
ENDCHAR

STARTCHAR char_0x00E5
ENCODING 229
SWIDTH 561 0
DWIDTH 6 0
BBX 6 20 0 -5
BITMAP
00
00
00
00
10
10
00
38
44
04
3C
44
44
4C
34
00
00
00
00
00
ENDCHAR

STARTCHAR char_0x00E6
ENCODING 230
SWIDTH 561 0
DWIDTH 6 0
BBX 6 20 0 -5
BITMAP
00
00
00
00
00
00
00
38
54
14
3C
50
50
50
3C
00
00
00
00
00
ENDCHAR

STARTCHAR char_0x00E7
ENCODING 231
SWIDTH 561 0
DWIDTH 6 0
BBX 6 20 0 -5
BITMAP
00
00
00
00
00
00
00
38
44
44
40
40
44
44
38
10
20
00
00
00
ENDCHAR

STARTCHAR char_0x00E8
ENCODING 232
SWIDTH 561 0
DWIDTH 6 0
BBX 6 20 0 -5
BITMAP
00
00
00
00
20
10
00
38
44
44
7C
40
44
44
38
00
00
00
00
00
ENDCHAR

STARTCHAR char_0x00E9
ENCODING 233
SWIDTH 561 0
DWIDTH 6 0
BBX 6 20 0 -5
BITMAP
00
00
00
00
08
10
00
38
44
44
7C
40
44
44
38
00
00
00
00
00
ENDCHAR

STARTCHAR char_0x00EA
ENCODING 234
SWIDTH 561 0
DWIDTH 6 0
BBX 6 20 0 -5
BITMAP
00
00
00
00
10
28
00
38
44
44
7C
40
44
44
38
00
00
00
00
00
ENDCHAR

STARTCHAR char_0x00EB
ENCODING 235
SWIDTH 561 0
DWIDTH 6 0
BBX 6 20 0 -5
BITMAP
00
00
00
00
28
28
00
38
44
44
7C
40
44
44
38
00
00
00
00
00
ENDCHAR

STARTCHAR char_0x00EC
ENCODING 236
SWIDTH 561 0
DWIDTH 6 0
BBX 6 20 0 -5
BITMAP
00
00
00
00
20
10
00
30
10
10
10
10
10
10
7C
00
00
00
00
00
ENDCHAR

STARTCHAR char_0x00ED
ENCODING 237
SWIDTH 561 0
DWIDTH 6 0
BBX 6 20 0 -5
BITMAP
00
00
00
00
08
10
00
30
10
10
10
10
10
10
7C
00
00
00
00
00
ENDCHAR

STARTCHAR char_0x00EE
ENCODING 238
SWIDTH 561 0
DWIDTH 6 0
BBX 6 20 0 -5
BITMAP
00
00
00
00
10
28
00
30
10
10
10
10
10
10
7C
00
00
00
00
00
ENDCHAR

STARTCHAR char_0x00EF
ENCODING 239
SWIDTH 561 0
DWIDTH 6 0
BBX 6 20 0 -5
BITMAP
00
00
00
00
28
28
00
30
10
10
10
10
10
10
7C
00
00
00
00
00
ENDCHAR

STARTCHAR char_0x00F0
ENCODING 240
SWIDTH 561 0
DWIDTH 6 0
BBX 6 20 0 -5
BITMAP
00
00
00
00
00
50
20
50
08
34
44
44
44
44
38
00
00
00
00
00
ENDCHAR

STARTCHAR char_0x00F1
ENCODING 241
SWIDTH 561 0
DWIDTH 6 0
BBX 6 20 0 -5
BITMAP
00
00
00
00
34
58
00
58
64
44
44
44
44
44
44
00
00
00
00
00
ENDCHAR

STARTCHAR char_0x00F2
ENCODING 242
SWIDTH 561 0
DWIDTH 6 0
BBX 6 20 0 -5
BITMAP
00
00
00
00
20
10
00
38
44
44
44
44
44
44
38
00
00
00
00
00
ENDCHAR

STARTCHAR char_0x00F3
ENCODING 243
SWIDTH 561 0
DWIDTH 6 0
BBX 6 20 0 -5
BITMAP
00
00
00
00
08
10
00
38
44
44
44
44
44
44
38
00
00
00
00
00
ENDCHAR

STARTCHAR char_0x00F4
ENCODING 244
SWIDTH 561 0
DWIDTH 6 0
BBX 6 20 0 -5
BITMAP
00
00
00
00
10
28
00
38
44
44
44
44
44
44
38
00
00
00
00
00
ENDCHAR

STARTCHAR char_0x00F5
ENCODING 245
SWIDTH 561 0
DWIDTH 6 0
BBX 6 20 0 -5
BITMAP
00
00
00
00
34
58
00
38
44
44
44
44
44
44
38
00
00
00
00
00
ENDCHAR

STARTCHAR char_0x00F6
ENCODING 246
SWIDTH 561 0
DWIDTH 6 0
BBX 6 20 0 -5
BITMAP
00
00
00
00
28
28
00
38
44
44
44
44
44
44
38
00
00
00
00
00
ENDCHAR

STARTCHAR char_0x00F7
ENCODING 247
SWIDTH 561 0
DWIDTH 6 0
BBX 6 20 0 -5
BITMAP
00
00
00
00
00
00
10
10
00
7C
00
10
10
00
00
00
00
00
00
00
ENDCHAR

STARTCHAR char_0x00F8
ENCODING 248
SWIDTH 561 0
DWIDTH 6 0
BBX 6 20 0 -5
BITMAP
00
00
00
00
00
00
00
14
28
4C
54
54
64
28
50
00
00
00
00
00
ENDCHAR

STARTCHAR char_0x00F9
ENCODING 249
SWIDTH 561 0
DWIDTH 6 0
BBX 6 20 0 -5
BITMAP
00
00
00
00
20
10
00
44
44
44
44
44
44
44
38
00
00
00
00
00
ENDCHAR

STARTCHAR char_0x00FA
ENCODING 250
SWIDTH 561 0
DWIDTH 6 0
BBX 6 20 0 -5
BITMAP
00
00
00
00
08
10
00
44
44
44
44
44
44
44
38
00
00
00
00
00
ENDCHAR

STARTCHAR char_0x00FB
ENCODING 251
SWIDTH 561 0
DWIDTH 6 0
BBX 6 20 0 -5
BITMAP
00
00
00
00
10
28
00
44
44
44
44
44
44
44
38
00
00
00
00
00
ENDCHAR

STARTCHAR char_0x00FC
ENCODING 252
SWIDTH 561 0
DWIDTH 6 0
BBX 6 20 0 -5
BITMAP
00
00
00
00
28
28
00
44
44
44
44
44
44
44
38
00
00
00
00
00
ENDCHAR

STARTCHAR char_0x00FD
ENCODING 253
SWIDTH 561 0
DWIDTH 6 0
BBX 6 20 0 -5
BITMAP
00
00
00
00
08
10
00
44
44
44
44
44
44
44
3C
04
04
44
38
00
ENDCHAR

STARTCHAR char_0x00FE
ENCODING 254
SWIDTH 561 0
DWIDTH 6 0
BBX 6 20 0 -5
BITMAP
00
00
00
00
00
00
00
70
20
38
24
24
24
24
38
20
20
20
70
00
ENDCHAR

STARTCHAR char_0x00FF
ENCODING 255
SWIDTH 561 0
DWIDTH 6 0
BBX 6 20 0 -5
BITMAP
00
00
00
00
28
28
00
44
44
44
44
44
44
44
3C
04
04
44
38
00
ENDCHAR

ENDFONT
