STARTFONT 2.1
FONT -DIGITAL-VWSVT0-Bold-R-Double Wide--20-190-75-75-C-200-ISO8859-1
SIZE 19 75 75
FONTBOUNDINGBOX 20 20 0 -5

STARTPROPERTIES 25
FONTNAME_REGISTRY ""
FAMILY_NAME "VWSVT0"
FOUNDRY_NAME "DIGITAL"
WEIGHT_NAME "Bold"
SETWIDTH_NAME "Double Wide"
SLANT "R"
ADD_STYLE_NAME ""
PIXEL_SIZE 20
POINT_SIZE 190
RESOLUTION_X 75
RESOLUTION_Y 75
SPACING "C"
AVERAGE_WIDTH 200
CHARSET_REGISTRY "ISO8859"
CHARSET_ENCODING "1"
CHARSET_COLLECTIONS "ASCII ISO8859-1"
FULL_NAME "VWSVT0"
COPYRIGHT "Copyright ©1990 by Digital Equipment Corporation"
CAP_HEIGHT 11
X_HEIGHT 8
WEIGHT 10
QUAD_WIDTH 20
DEFAULT_CHAR 0
FONT_DESCENT 5
FONT_ASCENT 15
ENDPROPERTIES

CHARS 193

STARTCHAR char_0x0020
ENCODING 32
SWIDTH 1870 0
DWIDTH 20 0
BBX 20 20 0 -5
BITMAP
000000
000000
000000
000000
000000
000000
000000
000000
000000
000000
000000
000000
000000
000000
000000
000000
000000
000000
000000
000000
ENDCHAR

STARTCHAR char_0x0021
ENCODING 33
SWIDTH 1870 0
DWIDTH 20 0
BBX 20 20 0 -5
BITMAP
000000
000000
000000
000000
03F000
03F000
03F000
03F000
03F000
03F000
03F000
03F000
000000
03F000
03F000
000000
000000
000000
000000
000000
ENDCHAR

STARTCHAR char_0x0022
ENCODING 34
SWIDTH 1870 0
DWIDTH 20 0
BBX 20 20 0 -5
BITMAP
000000
1F9F80
1F9F80
1F9F80
1F9F80
000000
000000
000000
000000
000000
000000
000000
000000
000000
000000
000000
000000
000000
000000
000000
ENDCHAR

STARTCHAR char_0x0023
ENCODING 35
SWIDTH 1870 0
DWIDTH 20 0
BBX 20 20 0 -5
BITMAP
000000
000000
000000
000000
1F9F80
1F9F80
7FFFE0
1F9F80
1F9F80
1F9F80
1F9F80
7FFFE0
1F9F80
1F9F80
000000
000000
000000
000000
000000
000000
ENDCHAR

STARTCHAR char_0x0024
ENCODING 36
SWIDTH 1870 0
DWIDTH 20 0
BBX 20 20 0 -5
BITMAP
000000
000000
000000
006000
006000
0FFF00
1F9F80
1F9F80
1F8000
0FFF00
001F80
1F9F80
1F9F80
0FFF00
006000
006000
000000
000000
000000
000000
ENDCHAR

STARTCHAR char_0x0025
ENCODING 37
SWIDTH 1870 0
DWIDTH 20 0
BBX 20 20 0 -5
BITMAP
000000
000000
000000
000000
3FC060
7E61E0
7E6780
7E7E00
3FF800
01E000
07BFC0
1E7E60
787E60
607E60
003FC0
000000
000000
000000
000000
000000
ENDCHAR

STARTCHAR char_0x0026
ENCODING 38
SWIDTH 1870 0
DWIDTH 20 0
BBX 20 20 0 -5
BITMAP
000000
000000
000000
000000
03FC00
07E600
07E600
07E600
03FC00
01F800
0FFC60
3E3EC0
7E1F80
7F0F80
3FFFC0
000000
000000
000000
000000
000000
ENDCHAR

STARTCHAR char_0x0027
ENCODING 39
SWIDTH 1870 0
DWIDTH 20 0
BBX 20 20 0 -5
BITMAP
000000
007E00
00FC00
01F800
000000
000000
000000
000000
000000
000000
000000
000000
000000
000000
000000
000000
000000
000000
000000
000000
ENDCHAR

STARTCHAR char_0x0028
ENCODING 40
SWIDTH 1870 0
DWIDTH 20 0
BBX 20 20 0 -5
BITMAP
000000
000000
000000
001FC0
007F00
00FC00
01F800
03F000
03F000
03F000
03F000
03F000
01F800
00FC00
007F00
001FC0
000000
000000
000000
000000
ENDCHAR

STARTCHAR char_0x0029
ENCODING 41
SWIDTH 1870 0
DWIDTH 20 0
BBX 20 20 0 -5
BITMAP
000000
000000
000000
3F8000
0FE000
03F000
01F800
00FC00
00FC00
00FC00
00FC00
00FC00
01F800
03F000
0FE000
3F8000
000000
000000
000000
000000
ENDCHAR

STARTCHAR char_0x002A
ENCODING 42
SWIDTH 1870 0
DWIDTH 20 0
BBX 20 20 0 -5
BITMAP
000000
000000
000000
00F000
00F000
0EF700
0FFF00
07FE00
03FC00
03FC00
07FE00
0FFF00
0EF700
00F000
00F000
000000
000000
000000
000000
000000
ENDCHAR

STARTCHAR char_0x002B
ENCODING 43
SWIDTH 1870 0
DWIDTH 20 0
BBX 20 20 0 -5
BITMAP
000000
000000
000000
000000
01F800
01F800
01F800
01F800
7FFFE0
7FFFE0
01F800
01F800
01F800
01F800
000000
000000
000000
000000
000000
000000
ENDCHAR

STARTCHAR char_0x002C
ENCODING 44
SWIDTH 1870 0
DWIDTH 20 0
BBX 20 20 0 -5
BITMAP
000000
000000
000000
000000
000000
000000
000000
000000
000000
000000
000000
000000
03F000
03F000
03F000
03E000
0F8000
000000
000000
000000
ENDCHAR

STARTCHAR char_0x002D
ENCODING 45
SWIDTH 1870 0
DWIDTH 20 0
BBX 20 20 0 -5
BITMAP
000000
000000
000000
000000
000000
000000
000000
000000
0FFF00
0FFF00
000000
000000
000000
000000
000000
000000
000000
000000
000000
000000
ENDCHAR

STARTCHAR char_0x002E
ENCODING 46
SWIDTH 1870 0
DWIDTH 20 0
BBX 20 20 0 -5
BITMAP
000000
000000
000000
000000
000000
000000
000000
000000
000000
000000
000000
000000
03F000
03F000
03F000
000000
000000
000000
000000
000000
ENDCHAR

STARTCHAR char_0x002F
ENCODING 47
SWIDTH 1870 0
DWIDTH 20 0
BBX 20 20 0 -5
BITMAP
000000
000000
000000
0007E0
000FC0
001F80
003F00
007E00
00FC00
01F800
03F000
07E000
0FC000
1F8000
3F0000
000000
000000
000000
000000
000000
ENDCHAR

STARTCHAR char_0x0030
ENCODING 48
SWIDTH 1870 0
DWIDTH 20 0
BBX 20 20 0 -5
BITMAP
000000
000000
000000
000000
03FC00
0F9F00
1F0F80
3F0FC0
3F0FC0
3F0FC0
3F0FC0
3F0FC0
1F0F80
0F9F00
03FC00
000000
000000
000000
000000
000000
ENDCHAR

STARTCHAR char_0x0031
ENCODING 49
SWIDTH 1870 0
DWIDTH 20 0
BBX 20 20 0 -5
BITMAP
000000
000000
000000
000000
003C00
00FC00
03FC00
0FFC00
00FC00
00FC00
00FC00
00FC00
00FC00
00FC00
0FFFC0
000000
000000
000000
000000
000000
ENDCHAR

STARTCHAR char_0x0032
ENCODING 50
SWIDTH 1870 0
DWIDTH 20 0
BBX 20 20 0 -5
BITMAP
000000
000000
000000
000000
1FFF80
3F0FC0
3F0FC0
3F0FC0
003F00
00FC00
03F000
0FC000
3F03C0
3FFFC0
3FFFC0
000000
000000
000000
000000
000000
ENDCHAR

STARTCHAR char_0x0033
ENCODING 51
SWIDTH 1870 0
DWIDTH 20 0
BBX 20 20 0 -5
BITMAP
000000
000000
000000
000000
1FFF80
3F0FC0
3F0FC0
000FC0
001F80
00FE00
001F80
000FC0
3F0FC0
3F0FC0
1FFF80
000000
000000
000000
000000
000000
ENDCHAR

STARTCHAR char_0x0034
ENCODING 52
SWIDTH 1870 0
DWIDTH 20 0
BBX 20 20 0 -5
BITMAP
000000
000000
000000
000000
001F80
007F80
01FF80
079F80
1E1F80
7E1F80
7E1F80
7FFFE0
001F80
001F80
001F80
000000
000000
000000
000000
000000
ENDCHAR

STARTCHAR char_0x0035
ENCODING 53
SWIDTH 1870 0
DWIDTH 20 0
BBX 20 20 0 -5
BITMAP
000000
000000
000000
000000
3FFFC0
3F0000
3F0000
3F0000
3FFF80
000FC0
000FC0
000FC0
3F0FC0
3F0FC0
1FFF80
000000
000000
000000
000000
000000
ENDCHAR

STARTCHAR char_0x0036
ENCODING 54
SWIDTH 1870 0
DWIDTH 20 0
BBX 20 20 0 -5
BITMAP
000000
000000
000000
000000
1FFF80
3F0FC0
3F0FC0
3F0000
3FFF80
3F0FC0
3F0FC0
3F0FC0
3F0FC0
3F0FC0
1FFF80
000000
000000
000000
000000
000000
ENDCHAR

STARTCHAR char_0x0037
ENCODING 55
SWIDTH 1870 0
DWIDTH 20 0
BBX 20 20 0 -5
BITMAP
000000
000000
000000
000000
3FFFC0
3F0FC0
3F0FC0
001F80
003F00
007E00
00FC00
01F800
03F000
07E000
0FC000
000000
000000
000000
000000
000000
ENDCHAR

STARTCHAR char_0x0038
ENCODING 56
SWIDTH 1870 0
DWIDTH 20 0
BBX 20 20 0 -5
BITMAP
000000
000000
000000
000000
1FFF80
3F0FC0
3F0FC0
3F0FC0
3F0FC0
0FFF00
3F0FC0
3F0FC0
3F0FC0
3F0FC0
1FFF80
000000
000000
000000
000000
000000
ENDCHAR

STARTCHAR char_0x0039
ENCODING 57
SWIDTH 1870 0
DWIDTH 20 0
BBX 20 20 0 -5
BITMAP
000000
000000
000000
000000
1FFF80
3F0FC0
3F0FC0
3F0FC0
3F0FC0
3F0FC0
1FFFC0
000FC0
3F0FC0
3F0FC0
1FFF80
000000
000000
000000
000000
000000
ENDCHAR

STARTCHAR char_0x003A
ENCODING 58
SWIDTH 1870 0
DWIDTH 20 0
BBX 20 20 0 -5
BITMAP
000000
000000
000000
000000
000000
000000
000000
03F000
03F000
03F000
000000
000000
03F000
03F000
03F000
000000
000000
000000
000000
000000
ENDCHAR

STARTCHAR char_0x003B
ENCODING 59
SWIDTH 1870 0
DWIDTH 20 0
BBX 20 20 0 -5
BITMAP
000000
000000
000000
000000
000000
000000
000000
03F000
03F000
03F000
000000
000000
03F000
03F000
03F000
03E000
0F8000
000000
000000
000000
ENDCHAR

STARTCHAR char_0x003C
ENCODING 60
SWIDTH 1870 0
DWIDTH 20 0
BBX 20 20 0 -5
BITMAP
000000
000000
000000
000000
000FC0
003F00
00FC00
03F000
0FC000
3F0000
0FC000
03F000
00FC00
003F00
000FC0
000000
000000
000000
000000
000000
ENDCHAR

STARTCHAR char_0x003D
ENCODING 61
SWIDTH 1870 0
DWIDTH 20 0
BBX 20 20 0 -5
BITMAP
000000
000000
000000
000000
000000
000000
0FFFC0
0FFFC0
000000
000000
0FFFC0
0FFFC0
000000
000000
000000
000000
000000
000000
000000
000000
ENDCHAR

STARTCHAR char_0x003E
ENCODING 62
SWIDTH 1870 0
DWIDTH 20 0
BBX 20 20 0 -5
BITMAP
000000
000000
000000
000000
3F0000
0FC000
03F000
00FC00
003F00
000FC0
003F00
00FC00
03F000
0FC000
3F0000
000000
000000
000000
000000
000000
ENDCHAR

STARTCHAR char_0x003F
ENCODING 63
SWIDTH 1870 0
DWIDTH 20 0
BBX 20 20 0 -5
BITMAP
000000
000000
000000
1FFF80
3F0FC0
3F0FC0
001FC0
003F80
007E00
00F800
00E000
000000
03F000
03F000
03F000
000000
000000
000000
000000
000000
ENDCHAR

STARTCHAR char_0x0040
ENCODING 64
SWIDTH 1870 0
DWIDTH 20 0
BBX 20 20 0 -5
BITMAP
000000
000000
000000
000000
1FFF80
3F01C0
7E01E0
7E3FE0
7E79E0
7E79E0
7E79E0
7E3FC0
7E0000
3F0000
1FFF00
000000
000000
000000
000000
000000
ENDCHAR

STARTCHAR char_0x0041
ENCODING 65
SWIDTH 1870 0
DWIDTH 20 0
BBX 20 20 0 -5
BITMAP
000000
000000
000000
000000
00F000
03FC00
0F9F00
3F0FC0
3F0FC0
3F0FC0
3FFFC0
3F0FC0
3F0FC0
3F0FC0
3F0FC0
000000
000000
000000
000000
000000
ENDCHAR

STARTCHAR char_0x0042
ENCODING 66
SWIDTH 1870 0
DWIDTH 20 0
BBX 20 20 0 -5
BITMAP
000000
000000
000000
000000
3FFF00
3F1F80
3F0FC0
3F0FC0
3F1F80
3FFF00
3F1F80
3F0FC0
3F0FC0
3F1F80
3FFF00
000000
000000
000000
000000
000000
ENDCHAR

STARTCHAR char_0x0043
ENCODING 67
SWIDTH 1870 0
DWIDTH 20 0
BBX 20 20 0 -5
BITMAP
000000
000000
000000
000000
0FFF80
1F87C0
3F03C0
3F0000
3F0000
3F0000
3F0000
3F0000
3F03C0
1F87C0
0FFF80
000000
000000
000000
000000
000000
ENDCHAR

STARTCHAR char_0x0044
ENCODING 68
SWIDTH 1870 0
DWIDTH 20 0
BBX 20 20 0 -5
BITMAP
000000
000000
000000
000000
3FFF00
3F1F80
3F0FC0
3F0FC0
3F0FC0
3F0FC0
3F0FC0
3F0FC0
3F0FC0
3F1F80
3FFF00
000000
000000
000000
000000
000000
ENDCHAR

STARTCHAR char_0x0045
ENCODING 69
SWIDTH 1870 0
DWIDTH 20 0
BBX 20 20 0 -5
BITMAP
000000
000000
000000
000000
3FFFC0
3F0000
3F0000
3F0000
3F0000
3FFC00
3F0000
3F0000
3F0000
3F0000
3FFFC0
000000
000000
000000
000000
000000
ENDCHAR

STARTCHAR char_0x0046
ENCODING 70
SWIDTH 1870 0
DWIDTH 20 0
BBX 20 20 0 -5
BITMAP
000000
000000
000000
000000
3FFFC0
3F0000
3F0000
3F0000
3F0000
3FFC00
3F0000
3F0000
3F0000
3F0000
3F0000
000000
000000
000000
000000
000000
ENDCHAR

STARTCHAR char_0x0047
ENCODING 71
SWIDTH 1870 0
DWIDTH 20 0
BBX 20 20 0 -5
BITMAP
000000
000000
000000
000000
0FFF80
1F0FC0
3F0FC0
3F0000
3F0000
3F3FC0
3F0FC0
3F0FC0
3F0FC0
1F0F80
0FFF00
000000
000000
000000
000000
000000
ENDCHAR

STARTCHAR char_0x0048
ENCODING 72
SWIDTH 1870 0
DWIDTH 20 0
BBX 20 20 0 -5
BITMAP
000000
000000
000000
000000
3F0FC0
3F0FC0
3F0FC0
3F0FC0
3F0FC0
3FFFC0
3F0FC0
3F0FC0
3F0FC0
3F0FC0
3F0FC0
000000
000000
000000
000000
000000
ENDCHAR

STARTCHAR char_0x0049
ENCODING 73
SWIDTH 1870 0
DWIDTH 20 0
BBX 20 20 0 -5
BITMAP
000000
000000
000000
000000
3FFFC0
01F800
01F800
01F800
01F800
01F800
01F800
01F800
01F800
01F800
3FFFC0
000000
000000
000000
000000
000000
ENDCHAR

STARTCHAR char_0x004A
ENCODING 74
SWIDTH 1870 0
DWIDTH 20 0
BBX 20 20 0 -5
BITMAP
000000
000000
000000
000000
03FFE0
003F00
003F00
003F00
003F00
003F00
003F00
003F00
3F3F00
3F3F00
1FFE00
000000
000000
000000
000000
000000
ENDCHAR

STARTCHAR char_0x004B
ENCODING 75
SWIDTH 1870 0
DWIDTH 20 0
BBX 20 20 0 -5
BITMAP
000000
000000
000000
000000
7E01E0
7E0780
7E1E00
7E7800
7FE000
7FE000
7FF800
7FFE00
7E7F80
7E1FE0
7E07E0
000000
000000
000000
000000
000000
ENDCHAR

STARTCHAR char_0x004C
ENCODING 76
SWIDTH 1870 0
DWIDTH 20 0
BBX 20 20 0 -5
BITMAP
000000
000000
000000
000000
3F0000
3F0000
3F0000
3F0000
3F0000
3F0000
3F0000
3F0000
3F0000
3F0000
3FFFC0
000000
000000
000000
000000
000000
ENDCHAR

STARTCHAR char_0x004D
ENCODING 77
SWIDTH 1870 0
DWIDTH 20 0
BBX 20 20 0 -5
BITMAP
000000
000000
000000
000000
7C03E0
7E07E0
7F0FE0
7F9FE0
7FFFE0
7EF7E0
7E67E0
7E07E0
7E07E0
7E07E0
7E07E0
000000
000000
000000
000000
000000
ENDCHAR

STARTCHAR char_0x004E
ENCODING 78
SWIDTH 1870 0
DWIDTH 20 0
BBX 20 20 0 -5
BITMAP
000000
000000
000000
000000
7E07E0
7F07E0
7F87E0
7FC7E0
7FE7E0
7EF7E0
7E7FE0
7E3FE0
7E1FE0
7E0FE0
7E07E0
000000
000000
000000
000000
000000
ENDCHAR

STARTCHAR char_0x004F
ENCODING 79
SWIDTH 1870 0
DWIDTH 20 0
BBX 20 20 0 -5
BITMAP
000000
000000
000000
000000
1FFF80
3F9FC0
3F0FC0
3F0FC0
3F0FC0
3F0FC0
3F0FC0
3F0FC0
3F0FC0
3F9FC0
1FFF80
000000
000000
000000
000000
000000
ENDCHAR

STARTCHAR char_0x0050
ENCODING 80
SWIDTH 1870 0
DWIDTH 20 0
BBX 20 20 0 -5
BITMAP
000000
000000
000000
000000
3FFF00
3F1F80
3F0FC0
3F0FC0
3F0FC0
3F0FC0
3F1F80
3FFF00
3F0000
3F0000
3F0000
000000
000000
000000
000000
000000
ENDCHAR

STARTCHAR char_0x0051
ENCODING 81
SWIDTH 1870 0
DWIDTH 20 0
BBX 20 20 0 -5
BITMAP
000000
000000
000000
000000
1FFF80
3F9FC0
3F0FC0
3F0FC0
3F0FC0
3F0FC0
3F0FC0
3F0FC0
3F7FC0
3FBFC0
1FFF80
000F80
0007C0
000000
000000
000000
ENDCHAR

STARTCHAR char_0x0052
ENCODING 82
SWIDTH 1870 0
DWIDTH 20 0
BBX 20 20 0 -5
BITMAP
000000
000000
000000
000000
3FFF00
3F1F80
3F0FC0
3F0FC0
3F0FC0
3F1FC0
3FFF80
3FFE00
3F3F00
3F1F80
3F0FC0
000000
000000
000000
000000
000000
ENDCHAR

STARTCHAR char_0x0053
ENCODING 83
SWIDTH 1870 0
DWIDTH 20 0
BBX 20 20 0 -5
BITMAP
000000
000000
000000
000000
1FFF80
3F0FC0
3F0FC0
3F0FC0
3F0000
1FFF80
000FC0
3F0FC0
3F0FC0
3F0FC0
1FFF80
000000
000000
000000
000000
000000
ENDCHAR

STARTCHAR char_0x0054
ENCODING 84
SWIDTH 1870 0
DWIDTH 20 0
BBX 20 20 0 -5
BITMAP
000000
000000
000000
000000
3FFFC0
01F800
01F800
01F800
01F800
01F800
01F800
01F800
01F800
01F800
01F800
000000
000000
000000
000000
000000
ENDCHAR

STARTCHAR char_0x0055
ENCODING 85
SWIDTH 1870 0
DWIDTH 20 0
BBX 20 20 0 -5
BITMAP
000000
000000
000000
000000
3F0FC0
3F0FC0
3F0FC0
3F0FC0
3F0FC0
3F0FC0
3F0FC0
3F0FC0
3F0FC0
3F9FC0
1FFF80
000000
000000
000000
000000
000000
ENDCHAR

STARTCHAR char_0x0056
ENCODING 86
SWIDTH 1870 0
DWIDTH 20 0
BBX 20 20 0 -5
BITMAP
000000
000000
000000
000000
3F0FC0
3F0FC0
3F0FC0
3F0FC0
3F0FC0
3F0FC0
3F0FC0
3F0FC0
0F9F00
03FC00
00F000
000000
000000
000000
000000
000000
ENDCHAR

STARTCHAR char_0x0057
ENCODING 87
SWIDTH 1870 0
DWIDTH 20 0
BBX 20 20 0 -5
BITMAP
000000
000000
000000
000000
7E07E0
7E07E0
7E07E0
7E07E0
7E67E0
7E67E0
7E67E0
7E67E0
7FFFE0
3F9FC0
1F0F80
000000
000000
000000
000000
000000
ENDCHAR

STARTCHAR char_0x0058
ENCODING 88
SWIDTH 1870 0
DWIDTH 20 0
BBX 20 20 0 -5
BITMAP
000000
000000
000000
000000
7F9FE0
3F9FC0
0F9F00
079E00
03FC00
01F800
03FC00
079E00
0F9F00
3F9FC0
7F9FE0
000000
000000
000000
000000
000000
ENDCHAR

STARTCHAR char_0x0059
ENCODING 89
SWIDTH 1870 0
DWIDTH 20 0
BBX 20 20 0 -5
BITMAP
000000
000000
000000
000000
7E07E0
7E07E0
7E07E0
7E07E0
3F0FC0
0FFF00
01F800
01F800
01F800
01F800
01F800
000000
000000
000000
000000
000000
ENDCHAR

STARTCHAR char_0x005A
ENCODING 90
SWIDTH 1870 0
DWIDTH 20 0
BBX 20 20 0 -5
BITMAP
000000
000000
000000
000000
3FFFC0
000FC0
000FC0
003FC0
00FF00
03FC00
0FF000
3FC000
3F0000
3F0000
3FFFC0
000000
000000
000000
000000
000000
ENDCHAR

STARTCHAR char_0x005B
ENCODING 91
SWIDTH 1870 0
DWIDTH 20 0
BBX 20 20 0 -5
BITMAP
000000
000000
000000
03FF00
03F000
03F000
03F000
03F000
03F000
03F000
03F000
03F000
03F000
03F000
03F000
03FF00
000000
000000
000000
000000
ENDCHAR

STARTCHAR char_0x005C
ENCODING 92
SWIDTH 1870 0
DWIDTH 20 0
BBX 20 20 0 -5
BITMAP
000000
000000
000000
3F0000
1F8000
0FC000
07E000
03F000
01F800
00FC00
007E00
003F00
001F80
000FC0
0007E0
000000
000000
000000
000000
000000
ENDCHAR

STARTCHAR char_0x005D
ENCODING 93
SWIDTH 1870 0
DWIDTH 20 0
BBX 20 20 0 -5
BITMAP
000000
000000
000000
0FFC00
00FC00
00FC00
00FC00
00FC00
00FC00
00FC00
00FC00
00FC00
00FC00
00FC00
00FC00
0FFC00
000000
000000
000000
000000
ENDCHAR

STARTCHAR char_0x005E
ENCODING 94
SWIDTH 1870 0
DWIDTH 20 0
BBX 20 20 0 -5
BITMAP
000000
00F000
03FC00
0FFF00
3F0FC0
000000
000000
000000
000000
000000
000000
000000
000000
000000
000000
000000
000000
000000
000000
000000
ENDCHAR

STARTCHAR char_0x005F
ENCODING 95
SWIDTH 1870 0
DWIDTH 20 0
BBX 20 20 0 -5
BITMAP
000000
000000
000000
000000
000000
000000
000000
000000
000000
000000
000000
000000
000000
000000
3FFFC0
3FFFC0
000000
000000
000000
000000
ENDCHAR

STARTCHAR char_0x0060
ENCODING 96
SWIDTH 1870 0
DWIDTH 20 0
BBX 20 20 0 -5
BITMAP
000000
07E000
03F000
01F800
000000
000000
000000
000000
000000
000000
000000
000000
000000
000000
000000
000000
000000
000000
000000
000000
ENDCHAR

STARTCHAR char_0x0061
ENCODING 97
SWIDTH 1870 0
DWIDTH 20 0
BBX 20 20 0 -5
BITMAP
000000
000000
000000
000000
000000
000000
000000
0FFF00
1E1F80
001F80
3FFF80
7E1F80
7E1F80
7E1F80
3FFFE0
000000
000000
000000
000000
000000
ENDCHAR

STARTCHAR char_0x0062
ENCODING 98
SWIDTH 1870 0
DWIDTH 20 0
BBX 20 20 0 -5
BITMAP
000000
000000
000000
000000
3F0000
3F0000
3F0000
3FFF00
3F1F80
3F0FC0
3F0FC0
3F0FC0
3F0FC0
3F1F80
3FFF00
000000
000000
000000
000000
000000
ENDCHAR

STARTCHAR char_0x0063
ENCODING 99
SWIDTH 1870 0
DWIDTH 20 0
BBX 20 20 0 -5
BITMAP
000000
000000
000000
000000
000000
000000
000000
0FFF80
1F87C0
3F03C0
3F0000
3F0000
3F03C0
1F87C0
0FFF80
000000
000000
000000
000000
000000
ENDCHAR

STARTCHAR char_0x0064
ENCODING 100
SWIDTH 1870 0
DWIDTH 20 0
BBX 20 20 0 -5
BITMAP
000000
000000
000000
000000
000FC0
000FC0
000FC0
0FEFC0
1F9FC0
3F0FC0
3F0FC0
3F0FC0
3F8FC0
1FFFC0
0FEFC0
000000
000000
000000
000000
000000
ENDCHAR

STARTCHAR char_0x0065
ENCODING 101
SWIDTH 1870 0
DWIDTH 20 0
BBX 20 20 0 -5
BITMAP
000000
000000
000000
000000
000000
000000
000000
07FE00
1FFF80
3F0FC0
3FFFC0
3F0000
3F03C0
1F87C0
0FFF80
000000
000000
000000
000000
000000
ENDCHAR

STARTCHAR char_0x0066
ENCODING 102
SWIDTH 1870 0
DWIDTH 20 0
BBX 20 20 0 -5
BITMAP
000000
000000
000000
000000
03FFC0
07E1E0
07E1E0
07E000
3FFF80
7FFF00
07E000
07E000
07E000
07E000
07E000
000000
000000
000000
000000
000000
ENDCHAR

STARTCHAR char_0x0067
ENCODING 103
SWIDTH 1870 0
DWIDTH 20 0
BBX 20 20 0 -5
BITMAP
000000
000000
000000
000000
000000
000000
000000
0FEFC0
1FFFC0
3F8FC0
3F0FC0
3F0FC0
3F0FC0
1F8FC0
0FFFC0
000FC0
3F0FC0
3F0FC0
1FFF80
000000
ENDCHAR

STARTCHAR char_0x0068
ENCODING 104
SWIDTH 1870 0
DWIDTH 20 0
BBX 20 20 0 -5
BITMAP
000000
000000
000000
000000
3F0000
3F0000
3F0000
3F7F80
3F9FC0
3F0FC0
3F0FC0
3F0FC0
3F0FC0
3F0FC0
3F0FC0
000000
000000
000000
000000
000000
ENDCHAR

STARTCHAR char_0x0069
ENCODING 105
SWIDTH 1870 0
DWIDTH 20 0
BBX 20 20 0 -5
BITMAP
000000
000000
000000
000000
01F800
01F800
000000
1FF800
01F800
01F800
01F800
01F800
01F800
01F800
7FFFE0
000000
000000
000000
000000
000000
ENDCHAR

STARTCHAR char_0x006A
ENCODING 106
SWIDTH 1870 0
DWIDTH 20 0
BBX 20 20 0 -5
BITMAP
000000
000000
000000
000000
000FC0
000FC0
000000
00FFC0
000FC0
000FC0
000FC0
000FC0
000FC0
000FC0
000FC0
3F0FC0
3F0FC0
3F0FC0
1FFF80
000000
ENDCHAR

STARTCHAR char_0x006B
ENCODING 107
SWIDTH 1870 0
DWIDTH 20 0
BBX 20 20 0 -5
BITMAP
000000
000000
000000
000000
7E0000
7E0000
7E07E0
7E1F80
7E7E00
7FF800
7FE000
7FF800
7E7E00
7E1F80
7E07E0
000000
000000
000000
000000
000000
ENDCHAR

STARTCHAR char_0x006C
ENCODING 108
SWIDTH 1870 0
DWIDTH 20 0
BBX 20 20 0 -5
BITMAP
000000
000000
000000
000000
1FF800
01F800
01F800
01F800
01F800
01F800
01F800
01F800
01F800
01F800
7FFFE0
000000
000000
000000
000000
000000
ENDCHAR

STARTCHAR char_0x006D
ENCODING 109
SWIDTH 1870 0
DWIDTH 20 0
BBX 20 20 0 -5
BITMAP
000000
000000
000000
000000
000000
000000
000000
7FCFC0
7E79E0
7E79E0
7E79E0
7E79E0
7E01E0
7E01E0
7E01E0
000000
000000
000000
000000
000000
ENDCHAR

STARTCHAR char_0x006E
ENCODING 110
SWIDTH 1870 0
DWIDTH 20 0
BBX 20 20 0 -5
BITMAP
000000
000000
000000
000000
000000
000000
000000
3F7F80
3FFFC0
3F1FC0
3F0FC0
3F0FC0
3F0FC0
3F0FC0
3F0FC0
000000
000000
000000
000000
000000
ENDCHAR

STARTCHAR char_0x006F
ENCODING 111
SWIDTH 1870 0
DWIDTH 20 0
BBX 20 20 0 -5
BITMAP
000000
000000
000000
000000
000000
000000
000000
0FFE00
1F9F80
3F0FC0
3F0FC0
3F0FC0
3F0FC0
1F9F80
0FFF00
000000
000000
000000
000000
000000
ENDCHAR

STARTCHAR char_0x0070
ENCODING 112
SWIDTH 1870 0
DWIDTH 20 0
BBX 20 20 0 -5
BITMAP
000000
000000
000000
000000
000000
000000
000000
3FFF00
3F1F80
3F0FC0
3F0FC0
3F0FC0
3F0FC0
3F1F80
3FFF00
3F0000
3F0000
3F0000
3F0000
000000
ENDCHAR

STARTCHAR char_0x0071
ENCODING 113
SWIDTH 1870 0
DWIDTH 20 0
BBX 20 20 0 -5
BITMAP
000000
000000
000000
000000
000000
000000
000000
0FFFC0
1F8FC0
3F0FC0
3F0FC0
3F0FC0
3F0FC0
1F8FC0
0FFFC0
000FC0
000FC0
000FC0
000FC0
000000
ENDCHAR

STARTCHAR char_0x0072
ENCODING 114
SWIDTH 1870 0
DWIDTH 20 0
BBX 20 20 0 -5
BITMAP
000000
000000
000000
000000
000000
000000
000000
3F7F80
3F8FC0
3F07C0
3F0000
3F0000
3F0000
3F0000
3F0000
000000
000000
000000
000000
000000
ENDCHAR

STARTCHAR char_0x0073
ENCODING 115
SWIDTH 1870 0
DWIDTH 20 0
BBX 20 20 0 -5
BITMAP
000000
000000
000000
000000
000000
000000
000000
1FFF80
3F0FC0
3F0000
1FFF80
000FC0
3F0FC0
3F0FC0
1FFF80
000000
000000
000000
000000
000000
ENDCHAR

STARTCHAR char_0x0074
ENCODING 116
SWIDTH 1870 0
DWIDTH 20 0
BBX 20 20 0 -5
BITMAP
000000
000000
000000
000000
03F000
03F000
03F000
1FFF00
3FFE00
03F000
03F000
03F000
03F3C0
03F3C0
01FF80
000000
000000
000000
000000
000000
ENDCHAR

STARTCHAR char_0x0075
ENCODING 117
SWIDTH 1870 0
DWIDTH 20 0
BBX 20 20 0 -5
BITMAP
000000
000000
000000
000000
000000
000000
000000
3F0FC0
3F0FC0
3F0FC0
3F0FC0
3F0FC0
3F0FC0
3F9FC0
1FEFC0
000000
000000
000000
000000
000000
ENDCHAR

STARTCHAR char_0x0076
ENCODING 118
SWIDTH 1870 0
DWIDTH 20 0
BBX 20 20 0 -5
BITMAP
000000
000000
000000
000000
000000
000000
000000
3F0FC0
3F0FC0
3F0FC0
3F0FC0
3F0FC0
0F0F00
03FC00
00F000
000000
000000
000000
000000
000000
ENDCHAR

STARTCHAR char_0x0077
ENCODING 119
SWIDTH 1870 0
DWIDTH 20 0
BBX 20 20 0 -5
BITMAP
000000
000000
000000
000000
000000
000000
000000
7E07E0
7E07E0
7E67E0
7E67E0
7E67E0
7FFFE0
1F9F80
060600
000000
000000
000000
000000
000000
ENDCHAR

STARTCHAR char_0x0078
ENCODING 120
SWIDTH 1870 0
DWIDTH 20 0
BBX 20 20 0 -5
BITMAP
000000
000000
000000
000000
000000
000000
000000
7F9FE0
1F9F80
07FE00
01F800
01F800
07FE00
1F9F80
7F9FE0
000000
000000
000000
000000
000000
ENDCHAR

STARTCHAR char_0x0079
ENCODING 121
SWIDTH 1870 0
DWIDTH 20 0
BBX 20 20 0 -5
BITMAP
000000
000000
000000
000000
000000
000000
000000
3F0FC0
3F0FC0
3F0FC0
3F0FC0
3F0FC0
3F0FC0
1F8FC0
0FFFC0
000FC0
3C0FC0
3C1F80
1FFF00
000000
ENDCHAR

STARTCHAR char_0x007A
ENCODING 122
SWIDTH 1870 0
DWIDTH 20 0
BBX 20 20 0 -5
BITMAP
000000
000000
000000
000000
000000
000000
000000
3FFFC0
003FC0
00FFC0
03FF00
0FFC00
3FF000
3FC000
3FFFC0
000000
000000
000000
000000
000000
ENDCHAR

STARTCHAR char_0x007B
ENCODING 123
SWIDTH 1870 0
DWIDTH 20 0
BBX 20 20 0 -5
BITMAP
000000
000000
000000
00FF00
01FC00
01F800
01F800
00F800
01F000
0FE000
01F000
00F800
01F800
01F800
01FC00
00FF00
000000
000000
000000
000000
ENDCHAR

STARTCHAR char_0x007C
ENCODING 124
SWIDTH 1870 0
DWIDTH 20 0
BBX 20 20 0 -5
BITMAP
000000
000000
000000
00FC00
00FC00
00FC00
00FC00
00FC00
00FC00
00FC00
00FC00
00FC00
00FC00
00FC00
00FC00
00FC00
000000
000000
000000
000000
ENDCHAR

STARTCHAR char_0x007D
ENCODING 125
SWIDTH 1870 0
DWIDTH 20 0
BBX 20 20 0 -5
BITMAP
000000
000000
000000
0FF000
03F800
01F800
01F800
01F000
00F800
007F00
00F800
01F000
01F800
01F800
03F800
0FF000
000000
000000
000000
000000
ENDCHAR

STARTCHAR char_0x007E
ENCODING 126
SWIDTH 1870 0
DWIDTH 20 0
BBX 20 20 0 -5
BITMAP
000000
1FE3C0
3FFFC0
3C7F80
000000
000000
000000
000000
000000
000000
000000
000000
000000
000000
000000
000000
000000
000000
000000
000000
ENDCHAR

STARTCHAR char_0x0080
ENCODING 128
SWIDTH 1870 0
DWIDTH 20 0
BBX 20 20 0 -5
BITMAP
000000
000000
000000
000000
3FFFE0
7E7E00
7E7E00
7E7E00
7E7E00
7E7F80
7E7E00
7E7E00
7E7E00
7E7E00
3FFFE0
000000
000000
000000
000000
000000
ENDCHAR

STARTCHAR char_0x0081
ENCODING 129
SWIDTH 1870 0
DWIDTH 20 0
BBX 20 20 0 -5
BITMAP
000000
000000
000000
000000
000000
000000
000000
3FFFC0
7E79E0
7E79E0
7E7FE0
7E7800
7E7800
7E78E0
3FFFC0
000000
000000
000000
000000
000000
ENDCHAR

STARTCHAR char_0x0082
ENCODING 130
SWIDTH 1870 0
DWIDTH 20 0
BBX 20 20 0 -5
BITMAP
000000
7E07E0
7E07E0
000000
7E07E0
7E07E0
7E07E0
7E07E0
3F0FC0
0FFF00
01F800
01F800
01F800
01F800
01F800
000000
000000
000000
000000
000000
ENDCHAR

STARTCHAR char_0x00A1
ENCODING 161
SWIDTH 1870 0
DWIDTH 20 0
BBX 20 20 0 -5
BITMAP
000000
000000
000000
03F000
03F000
03F000
000000
03F000
03F000
03F000
03F000
03F000
03F000
03F000
03F000
03F000
000000
000000
000000
000000
ENDCHAR

STARTCHAR char_0x00A2
ENCODING 162
SWIDTH 1870 0
DWIDTH 20 0
BBX 20 20 0 -5
BITMAP
000000
000000
000000
000000
00F000
00F000
0FFF80
1FFFC0
3F07C0
3E0000
3F07C0
1FFFC0
0FFF80
00F000
00F000
000000
000000
000000
000000
000000
ENDCHAR

STARTCHAR char_0x00A3
ENCODING 163
SWIDTH 1870 0
DWIDTH 20 0
BBX 20 20 0 -5
BITMAP
000000
000000
000000
000000
01FFC0
03E7E0
07E7E0
07E000
07E000
7FFF80
07E000
07E000
0FE3E0
3FE7E0
7F7FC0
000000
000000
000000
000000
000000
ENDCHAR

STARTCHAR char_0x00A4
ENCODING 164
SWIDTH 1870 0
DWIDTH 20 0
BBX 20 20 0 -5
BITMAP
000000
000000
000000
000000
060180
030300
01FE00
07CF80
0F87C0
0F87C0
0F87C0
07CF80
01FE00
030300
060180
000000
000000
000000
000000
000000
ENDCHAR

STARTCHAR char_0x00A5
ENCODING 165
SWIDTH 1870 0
DWIDTH 20 0
BBX 20 20 0 -5
BITMAP
000000
000000
000000
000000
7E07E0
3F0FC0
1F9F80
0FFF00
07FE00
7FFFE0
01F800
01F800
7FFFE0
01F800
01F800
000000
000000
000000
000000
000000
ENDCHAR

STARTCHAR char_0x00A6
ENCODING 166
SWIDTH 1870 0
DWIDTH 20 0
BBX 20 20 0 -5
BITMAP
000000
000000
000000
00FC00
00FC00
00FC00
00FC00
00FC00
00FC00
000000
00FC00
00FC00
00FC00
00FC00
00FC00
00FC00
000000
000000
000000
000000
ENDCHAR

STARTCHAR char_0x00A7
ENCODING 167
SWIDTH 1870 0
DWIDTH 20 0
BBX 20 20 0 -5
BITMAP
000000
000000
000000
01FE00
03CF80
0FE3C0
1FF8C0
1C7E00
0F1F80
07C7C0
01F3C0
1C7F80
1F1F00
0FCF00
03FE00
000000
000000
000000
000000
000000
ENDCHAR

STARTCHAR char_0x00A8
ENCODING 168
SWIDTH 1870 0
DWIDTH 20 0
BBX 20 20 0 -5
BITMAP
000000
3F0FC0
3F0FC0
000000
000000
000000
000000
000000
000000
000000
000000
000000
000000
000000
000000
000000
000000
000000
000000
000000
ENDCHAR

STARTCHAR char_0x00A9
ENCODING 169
SWIDTH 1870 0
DWIDTH 20 0
BBX 20 20 0 -5
BITMAP
000000
000000
000000
1FFF80
3000C0
63FC60
67EE60
67C660
67C060
67C060
67C660
67EE60
63FC60
3000C0
1FFF80
000000
000000
000000
000000
000000
ENDCHAR

STARTCHAR char_0x00AA
ENCODING 170
SWIDTH 1870 0
DWIDTH 20 0
BBX 20 20 0 -5
BITMAP
000000
000000
000000
0FF800
00FC00
1FFC00
3CFC00
3FFC00
1FFC00
000000
3FFC00
000000
000000
000000
000000
000000
000000
000000
000000
000000
ENDCHAR

STARTCHAR char_0x00AB
ENCODING 171
SWIDTH 1870 0
DWIDTH 20 0
BBX 20 20 0 -5
BITMAP
000000
000000
000000
000000
000000
000000
01E1E0
07E7E0
1F9F80
7E7E00
1F9F80
07E7E0
01E1E0
000000
000000
000000
000000
000000
000000
000000
ENDCHAR

STARTCHAR char_0x00AC
ENCODING 172
SWIDTH 1870 0
DWIDTH 20 0
BBX 20 20 0 -5
BITMAP
000000
000000
000000
0FFFC0
0FFFC0
0003C0
0003C0
000000
000000
000000
000000
000000
000000
000000
000000
000000
000000
000000
000000
000000
ENDCHAR

STARTCHAR char_0x00AD
ENCODING 173
SWIDTH 1870 0
DWIDTH 20 0
BBX 20 20 0 -5
BITMAP
000000
000000
000000
000000
000000
000000
000000
000000
03FC00
03FC00
000000
000000
000000
000000
000000
000000
000000
000000
000000
000000
ENDCHAR

STARTCHAR char_0x00AE
ENCODING 174
SWIDTH 1870 0
DWIDTH 20 0
BBX 20 20 0 -5
BITMAP
000000
000000
000000
1FFF80
3000C0
67FC60
67FE60
679E60
679E60
67FC60
679E60
679E60
679E60
3000C0
1FFF80
000000
000000
000000
000000
000000
ENDCHAR

STARTCHAR char_0x00AF
ENCODING 175
SWIDTH 1870 0
DWIDTH 20 0
BBX 20 20 0 -5
BITMAP
000000
000000
0FFF00
0FFF00
000000
000000
000000
000000
000000
000000
000000
000000
000000
000000
000000
000000
000000
000000
000000
000000
ENDCHAR

STARTCHAR char_0x00B0
ENCODING 176
SWIDTH 1870 0
DWIDTH 20 0
BBX 20 20 0 -5
BITMAP
000000
000000
000000
1FFE00
3F0F00
3F0F00
1FFE00
000000
000000
000000
000000
000000
000000
000000
000000
000000
000000
000000
000000
000000
ENDCHAR

STARTCHAR char_0x00B1
ENCODING 177
SWIDTH 1870 0
DWIDTH 20 0
BBX 20 20 0 -5
BITMAP
000000
000000
000000
000000
00FC00
00FC00
0FFFC0
0FFFC0
00FC00
00FC00
00FC00
000000
0FFFC0
0FFFC0
000000
000000
000000
000000
000000
000000
ENDCHAR

STARTCHAR char_0x00B2
ENCODING 178
SWIDTH 1870 0
DWIDTH 20 0
BBX 20 20 0 -5
BITMAP
000000
000000
000000
1FF800
3CFC00
00FC00
03F000
0FC000
3F0000
3FFC00
000000
000000
000000
000000
000000
000000
000000
000000
000000
000000
ENDCHAR

STARTCHAR char_0x00B3
ENCODING 179
SWIDTH 1870 0
DWIDTH 20 0
BBX 20 20 0 -5
BITMAP
000000
000000
000000
1FF800
30FC00
00FC00
0FF800
00FC00
30FC00
1FF800
000000
000000
000000
000000
000000
000000
000000
000000
000000
000000
ENDCHAR

STARTCHAR char_0x00B4
ENCODING 180
SWIDTH 1870 0
DWIDTH 20 0
BBX 20 20 0 -5
BITMAP
000000
00FC00
03F000
000000
000000
000000
000000
000000
000000
000000
000000
000000
000000
000000
000000
000000
000000
000000
000000
000000
ENDCHAR

STARTCHAR char_0x00B5
ENCODING 181
SWIDTH 1870 0
DWIDTH 20 0
BBX 20 20 0 -5
BITMAP
000000
000000
000000
000000
000000
000000
000000
0FCFC0
0FCFC0
0FCFC0
0FCFC0
0FCFC0
0FCFC0
0FCFC0
0FFEE0
1E0000
3C0000
000000
000000
000000
ENDCHAR

STARTCHAR char_0x00B6
ENCODING 182
SWIDTH 1870 0
DWIDTH 20 0
BBX 20 20 0 -5
BITMAP
000000
000000
000000
03FFE0
0FCFC0
3FCFC0
3FCFC0
3FCFC0
3FCFC0
0FCFC0
03CFC0
03CFC0
03CFC0
03CFC0
03CFC0
03CFC0
000000
000000
000000
000000
ENDCHAR

STARTCHAR char_0x00B7
ENCODING 183
SWIDTH 1870 0
DWIDTH 20 0
BBX 20 20 0 -5
BITMAP
000000
000000
000000
000000
000000
000000
000000
000000
03F000
03F000
03F000
000000
000000
000000
000000
000000
000000
000000
000000
000000
ENDCHAR

STARTCHAR char_0x00B8
ENCODING 184
SWIDTH 1870 0
DWIDTH 20 0
BBX 20 20 0 -5
BITMAP
000000
000000
000000
000000
000000
000000
000000
000000
000000
000000
000000
000000
000000
003F00
003F00
003E00
03FC00
000000
000000
000000
ENDCHAR

STARTCHAR char_0x00B9
ENCODING 185
SWIDTH 1870 0
DWIDTH 20 0
BBX 20 20 0 -5
BITMAP
000000
000000
000000
03F000
07F000
0FF000
03F000
03F000
03F000
0FFC00
000000
000000
000000
000000
000000
000000
000000
000000
000000
000000
ENDCHAR

STARTCHAR char_0x00BA
ENCODING 186
SWIDTH 1870 0
DWIDTH 20 0
BBX 20 20 0 -5
BITMAP
000000
000000
000000
1FF800
3CFC00
3CFC00
3CFC00
3CFC00
1FF800
000000
3FFC00
000000
000000
000000
000000
000000
000000
000000
000000
000000
ENDCHAR

STARTCHAR char_0x00BB
ENCODING 187
SWIDTH 1870 0
DWIDTH 20 0
BBX 20 20 0 -5
BITMAP
000000
000000
000000
000000
000000
000000
787800
7E7E00
1F9F80
07E7E0
1F9F80
7E7E00
787800
000000
000000
000000
000000
000000
000000
000000
ENDCHAR

STARTCHAR char_0x00BC
ENCODING 188
SWIDTH 1870 0
DWIDTH 20 0
BBX 20 20 0 -5
BITMAP
000000
000000
000000
1F8000
3F8060
7F81E0
1F8780
1F9E60
1FF9E0
7FE7E0
079FE0
1E7FE0
79E7E0
67FFE0
0007E0
0007E0
000000
000000
000000
000000
ENDCHAR

STARTCHAR char_0x00BD
ENCODING 189
SWIDTH 1870 0
DWIDTH 20 0
BBX 20 20 0 -5
BITMAP
000000
000000
000000
1F8000
3F8060
7F81E0
1F8780
1F9E00
1FFF80
7FFFE0
07E7E0
1E0FE0
781FC0
603F80
007F00
007FE0
000000
000000
000000
000000
ENDCHAR

STARTCHAR char_0x00BE
ENCODING 190
SWIDTH 1870 0
DWIDTH 20 0
BBX 20 20 0 -5
BITMAP
000000
000000
0FE000
1FF000
00F000
03E3C0
00FF00
1FFC00
0FF3C0
03CFC0
0F3FC0
3CF3C0
33FFF0
0003C0
0003C0
000000
000000
000000
000000
000000
ENDCHAR

STARTCHAR char_0x00BF
ENCODING 191
SWIDTH 1870 0
DWIDTH 20 0
BBX 20 20 0 -5
BITMAP
000000
000000
000000
000000
01E000
03F000
01E000
000000
00E000
00F800
007E00
003F80
1E1FC0
3F0FC0
3F9FC0
0FFF80
000000
000000
000000
000000
ENDCHAR

STARTCHAR char_0x00C0
ENCODING 192
SWIDTH 1870 0
DWIDTH 20 0
BBX 20 20 0 -5
BITMAP
000000
03F000
01F800
000000
00F000
03FC00
0F9F00
3F0FC0
3F0FC0
3F0FC0
3FFFC0
3F0FC0
3F0FC0
3F0FC0
3F0FC0
000000
000000
000000
000000
000000
ENDCHAR

STARTCHAR char_0x00C1
ENCODING 193
SWIDTH 1870 0
DWIDTH 20 0
BBX 20 20 0 -5
BITMAP
000000
007E00
00FC00
000000
00F000
03FC00
0F9F00
3F0FC0
3F0FC0
3F0FC0
3FFFC0
3F0FC0
3F0FC0
3F0FC0
3F0FC0
000000
000000
000000
000000
000000
ENDCHAR

STARTCHAR char_0x00C2
ENCODING 194
SWIDTH 1870 0
DWIDTH 20 0
BBX 20 20 0 -5
BITMAP
000000
03FC00
0F9F00
000000
00F000
03FC00
0F9F00
3F0FC0
3F0FC0
3F0FC0
3FFFC0
3F0FC0
3F0FC0
3F0FC0
3F0FC0
000000
000000
000000
000000
000000
ENDCHAR

STARTCHAR char_0x00C3
ENCODING 195
SWIDTH 1870 0
DWIDTH 20 0
BBX 20 20 0 -5
BITMAP
000000
07F300
0CFE00
000000
00F000
03FC00
0F9F00
3F0FC0
3F0FC0
3F0FC0
3FFFC0
3F0FC0
3F0FC0
3F0FC0
3F0FC0
000000
000000
000000
000000
000000
ENDCHAR

STARTCHAR char_0x00C4
ENCODING 196
SWIDTH 1870 0
DWIDTH 20 0
BBX 20 20 0 -5
BITMAP
000000
3F0FC0
3F0FC0
000000
00F000
03FC00
0F9F00
3F0FC0
3F0FC0
3F0FC0
3FFFC0
3F0FC0
3F0FC0
3F0FC0
3F0FC0
000000
000000
000000
000000
000000
ENDCHAR

STARTCHAR char_0x00C5
ENCODING 197
SWIDTH 1870 0
DWIDTH 20 0
BBX 20 20 0 -5
BITMAP
000000
01F800
01F800
000000
00F000
03FC00
0F9F00
3F0FC0
3F0FC0
3F0FC0
3FFFC0
3F0FC0
3F0FC0
3F0FC0
3F0FC0
000000
000000
000000
000000
000000
ENDCHAR

STARTCHAR char_0x00C6
ENCODING 198
SWIDTH 1870 0
DWIDTH 20 0
BBX 20 20 0 -5
BITMAP
000000
000000
000000
000000
00FFF0
03FF00
0F3F00
3F3F00
3F3F00
3FFFC0
3F3F00
3F3F00
3F3F00
3F3F00
3F3FF0
000000
000000
000000
000000
000000
ENDCHAR

STARTCHAR char_0x00C7
ENCODING 199
SWIDTH 1870 0
DWIDTH 20 0
BBX 20 20 0 -5
BITMAP
000000
000000
000000
000000
0FFF80
1F87C0
3F03C0
3F0000
3F0000
3F0000
3F0000
3F0000
3F03C0
1F87C0
0FFF80
003E00
00F800
000000
000000
000000
ENDCHAR

STARTCHAR char_0x00C8
ENCODING 200
SWIDTH 1870 0
DWIDTH 20 0
BBX 20 20 0 -5
BITMAP
000000
01F800
00FC00
000000
3FFFC0
3F0000
3F0000
3F0000
3F0000
3FFC00
3F0000
3F0000
3F0000
3F0000
3FFFC0
000000
000000
000000
000000
000000
ENDCHAR

STARTCHAR char_0x00C9
ENCODING 201
SWIDTH 1870 0
DWIDTH 20 0
BBX 20 20 0 -5
BITMAP
000000
01F800
03F000
000000
3FFFC0
3F0000
3F0000
3F0000
3F0000
3FFC00
3F0000
3F0000
3F0000
3F0000
3FFFC0
000000
000000
000000
000000
000000
ENDCHAR

STARTCHAR char_0x00CA
ENCODING 202
SWIDTH 1870 0
DWIDTH 20 0
BBX 20 20 0 -5
BITMAP
000000
03FC00
0F9F00
000000
3FFFC0
3F0000
3F0000
3F0000
3F0000
3FFC00
3F0000
3F0000
3F0000
3F0000
3FFFC0
000000
000000
000000
000000
000000
ENDCHAR

STARTCHAR char_0x00CB
ENCODING 203
SWIDTH 1870 0
DWIDTH 20 0
BBX 20 20 0 -5
BITMAP
000000
3F0FC0
3F0FC0
000000
3FFFC0
3F0000
3F0000
3F0000
3F0000
3FFC00
3F0000
3F0000
3F0000
3F0000
3FFFC0
000000
000000
000000
000000
000000
ENDCHAR

STARTCHAR char_0x00CC
ENCODING 204
SWIDTH 1870 0
DWIDTH 20 0
BBX 20 20 0 -5
BITMAP
000000
03F000
01F800
000000
7FFFE0
01F800
01F800
01F800
01F800
01F800
01F800
01F800
01F800
01F800
7FFFE0
000000
000000
000000
000000
000000
ENDCHAR

STARTCHAR char_0x00CD
ENCODING 205
SWIDTH 1870 0
DWIDTH 20 0
BBX 20 20 0 -5
BITMAP
000000
00FC00
01F800
000000
7FFFE0
01F800
01F800
01F800
01F800
01F800
01F800
01F800
01F800
01F800
7FFFE0
000000
000000
000000
000000
000000
ENDCHAR

STARTCHAR char_0x00CE
ENCODING 206
SWIDTH 1870 0
DWIDTH 20 0
BBX 20 20 0 -5
BITMAP
000000
03FC00
0F9F00
000000
7FFFE0
01F800
01F800
01F800
01F800
01F800
01F800
01F800
01F800
01F800
7FFFE0
000000
000000
000000
000000
000000
ENDCHAR

STARTCHAR char_0x00CF
ENCODING 207
SWIDTH 1870 0
DWIDTH 20 0
BBX 20 20 0 -5
BITMAP
000000
1F9F80
1F9F80
000000
7FFFE0
01F800
01F800
01F800
01F800
01F800
01F800
01F800
01F800
01F800
7FFFE0
000000
000000
000000
000000
000000
ENDCHAR

STARTCHAR char_0x00D0
ENCODING 208
SWIDTH 1870 0
DWIDTH 20 0
BBX 20 20 0 -5
BITMAP
000000
000000
000000
000000
0FFE00
0FC780
0FC3C0
0FC3C0
3FF3C0
3FF3C0
0FC3C0
0FC3C0
0FC3C0
0FC780
0FFE00
000000
000000
000000
000000
000000
ENDCHAR

STARTCHAR char_0x00D1
ENCODING 209
SWIDTH 1870 0
DWIDTH 20 0
BBX 20 20 0 -5
BITMAP
000000
0FF980
19FF00
000000
7E07E0
7F07E0
7F87E0
7FC7E0
7FE7E0
7EF7E0
7E7FE0
7E3FE0
7E1FE0
7E0FE0
7E07E0
000000
000000
000000
000000
000000
ENDCHAR

STARTCHAR char_0x00D2
ENCODING 210
SWIDTH 1870 0
DWIDTH 20 0
BBX 20 20 0 -5
BITMAP
000000
03F000
01F800
000000
1FFF80
3F9FC0
3F0FC0
3F0FC0
3F0FC0
3F0FC0
3F0FC0
3F0FC0
3F0FC0
3F9FC0
1FFF80
000000
000000
000000
000000
000000
ENDCHAR

STARTCHAR char_0x00D3
ENCODING 211
SWIDTH 1870 0
DWIDTH 20 0
BBX 20 20 0 -5
BITMAP
000000
00FC00
01F800
000000
1FFF80
3F9FC0
3F0FC0
3F0FC0
3F0FC0
3F0FC0
3F0FC0
3F0FC0
3F0FC0
3F9FC0
1FFF80
000000
000000
000000
000000
000000
ENDCHAR

STARTCHAR char_0x00D4
ENCODING 212
SWIDTH 1870 0
DWIDTH 20 0
BBX 20 20 0 -5
BITMAP
000000
03FC00
0F9F00
000000
1FFF80
3F9FC0
3F0FC0
3F0FC0
3F0FC0
3F0FC0
3F0FC0
3F0FC0
3F0FC0
3F9FC0
1FFF80
000000
000000
000000
000000
000000
ENDCHAR

STARTCHAR char_0x00D5
ENCODING 213
SWIDTH 1870 0
DWIDTH 20 0
BBX 20 20 0 -5
BITMAP
000000
07F300
0CFE00
000000
1FFF80
3F9FC0
3F0FC0
3F0FC0
3F0FC0
3F0FC0
3F0FC0
3F0FC0
3F0FC0
3F9FC0
1FFF80
000000
000000
000000
000000
000000
ENDCHAR

STARTCHAR char_0x00D6
ENCODING 214
SWIDTH 1870 0
DWIDTH 20 0
BBX 20 20 0 -5
BITMAP
000000
3F0FC0
3F0FC0
000000
1FFF80
3F9FC0
3F0FC0
3F0FC0
3F0FC0
3F0FC0
3F0FC0
3F0FC0
3F0FC0
3F9FC0
1FFF80
000000
000000
000000
000000
000000
ENDCHAR

STARTCHAR char_0x00D7
ENCODING 215
SWIDTH 1870 0
DWIDTH 20 0
BBX 20 20 0 -5
BITMAP
000000
000000
000000
000000
000000
000000
0F03C0
0FCFC0
03FF00
00FC00
03FF00
0FCFC0
0F03C0
000000
000000
000000
000000
000000
000000
000000
ENDCHAR

STARTCHAR char_0x00D8
ENCODING 216
SWIDTH 1870 0
DWIDTH 20 0
BBX 20 20 0 -5
BITMAP
000000
000000
000000
0000C0
0FFF80
1F9F80
1F0F80
1F1F80
1F3F80
1F6F80
1FCF80
1F8F80
1F0F80
1F9F80
1FFF00
180000
000000
000000
000000
000000
ENDCHAR

STARTCHAR char_0x00D9
ENCODING 217
SWIDTH 1870 0
DWIDTH 20 0
BBX 20 20 0 -5
BITMAP
000000
03F000
01F800
000000
3F0FC0
3F0FC0
3F0FC0
3F0FC0
3F0FC0
3F0FC0
3F0FC0
3F0FC0
3F0FC0
3F0FC0
1FFF80
000000
000000
000000
000000
000000
ENDCHAR

STARTCHAR char_0x00DA
ENCODING 218
SWIDTH 1870 0
DWIDTH 20 0
BBX 20 20 0 -5
BITMAP
000000
00FC00
01F800
000000
3F0FC0
3F0FC0
3F0FC0
3F0FC0
3F0FC0
3F0FC0
3F0FC0
3F0FC0
3F0FC0
3F0FC0
1FFF80
000000
000000
000000
000000
000000
ENDCHAR

STARTCHAR char_0x00DB
ENCODING 219
SWIDTH 1870 0
DWIDTH 20 0
BBX 20 20 0 -5
BITMAP
000000
03FC00
0F9F00
000000
3F0FC0
3F0FC0
3F0FC0
3F0FC0
3F0FC0
3F0FC0
3F0FC0
3F0FC0
3F0FC0
3F0FC0
1FFF80
000000
000000
000000
000000
000000
ENDCHAR

STARTCHAR char_0x00DC
ENCODING 220
SWIDTH 1870 0
DWIDTH 20 0
BBX 20 20 0 -5
BITMAP
000000
3F0FC0
3F0FC0
000000
3F0FC0
3F0FC0
3F0FC0
3F0FC0
3F0FC0
3F0FC0
3F0FC0
3F0FC0
3F0FC0
3F0FC0
1FFF80
000000
000000
000000
000000
000000
ENDCHAR

STARTCHAR char_0x00DD
ENCODING 221
SWIDTH 1870 0
DWIDTH 20 0
BBX 20 20 0 -5
BITMAP
000000
007C00
00F800
000000
7E07E0
7E07E0
7E07E0
7E07E0
3F0FC0
0FFF00
01F800
01F800
01F800
01F800
01F800
000000
000000
000000
000000
000000
ENDCHAR

STARTCHAR char_0x00DE
ENCODING 222
SWIDTH 1870 0
DWIDTH 20 0
BBX 20 20 0 -5
BITMAP
000000
000000
000000
000000
7FE000
1F8000
1FFE00
1F9F80
1F87C0
1F87C0
1F9F80
1FFE00
1F8000
1F8000
7FE000
000000
000000
000000
000000
000000
ENDCHAR

STARTCHAR char_0x00DF
ENCODING 223
SWIDTH 1870 0
DWIDTH 20 0
BBX 20 20 0 -5
BITMAP
000000
000000
000000
0FF000
07C000
0CF000
00FC00
03FF00
0FFFC0
3F1FC0
3E0FC0
3E0FC0
3F1FC0
1FFF80
07FF00
000000
000000
000000
000000
000000
ENDCHAR

STARTCHAR char_0x00E0
ENCODING 224
SWIDTH 1870 0
DWIDTH 20 0
BBX 20 20 0 -5
BITMAP
000000
000000
000000
000000
03F000
01F800
000000
0FFF00
1E1F80
001F80
3FFF80
7E1F80
7E1F80
7E1F80
3FFFE0
000000
000000
000000
000000
000000
ENDCHAR

STARTCHAR char_0x00E1
ENCODING 225
SWIDTH 1870 0
DWIDTH 20 0
BBX 20 20 0 -5
BITMAP
000000
000000
000000
000000
00FC00
01F800
000000
0FFF00
1E1F80
001F80
3FFF80
7E1F80
7E1F80
7E1F80
3FFFE0
000000
000000
000000
000000
000000
ENDCHAR

STARTCHAR char_0x00E2
ENCODING 226
SWIDTH 1870 0
DWIDTH 20 0
BBX 20 20 0 -5
BITMAP
000000
000000
000000
000000
03FC00
0F9F00
000000
0FFF00
1E1F80
001F80
3FFF80
7E1F80
7E1F80
7E1F80
3FFFE0
000000
000000
000000
000000
000000
ENDCHAR

STARTCHAR char_0x00E3
ENCODING 227
SWIDTH 1870 0
DWIDTH 20 0
BBX 20 20 0 -5
BITMAP
000000
000000
000000
000000
0FF980
19FF00
000000
0FFF00
1E1F80
001F80
3FFF80
7E1F80
7E1F80
7E1F80
3FFFE0
000000
000000
000000
000000
000000
ENDCHAR

STARTCHAR char_0x00E4
ENCODING 228
SWIDTH 1870 0
DWIDTH 20 0
BBX 20 20 0 -5
BITMAP
000000
000000
000000
000000
1F9F80
1F9F80
000000
0FFF00
1E1F80
001F80
3FFF80
7E1F80
7E1F80
7E1F80
3FFFE0
000000
000000
000000
000000
000000
ENDCHAR

STARTCHAR char_0x00E5
ENCODING 229
SWIDTH 1870 0
DWIDTH 20 0
BBX 20 20 0 -5
BITMAP
000000
000000
000000
000000
01F800
01F800
000000
0FFF00
1E1F80
001F80
3FFF80
7E1F80
7E1F80
7E1F80
3FFFE0
000000
000000
000000
000000
000000
ENDCHAR

STARTCHAR char_0x00E6
ENCODING 230
SWIDTH 1870 0
DWIDTH 20 0
BBX 20 20 0 -5
BITMAP
000000
000000
000000
000000
000000
000000
000000
3F9FC0
79FFE0
01F860
3FFFE0
79F800
79F800
79F8E0
3FFFC0
000000
000000
000000
000000
000000
ENDCHAR

STARTCHAR char_0x00E7
ENCODING 231
SWIDTH 1870 0
DWIDTH 20 0
BBX 20 20 0 -5
BITMAP
000000
000000
000000
000000
000000
000000
000000
0FFF80
1F87C0
3F03C0
3F0000
3F0000
3F03C0
1F87C0
0FFF80
003C00
00F000
000000
000000
000000
ENDCHAR

STARTCHAR char_0x00E8
ENCODING 232
SWIDTH 1870 0
DWIDTH 20 0
BBX 20 20 0 -5
BITMAP
000000
000000
000000
000000
03F000
01F800
000000
0FFF00
1F9F80
3F0FC0
3FFFC0
3F0000
3F07C0
1F8FC0
0FFF80
000000
000000
000000
000000
000000
ENDCHAR

STARTCHAR char_0x00E9
ENCODING 233
SWIDTH 1870 0
DWIDTH 20 0
BBX 20 20 0 -5
BITMAP
000000
000000
000000
000000
007E00
00FC00
000000
0FFF00
1F9F80
3F0FC0
3FFFC0
3F0000
3F07C0
1F8FC0
0FFF80
000000
000000
000000
000000
000000
ENDCHAR

STARTCHAR char_0x00EA
ENCODING 234
SWIDTH 1870 0
DWIDTH 20 0
BBX 20 20 0 -5
BITMAP
000000
000000
000000
000000
03FC00
0F9F00
000000
0FFF00
1F9F80
3F0FC0
3FFFC0
3F0000
3F0FC0
1F9FC0
0FFF80
000000
000000
000000
000000
000000
ENDCHAR

STARTCHAR char_0x00EB
ENCODING 235
SWIDTH 1870 0
DWIDTH 20 0
BBX 20 20 0 -5
BITMAP
000000
000000
000000
000000
3F0FC0
3F0FC0
000000
0FFF00
1F9F80
3F0FC0
3FFFC0
3F0000
3F0FC0
1F9FC0
0FFF80
000000
000000
000000
000000
000000
ENDCHAR

STARTCHAR char_0x00EC
ENCODING 236
SWIDTH 1870 0
DWIDTH 20 0
BBX 20 20 0 -5
BITMAP
000000
000000
000000
000000
03F000
01F800
000000
1FF800
01F800
01F800
01F800
01F800
01F800
01F800
7FFFE0
000000
000000
000000
000000
000000
ENDCHAR

STARTCHAR char_0x00ED
ENCODING 237
SWIDTH 1870 0
DWIDTH 20 0
BBX 20 20 0 -5
BITMAP
000000
000000
000000
000000
00FC00
01F800
000000
1FF800
01F800
01F800
01F800
01F800
01F800
01F800
7FFFE0
000000
000000
000000
000000
000000
ENDCHAR

STARTCHAR char_0x00EE
ENCODING 238
SWIDTH 1870 0
DWIDTH 20 0
BBX 20 20 0 -5
BITMAP
000000
000000
000000
000000
03FC00
0F9F00
000000
1FF800
01F800
01F800
01F800
01F800
01F800
01F800
7FFFE0
000000
000000
000000
000000
000000
ENDCHAR

STARTCHAR char_0x00EF
ENCODING 239
SWIDTH 1870 0
DWIDTH 20 0
BBX 20 20 0 -5
BITMAP
000000
000000
000000
000000
1F9F80
1F9F80
000000
1FF800
01F800
01F800
01F800
01F800
01F800
01F800
7FFFE0
000000
000000
000000
000000
000000
ENDCHAR

STARTCHAR char_0x00F0
ENCODING 240
SWIDTH 1870 0
DWIDTH 20 0
BBX 20 20 0 -5
BITMAP
000000
000000
000000
0FF000
07C000
0CF000
00FC00
03FF00
0FFFC0
3F1FC0
3E0FC0
3E0FC0
3F1FC0
1FFF80
07FF00
000000
000000
000000
000000
000000
ENDCHAR

STARTCHAR char_0x00F1
ENCODING 241
SWIDTH 1870 0
DWIDTH 20 0
BBX 20 20 0 -5
BITMAP
000000
000000
000000
000000
07F300
0CFE00
000000
3F7F80
3FFFC0
3F0FC0
3F0FC0
3F0FC0
3F0FC0
3F0FC0
3F0FC0
000000
000000
000000
000000
000000
ENDCHAR

STARTCHAR char_0x00F2
ENCODING 242
SWIDTH 1870 0
DWIDTH 20 0
BBX 20 20 0 -5
BITMAP
000000
000000
000000
000000
03F000
01F800
000000
1FFF80
3F9FC0
3F0FC0
3F0FC0
3F0FC0
3F0FC0
3F9FC0
1FFF80
000000
000000
000000
000000
000000
ENDCHAR

STARTCHAR char_0x00F3
ENCODING 243
SWIDTH 1870 0
DWIDTH 20 0
BBX 20 20 0 -5
BITMAP
000000
000000
000000
000000
00FC00
01F800
000000
1FFF80
3F9FC0
3F0FC0
3F0FC0
3F0FC0
3F0FC0
3F9FC0
1FFF80
000000
000000
000000
000000
000000
ENDCHAR

STARTCHAR char_0x00F4
ENCODING 244
SWIDTH 1870 0
DWIDTH 20 0
BBX 20 20 0 -5
BITMAP
000000
000000
000000
000000
03FE00
0F9F80
000000
1FFF80
3F9FC0
3F0FC0
3F0FC0
3F0FC0
3F0FC0
3F9FC0
1FFF80
000000
000000
000000
000000
000000
ENDCHAR

STARTCHAR char_0x00F5
ENCODING 245
SWIDTH 1870 0
DWIDTH 20 0
BBX 20 20 0 -5
BITMAP
000000
000000
000000
000000
07F300
0CFE00
000000
1FFF80
3F9FC0
3F0FC0
3F0FC0
3F0FC0
3F0FC0
3F9FC0
1FFF80
000000
000000
000000
000000
000000
ENDCHAR

STARTCHAR char_0x00F6
ENCODING 246
SWIDTH 1870 0
DWIDTH 20 0
BBX 20 20 0 -5
BITMAP
000000
000000
000000
000000
3F0FC0
3F0FC0
000000
1FFF80
3F9FC0
3F0FC0
3F0FC0
3F0FC0
3F0FC0
3F9FC0
1FFF80
000000
000000
000000
000000
000000
ENDCHAR

STARTCHAR char_0x00F7
ENCODING 247
SWIDTH 1870 0
DWIDTH 20 0
BBX 20 20 0 -5
BITMAP
000000
000000
000000
000000
000000
00F000
00F000
000000
3FFFC0
3FFFC0
000000
00F000
00F000
000000
000000
000000
000000
000000
000000
000000
ENDCHAR

STARTCHAR char_0x00F8
ENCODING 248
SWIDTH 1870 0
DWIDTH 20 0
BBX 20 20 0 -5
BITMAP
000000
000000
000000
000000
000000
000000
000180
01FF00
07CF80
0F9FC0
0FBFC0
0FF7C0
0FE7C0
07CF80
03FE00
060000
000000
000000
000000
000000
ENDCHAR

STARTCHAR char_0x00F9
ENCODING 249
SWIDTH 1870 0
DWIDTH 20 0
BBX 20 20 0 -5
BITMAP
000000
000000
000000
000000
03F000
01F800
000000
3F0FC0
3F0FC0
3F0FC0
3F0FC0
3F0FC0
3F0FC0
3F1FC0
1FEFC0
000000
000000
000000
000000
000000
ENDCHAR

STARTCHAR char_0x00FA
ENCODING 250
SWIDTH 1870 0
DWIDTH 20 0
BBX 20 20 0 -5
BITMAP
000000
000000
000000
000000
00FC00
01F800
000000
3F0FC0
3F0FC0
3F0FC0
3F0FC0
3F0FC0
3F0FC0
3F1FC0
1FEFC0
000000
000000
000000
000000
000000
ENDCHAR

STARTCHAR char_0x00FB
ENCODING 251
SWIDTH 1870 0
DWIDTH 20 0
BBX 20 20 0 -5
BITMAP
000000
000000
000000
000000
03FC00
0F9F00
000000
3F0FC0
3F0FC0
3F0FC0
3F0FC0
3F0FC0
3F0FC0
3F1FC0
1FEFC0
000000
000000
000000
000000
000000
ENDCHAR

STARTCHAR char_0x00FC
ENCODING 252
SWIDTH 1870 0
DWIDTH 20 0
BBX 20 20 0 -5
BITMAP
000000
000000
000000
000000
3F0FC0
3F0FC0
000000
3F0FC0
3F0FC0
3F0FC0
3F0FC0
3F0FC0
3F0FC0
3F1FC0
1FEFC0
000000
000000
000000
000000
000000
ENDCHAR

STARTCHAR char_0x00FD
ENCODING 253
SWIDTH 1870 0
DWIDTH 20 0
BBX 20 20 0 -5
BITMAP
000000
000000
000000
000000
007C00
00F800
000000
3F0FC0
3F0FC0
3F0FC0
3F0FC0
3F0FC0
3F0FC0
1F8FC0
0FFFC0
000FC0
3C0FC0
3C1F80
1FFF00
000000
ENDCHAR

STARTCHAR char_0x00FE
ENCODING 254
SWIDTH 1870 0
DWIDTH 20 0
BBX 20 20 0 -5
BITMAP
000000
000000
000000
000000
000000
000000
000000
7FE000
1F8000
1FFE00
1F9F80
1F87C0
1F87C0
1F9F80
1FFE00
1F8000
1F8000
1F8000
7FE000
000000
ENDCHAR

STARTCHAR char_0x00FF
ENCODING 255
SWIDTH 1870 0
DWIDTH 20 0
BBX 20 20 0 -5
BITMAP
000000
000000
000000
000000
3F0FC0
3F0FC0
000000
3F0FC0
3F0FC0
3F0FC0
3F0FC0
3F0FC0
3F0FC0
1F8FC0
0FFFC0
000FC0
3C0FC0
3C1F80
1FFF00
000000
ENDCHAR

ENDFONT
