STARTFONT 2.1
FONT -DIGITAL-VWSVT0-Bold-R-Wide--20-190-75-75-C-120-ISO8859-1
SIZE 19 75 75
FONTBOUNDINGBOX 12 20 0 -5

STARTPROPERTIES 25
FONTNAME_REGISTRY ""
FAMILY_NAME "VWSVT0"
FOUNDRY_NAME "DIGITAL"
WEIGHT_NAME "Bold"
SETWIDTH_NAME "Wide"
SLANT "R"
ADD_STYLE_NAME ""
PIXEL_SIZE 20
POINT_SIZE 190
RESOLUTION_X 75
RESOLUTION_Y 75
SPACING "C"
AVERAGE_WIDTH 120
CHARSET_REGISTRY "ISO8859"
CHARSET_ENCODING "1"
CHARSET_COLLECTIONS "ASCII ISO8859-1"
FULL_NAME "VWSVT0"
COPYRIGHT "Copyright ©1990 by Digital Equipment Corporation"
CAP_HEIGHT 11
X_HEIGHT 8
WEIGHT 10
QUAD_WIDTH 12
DEFAULT_CHAR 0
FONT_DESCENT 5
FONT_ASCENT 15
ENDPROPERTIES

CHARS 193

STARTCHAR char_0x0020
ENCODING 32
SWIDTH 1122 0
DWIDTH 12 0
BBX 12 20 0 -5
BITMAP
0000
0000
0000
0000
0000
0000
0000
0000
0000
0000
0000
0000
0000
0000
0000
0000
0000
0000
0000
0000
ENDCHAR

STARTCHAR char_0x0021
ENCODING 33
SWIDTH 1122 0
DWIDTH 12 0
BBX 12 20 0 -5
BITMAP
0000
0000
0000
0000
0F00
0F00
0F00
0F00
0F00
0F00
0F00
0600
0000
0F00
0F00
0000
0000
0000
0000
0000
ENDCHAR

STARTCHAR char_0x0022
ENCODING 34
SWIDTH 1122 0
DWIDTH 12 0
BBX 12 20 0 -5
BITMAP
0000
79E0
79E0
39C0
0000
0000
0000
0000
0000
0000
0000
0000
0000
0000
0000
0000
0000
0000
0000
0000
ENDCHAR

STARTCHAR char_0x0023
ENCODING 35
SWIDTH 1122 0
DWIDTH 12 0
BBX 12 20 0 -5
BITMAP
0000
0000
0000
0000
0000
1980
1980
7FE0
7FE0
1980
1980
7FE0
7FE0
1980
1980
0000
0000
0000
0000
0000
ENDCHAR

STARTCHAR char_0x0024
ENCODING 36
SWIDTH 1122 0
DWIDTH 12 0
BBX 12 20 0 -5
BITMAP
0000
0000
0000
0000
0600
0600
3FC0
79E0
7800
3FC0
01E0
79E0
3FC0
0600
0600
0000
0000
0000
0000
0000
ENDCHAR

STARTCHAR char_0x0025
ENCODING 37
SWIDTH 1122 0
DWIDTH 12 0
BBX 12 20 0 -5
BITMAP
0000
0000
0000
0000
7860
78E0
01E0
03C0
0780
0F00
1E00
3C00
7800
71E0
61E0
0000
0000
0000
0000
0000
ENDCHAR

STARTCHAR char_0x0026
ENCODING 38
SWIDTH 1122 0
DWIDTH 12 0
BBX 12 20 0 -5
BITMAP
0000
0000
0000
0000
0FC0
19E0
19E0
19E0
0FC0
39F0
79F0
79E0
79E0
7FE0
3FE0
0000
0000
0000
0000
0000
ENDCHAR

STARTCHAR char_0x0027
ENCODING 39
SWIDTH 1122 0
DWIDTH 12 0
BBX 12 20 0 -5
BITMAP
0000
0380
0780
0F00
0E00
0000
0000
0000
0000
0000
0000
0000
0000
0000
0000
0000
0000
0000
0000
0000
ENDCHAR

STARTCHAR char_0x0028
ENCODING 40
SWIDTH 1122 0
DWIDTH 12 0
BBX 12 20 0 -5
BITMAP
0000
0000
0000
03C0
0F00
1E00
3C00
3C00
3C00
3C00
3C00
3C00
3C00
1E00
0F00
03C0
0000
0000
0000
0000
ENDCHAR

STARTCHAR char_0x0029
ENCODING 41
SWIDTH 1122 0
DWIDTH 12 0
BBX 12 20 0 -5
BITMAP
0000
0000
0000
3C00
0F00
0780
03C0
03C0
03C0
03C0
03C0
03C0
03C0
0780
0F00
3C00
0000
0000
0000
0000
ENDCHAR

STARTCHAR char_0x002A
ENCODING 42
SWIDTH 1122 0
DWIDTH 12 0
BBX 12 20 0 -5
BITMAP
0000
0000
0000
0000
0600
2640
1680
0F00
7FE0
7FE0
0F00
1680
2640
0600
0000
0000
0000
0000
0000
0000
ENDCHAR

STARTCHAR char_0x002B
ENCODING 43
SWIDTH 1122 0
DWIDTH 12 0
BBX 12 20 0 -5
BITMAP
0000
0000
0000
0000
0000
0F00
0F00
0F00
3FC0
3FC0
0F00
0F00
0F00
0000
0000
0000
0000
0000
0000
0000
ENDCHAR

STARTCHAR char_0x002C
ENCODING 44
SWIDTH 1122 0
DWIDTH 12 0
BBX 12 20 0 -5
BITMAP
0000
0000
0000
0000
0000
0000
0000
0000
0000
0000
0000
0000
0000
0F00
0F00
1E00
0000
0000
0000
0000
ENDCHAR

STARTCHAR char_0x002D
ENCODING 45
SWIDTH 1122 0
DWIDTH 12 0
BBX 12 20 0 -5
BITMAP
0000
0000
0000
0000
0000
0000
0000
0000
7FE0
7FE0
0000
0000
0000
0000
0000
0000
0000
0000
0000
0000
ENDCHAR

STARTCHAR char_0x002E
ENCODING 46
SWIDTH 1122 0
DWIDTH 12 0
BBX 12 20 0 -5
BITMAP
0000
0000
0000
0000
0000
0000
0000
0000
0000
0000
0000
0000
0000
0F00
0F00
0000
0000
0000
0000
0000
ENDCHAR

STARTCHAR char_0x002F
ENCODING 47
SWIDTH 1122 0
DWIDTH 12 0
BBX 12 20 0 -5
BITMAP
0000
0000
0000
0000
0070
00F0
01F0
03E0
07C0
0F80
1F00
3E00
7C00
7800
7000
0000
0000
0000
0000
0000
ENDCHAR

STARTCHAR char_0x0030
ENCODING 48
SWIDTH 1122 0
DWIDTH 12 0
BBX 12 20 0 -5
BITMAP
0000
0000
0000
0000
0F00
39C0
79E0
79E0
79E0
79E0
79E0
79E0
79E0
39C0
0F00
0000
0000
0000
0000
0000
ENDCHAR

STARTCHAR char_0x0031
ENCODING 49
SWIDTH 1122 0
DWIDTH 12 0
BBX 12 20 0 -5
BITMAP
0000
0000
0000
0000
0380
0780
0F80
1F80
0780
0780
0780
0780
0780
0780
1FE0
0000
0000
0000
0000
0000
ENDCHAR

STARTCHAR char_0x0032
ENCODING 50
SWIDTH 1122 0
DWIDTH 12 0
BBX 12 20 0 -5
BITMAP
0000
0000
0000
0000
3FC0
79E0
79E0
01E0
03E0
0FC0
3F00
7C00
7800
7800
7FE0
0000
0000
0000
0000
0000
ENDCHAR

STARTCHAR char_0x0033
ENCODING 51
SWIDTH 1122 0
DWIDTH 12 0
BBX 12 20 0 -5
BITMAP
0000
0000
0000
0000
3FC0
79E0
79E0
01E0
01E0
07C0
01E0
01E0
79E0
79E0
3FC0
0000
0000
0000
0000
0000
ENDCHAR

STARTCHAR char_0x0034
ENCODING 52
SWIDTH 1122 0
DWIDTH 12 0
BBX 12 20 0 -5
BITMAP
0000
0000
0000
0000
01E0
03E0
07E0
0FE0
1FE0
3DE0
79E0
71E0
7FE0
01E0
01E0
0000
0000
0000
0000
0000
ENDCHAR

STARTCHAR char_0x0035
ENCODING 53
SWIDTH 1122 0
DWIDTH 12 0
BBX 12 20 0 -5
BITMAP
0000
0000
0000
0000
7FE0
7800
7800
7800
7FC0
01E0
01E0
01E0
79E0
79E0
3FC0
0000
0000
0000
0000
0000
ENDCHAR

STARTCHAR char_0x0036
ENCODING 54
SWIDTH 1122 0
DWIDTH 12 0
BBX 12 20 0 -5
BITMAP
0000
0000
0000
0000
3FC0
79E0
79E0
7800
7FC0
79E0
79E0
79E0
79E0
79E0
3FC0
0000
0000
0000
0000
0000
ENDCHAR

STARTCHAR char_0x0037
ENCODING 55
SWIDTH 1122 0
DWIDTH 12 0
BBX 12 20 0 -5
BITMAP
0000
0000
0000
0000
7FE0
79E0
79E0
01E0
03C0
0780
0F00
1E00
1E00
1E00
1E00
0000
0000
0000
0000
0000
ENDCHAR

STARTCHAR char_0x0038
ENCODING 56
SWIDTH 1122 0
DWIDTH 12 0
BBX 12 20 0 -5
BITMAP
0000
0000
0000
0000
3FC0
79E0
79E0
79E0
79E0
3FC0
79E0
79E0
79E0
79E0
3FC0
0000
0000
0000
0000
0000
ENDCHAR

STARTCHAR char_0x0039
ENCODING 57
SWIDTH 1122 0
DWIDTH 12 0
BBX 12 20 0 -5
BITMAP
0000
0000
0000
0000
3FC0
79E0
79E0
79E0
79E0
79E0
3FE0
01E0
79E0
79E0
3FC0
0000
0000
0000
0000
0000
ENDCHAR

STARTCHAR char_0x003A
ENCODING 58
SWIDTH 1122 0
DWIDTH 12 0
BBX 12 20 0 -5
BITMAP
0000
0000
0000
0000
0000
0000
0000
0F00
0F00
0000
0000
0000
0000
0F00
0F00
0000
0000
0000
0000
0000
ENDCHAR

STARTCHAR char_0x003B
ENCODING 59
SWIDTH 1122 0
DWIDTH 12 0
BBX 12 20 0 -5
BITMAP
0000
0000
0000
0000
0000
0000
0000
0F00
0F00
0000
0000
0000
0000
0F00
0F00
1E00
0000
0000
0000
0000
ENDCHAR

STARTCHAR char_0x003C
ENCODING 60
SWIDTH 1122 0
DWIDTH 12 0
BBX 12 20 0 -5
BITMAP
0000
0000
0000
0000
03C0
0780
0F00
1E00
3C00
3C00
1E00
0F00
0780
03C0
0000
0000
0000
0000
0000
0000
ENDCHAR

STARTCHAR char_0x003D
ENCODING 61
SWIDTH 1122 0
DWIDTH 12 0
BBX 12 20 0 -5
BITMAP
0000
0000
0000
0000
0000
0000
7FE0
7FE0
0000
7FE0
7FE0
0000
0000
0000
0000
0000
0000
0000
0000
0000
ENDCHAR

STARTCHAR char_0x003E
ENCODING 62
SWIDTH 1122 0
DWIDTH 12 0
BBX 12 20 0 -5
BITMAP
0000
0000
0000
0000
3C00
1E00
0F00
0780
03C0
03C0
0780
0F00
1E00
3C00
0000
0000
0000
0000
0000
0000
ENDCHAR

STARTCHAR char_0x003F
ENCODING 63
SWIDTH 1122 0
DWIDTH 12 0
BBX 12 20 0 -5
BITMAP
0000
0000
0000
0000
3FC0
79E0
79E0
01E0
03E0
0FC0
1F00
1E00
0000
1E00
1E00
0000
0000
0000
0000
0000
ENDCHAR

STARTCHAR char_0x0040
ENCODING 64
SWIDTH 1122 0
DWIDTH 12 0
BBX 12 20 0 -5
BITMAP
0000
0000
0000
0000
3FC0
79E0
79E0
7BE0
7FE0
7FE0
7FE0
7BC0
7800
7800
3F80
0000
0000
0000
0000
0000
ENDCHAR

STARTCHAR char_0x0041
ENCODING 65
SWIDTH 1122 0
DWIDTH 12 0
BBX 12 20 0 -5
BITMAP
0000
0000
0000
0000
0600
0F00
1F80
39C0
79E0
79E0
7FE0
79E0
79E0
79E0
79E0
0000
0000
0000
0000
0000
ENDCHAR

STARTCHAR char_0x0042
ENCODING 66
SWIDTH 1122 0
DWIDTH 12 0
BBX 12 20 0 -5
BITMAP
0000
0000
0000
0000
7FC0
79E0
79E0
79E0
79E0
7FC0
79E0
79E0
79E0
79E0
7FC0
0000
0000
0000
0000
0000
ENDCHAR

STARTCHAR char_0x0043
ENCODING 67
SWIDTH 1122 0
DWIDTH 12 0
BBX 12 20 0 -5
BITMAP
0000
0000
0000
0000
3FC0
79E0
79E0
7800
7800
7800
7800
7800
79E0
79E0
3FC0
0000
0000
0000
0000
0000
ENDCHAR

STARTCHAR char_0x0044
ENCODING 68
SWIDTH 1122 0
DWIDTH 12 0
BBX 12 20 0 -5
BITMAP
0000
0000
0000
0000
7FC0
79E0
79E0
79E0
79E0
79E0
79E0
79E0
79E0
79E0
7FC0
0000
0000
0000
0000
0000
ENDCHAR

STARTCHAR char_0x0045
ENCODING 69
SWIDTH 1122 0
DWIDTH 12 0
BBX 12 20 0 -5
BITMAP
0000
0000
0000
0000
7FE0
7800
7800
7800
7800
7F80
7800
7800
7800
7800
7FE0
0000
0000
0000
0000
0000
ENDCHAR

STARTCHAR char_0x0046
ENCODING 70
SWIDTH 1122 0
DWIDTH 12 0
BBX 12 20 0 -5
BITMAP
0000
0000
0000
0000
7FE0
7800
7800
7800
7800
7F80
7800
7800
7800
7800
7800
0000
0000
0000
0000
0000
ENDCHAR

STARTCHAR char_0x0047
ENCODING 71
SWIDTH 1122 0
DWIDTH 12 0
BBX 12 20 0 -5
BITMAP
0000
0000
0000
0000
3FC0
79E0
79E0
7800
7800
79E0
79E0
79E0
79E0
79E0
3FE0
0000
0000
0000
0000
0000
ENDCHAR

STARTCHAR char_0x0048
ENCODING 72
SWIDTH 1122 0
DWIDTH 12 0
BBX 12 20 0 -5
BITMAP
0000
0000
0000
0000
79E0
79E0
79E0
79E0
79E0
7FE0
79E0
79E0
79E0
79E0
79E0
0000
0000
0000
0000
0000
ENDCHAR

STARTCHAR char_0x0049
ENCODING 73
SWIDTH 1122 0
DWIDTH 12 0
BBX 12 20 0 -5
BITMAP
0000
0000
0000
0000
7FE0
0F00
0F00
0F00
0F00
0F00
0F00
0F00
0F00
0F00
7FE0
0000
0000
0000
0000
0000
ENDCHAR

STARTCHAR char_0x004A
ENCODING 74
SWIDTH 1122 0
DWIDTH 12 0
BBX 12 20 0 -5
BITMAP
0000
0000
0000
0000
07E0
01E0
01E0
01E0
01E0
01E0
01E0
01E0
79E0
79E0
3FC0
0000
0000
0000
0000
0000
ENDCHAR

STARTCHAR char_0x004B
ENCODING 75
SWIDTH 1122 0
DWIDTH 12 0
BBX 12 20 0 -5
BITMAP
0000
0000
0000
0000
7870
78E0
79C0
7B80
7F00
7E00
7F00
7F80
7BC0
79E0
78F0
0000
0000
0000
0000
0000
ENDCHAR

STARTCHAR char_0x004C
ENCODING 76
SWIDTH 1122 0
DWIDTH 12 0
BBX 12 20 0 -5
BITMAP
0000
0000
0000
0000
7800
7800
7800
7800
7800
7800
7800
7800
7800
7800
7FE0
0000
0000
0000
0000
0000
ENDCHAR

STARTCHAR char_0x004D
ENCODING 77
SWIDTH 1122 0
DWIDTH 12 0
BBX 12 20 0 -5
BITMAP
0000
0000
0000
0000
6060
70E0
79E0
7FE0
7FE0
7FE0
79E0
79E0
79E0
79E0
79E0
0000
0000
0000
0000
0000
ENDCHAR

STARTCHAR char_0x004E
ENCODING 78
SWIDTH 1122 0
DWIDTH 12 0
BBX 12 20 0 -5
BITMAP
0000
0000
0000
0000
61E0
71E0
79E0
7DE0
7FE0
7FE0
7FE0
7BE0
79E0
78E0
7860
0000
0000
0000
0000
0000
ENDCHAR

STARTCHAR char_0x004F
ENCODING 79
SWIDTH 1122 0
DWIDTH 12 0
BBX 12 20 0 -5
BITMAP
0000
0000
0000
0000
3FC0
79E0
79E0
79E0
79E0
79E0
79E0
79E0
79E0
79E0
3FC0
0000
0000
0000
0000
0000
ENDCHAR

STARTCHAR char_0x0050
ENCODING 80
SWIDTH 1122 0
DWIDTH 12 0
BBX 12 20 0 -5
BITMAP
0000
0000
0000
0000
7FC0
79E0
79E0
79E0
79E0
79E0
79E0
7FC0
7800
7800
7800
0000
0000
0000
0000
0000
ENDCHAR

STARTCHAR char_0x0051
ENCODING 81
SWIDTH 1122 0
DWIDTH 12 0
BBX 12 20 0 -5
BITMAP
0000
0000
0000
0000
3FC0
79E0
79E0
79E0
79E0
79E0
79E0
79E0
79E0
7BE0
3FC0
03E0
0000
0000
0000
0000
ENDCHAR

STARTCHAR char_0x0052
ENCODING 82
SWIDTH 1122 0
DWIDTH 12 0
BBX 12 20 0 -5
BITMAP
0000
0000
0000
0000
7FC0
79E0
79E0
79E0
79E0
7FC0
79E0
79E0
79E0
79E0
79E0
0000
0000
0000
0000
0000
ENDCHAR

STARTCHAR char_0x0053
ENCODING 83
SWIDTH 1122 0
DWIDTH 12 0
BBX 12 20 0 -5
BITMAP
0000
0000
0000
0000
3FC0
79E0
79E0
7800
7800
3FC0
01E0
01E0
79E0
79E0
3FC0
0000
0000
0000
0000
0000
ENDCHAR

STARTCHAR char_0x0054
ENCODING 84
SWIDTH 1122 0
DWIDTH 12 0
BBX 12 20 0 -5
BITMAP
0000
0000
0000
0000
7FE0
0F00
0F00
0F00
0F00
0F00
0F00
0F00
0F00
0F00
0F00
0000
0000
0000
0000
0000
ENDCHAR

STARTCHAR char_0x0055
ENCODING 85
SWIDTH 1122 0
DWIDTH 12 0
BBX 12 20 0 -5
BITMAP
0000
0000
0000
0000
79E0
79E0
79E0
79E0
79E0
79E0
79E0
79E0
79E0
79E0
3FC0
0000
0000
0000
0000
0000
ENDCHAR

STARTCHAR char_0x0056
ENCODING 86
SWIDTH 1122 0
DWIDTH 12 0
BBX 12 20 0 -5
BITMAP
0000
0000
0000
0000
79E0
79E0
79E0
79E0
79E0
79E0
79E0
39C0
1F80
0F00
0600
0000
0000
0000
0000
0000
ENDCHAR

STARTCHAR char_0x0057
ENCODING 87
SWIDTH 1122 0
DWIDTH 12 0
BBX 12 20 0 -5
BITMAP
0000
0000
0000
0000
79E0
79E0
79E0
79E0
79E0
7FE0
7FE0
7FE0
7FE0
39C0
1080
0000
0000
0000
0000
0000
ENDCHAR

STARTCHAR char_0x0058
ENCODING 88
SWIDTH 1122 0
DWIDTH 12 0
BBX 12 20 0 -5
BITMAP
0000
0000
0000
0000
79E0
79E0
79E0
39C0
1F80
0F00
1F80
39C0
79E0
79E0
79E0
0000
0000
0000
0000
0000
ENDCHAR

STARTCHAR char_0x0059
ENCODING 89
SWIDTH 1122 0
DWIDTH 12 0
BBX 12 20 0 -5
BITMAP
0000
0000
0000
0000
79E0
79E0
79E0
79E0
39C0
1F80
0F00
0F00
0F00
0F00
0F00
0000
0000
0000
0000
0000
ENDCHAR

STARTCHAR char_0x005A
ENCODING 90
SWIDTH 1122 0
DWIDTH 12 0
BBX 12 20 0 -5
BITMAP
0000
0000
0000
0000
7FE0
01E0
03E0
07C0
0F80
1F00
3E00
7C00
7800
7000
7FE0
0000
0000
0000
0000
0000
ENDCHAR

STARTCHAR char_0x005B
ENCODING 91
SWIDTH 1122 0
DWIDTH 12 0
BBX 12 20 0 -5
BITMAP
0000
0000
0000
3FC0
3C00
3C00
3C00
3C00
3C00
3C00
3C00
3C00
3C00
3C00
3C00
3FC0
0000
0000
0000
0000
ENDCHAR

STARTCHAR char_0x005C
ENCODING 92
SWIDTH 1122 0
DWIDTH 12 0
BBX 12 20 0 -5
BITMAP
0000
0000
0000
0000
7000
7800
7C00
3E00
1F00
0F80
07C0
03E0
01F0
00F0
0070
0000
0000
0000
0000
0000
ENDCHAR

STARTCHAR char_0x005D
ENCODING 93
SWIDTH 1122 0
DWIDTH 12 0
BBX 12 20 0 -5
BITMAP
0000
0000
0000
3FC0
03C0
03C0
03C0
03C0
03C0
03C0
03C0
03C0
03C0
03C0
03C0
3FC0
0000
0000
0000
0000
ENDCHAR

STARTCHAR char_0x005E
ENCODING 94
SWIDTH 1122 0
DWIDTH 12 0
BBX 12 20 0 -5
BITMAP
0000
0700
0F80
1DC0
38E0
0000
0000
0000
0000
0000
0000
0000
0000
0000
0000
0000
0000
0000
0000
0000
ENDCHAR

STARTCHAR char_0x005F
ENCODING 95
SWIDTH 1122 0
DWIDTH 12 0
BBX 12 20 0 -5
BITMAP
0000
0000
0000
0000
0000
0000
0000
0000
0000
0000
0000
0000
0000
7FE0
7FE0
0000
0000
0000
0000
0000
ENDCHAR

STARTCHAR char_0x0060
ENCODING 96
SWIDTH 1122 0
DWIDTH 12 0
BBX 12 20 0 -5
BITMAP
0000
1C00
1E00
0F00
0700
0000
0000
0000
0000
0000
0000
0000
0000
0000
0000
0000
0000
0000
0000
0000
ENDCHAR

STARTCHAR char_0x0061
ENCODING 97
SWIDTH 1122 0
DWIDTH 12 0
BBX 12 20 0 -5
BITMAP
0000
0000
0000
0000
0000
0000
0000
1FC0
39E0
01E0
3FE0
79E0
79E0
79E0
3FE0
0000
0000
0000
0000
0000
ENDCHAR

STARTCHAR char_0x0062
ENCODING 98
SWIDTH 1122 0
DWIDTH 12 0
BBX 12 20 0 -5
BITMAP
0000
0000
0000
0000
7800
7800
7800
7FC0
79E0
79E0
79E0
79E0
79E0
79E0
7FC0
0000
0000
0000
0000
0000
ENDCHAR

STARTCHAR char_0x0063
ENCODING 99
SWIDTH 1122 0
DWIDTH 12 0
BBX 12 20 0 -5
BITMAP
0000
0000
0000
0000
0000
0000
0000
3FC0
79E0
79E0
7800
7800
79E0
79E0
3FC0
0000
0000
0000
0000
0000
ENDCHAR

STARTCHAR char_0x0064
ENCODING 100
SWIDTH 1122 0
DWIDTH 12 0
BBX 12 20 0 -5
BITMAP
0000
0000
0000
0000
01E0
01E0
01E0
3FE0
79E0
79E0
79E0
79E0
79E0
79E0
3FE0
0000
0000
0000
0000
0000
ENDCHAR

STARTCHAR char_0x0065
ENCODING 101
SWIDTH 1122 0
DWIDTH 12 0
BBX 12 20 0 -5
BITMAP
0000
0000
0000
0000
0000
0000
0000
3FC0
79E0
79E0
7FE0
7800
79E0
79E0
3FC0
0000
0000
0000
0000
0000
ENDCHAR

STARTCHAR char_0x0066
ENCODING 102
SWIDTH 1122 0
DWIDTH 12 0
BBX 12 20 0 -5
BITMAP
0000
0000
0000
0000
0FC0
1E60
1E60
1E00
7F80
1E00
1E00
1E00
1E00
1E00
1E00
0000
0000
0000
0000
0000
ENDCHAR

STARTCHAR char_0x0067
ENCODING 103
SWIDTH 1122 0
DWIDTH 12 0
BBX 12 20 0 -5
BITMAP
0000
0000
0000
0000
0000
0000
0000
3FE0
79E0
79E0
79E0
79E0
79E0
79E0
3FE0
01E0
79E0
79E0
3FC0
0000
ENDCHAR

STARTCHAR char_0x0068
ENCODING 104
SWIDTH 1122 0
DWIDTH 12 0
BBX 12 20 0 -5
BITMAP
0000
0000
0000
0000
7800
7800
7800
7FC0
79E0
79E0
79E0
79E0
79E0
79E0
79E0
0000
0000
0000
0000
0000
ENDCHAR

STARTCHAR char_0x0069
ENCODING 105
SWIDTH 1122 0
DWIDTH 12 0
BBX 12 20 0 -5
BITMAP
0000
0000
0000
0000
0F00
0F00
0000
3F00
0F00
0F00
0F00
0F00
0F00
0F00
7FE0
0000
0000
0000
0000
0000
ENDCHAR

STARTCHAR char_0x006A
ENCODING 106
SWIDTH 1122 0
DWIDTH 12 0
BBX 12 20 0 -5
BITMAP
0000
0000
0000
0000
01E0
01E0
0000
07E0
01E0
01E0
01E0
01E0
01E0
01E0
01E0
79E0
79E0
79E0
3FC0
0000
ENDCHAR

STARTCHAR char_0x006B
ENCODING 107
SWIDTH 1122 0
DWIDTH 12 0
BBX 12 20 0 -5
BITMAP
0000
0000
0000
0000
7800
7800
7800
78E0
79C0
7F80
7F00
7F00
7F80
7BC0
79E0
0000
0000
0000
0000
0000
ENDCHAR

STARTCHAR char_0x006C
ENCODING 108
SWIDTH 1122 0
DWIDTH 12 0
BBX 12 20 0 -5
BITMAP
0000
0000
0000
0000
3F00
0F00
0F00
0F00
0F00
0F00
0F00
0F00
0F00
0F00
7FE0
0000
0000
0000
0000
0000
ENDCHAR

STARTCHAR char_0x006D
ENCODING 109
SWIDTH 1122 0
DWIDTH 12 0
BBX 12 20 0 -5
BITMAP
0000
0000
0000
0000
0000
0000
0000
70E0
79E0
7FE0
7FE0
79E0
79E0
79E0
79E0
0000
0000
0000
0000
0000
ENDCHAR

STARTCHAR char_0x006E
ENCODING 110
SWIDTH 1122 0
DWIDTH 12 0
BBX 12 20 0 -5
BITMAP
0000
0000
0000
0000
0000
0000
0000
7FC0
79E0
79E0
79E0
79E0
79E0
79E0
79E0
0000
0000
0000
0000
0000
ENDCHAR

STARTCHAR char_0x006F
ENCODING 111
SWIDTH 1122 0
DWIDTH 12 0
BBX 12 20 0 -5
BITMAP
0000
0000
0000
0000
0000
0000
0000
3FC0
79E0
79E0
79E0
79E0
79E0
79E0
3FC0
0000
0000
0000
0000
0000
ENDCHAR

STARTCHAR char_0x0070
ENCODING 112
SWIDTH 1122 0
DWIDTH 12 0
BBX 12 20 0 -5
BITMAP
0000
0000
0000
0000
0000
0000
0000
7FC0
79E0
79E0
79E0
79E0
79E0
79E0
7FC0
7800
7800
7800
7800
0000
ENDCHAR

STARTCHAR char_0x0071
ENCODING 113
SWIDTH 1122 0
DWIDTH 12 0
BBX 12 20 0 -5
BITMAP
0000
0000
0000
0000
0000
0000
0000
3FE0
79E0
79E0
79E0
79E0
79E0
79E0
3FE0
01E0
01E0
01E0
01E0
0000
ENDCHAR

STARTCHAR char_0x0072
ENCODING 114
SWIDTH 1122 0
DWIDTH 12 0
BBX 12 20 0 -5
BITMAP
0000
0000
0000
0000
0000
0000
0000
77C0
7DE0
79E0
7800
7800
7800
7800
7800
0000
0000
0000
0000
0000
ENDCHAR

STARTCHAR char_0x0073
ENCODING 115
SWIDTH 1122 0
DWIDTH 12 0
BBX 12 20 0 -5
BITMAP
0000
0000
0000
0000
0000
0000
0000
3FC0
79E0
7800
3FC0
01E0
79E0
79E0
3FC0
0000
0000
0000
0000
0000
ENDCHAR

STARTCHAR char_0x0074
ENCODING 116
SWIDTH 1122 0
DWIDTH 12 0
BBX 12 20 0 -5
BITMAP
0000
0000
0000
0000
1E00
1E00
1E00
7FC0
1E00
1E00
1E00
1E00
1E60
1E60
0FC0
0000
0000
0000
0000
0000
ENDCHAR

STARTCHAR char_0x0075
ENCODING 117
SWIDTH 1122 0
DWIDTH 12 0
BBX 12 20 0 -5
BITMAP
0000
0000
0000
0000
0000
0000
0000
79E0
79E0
79E0
79E0
79E0
79E0
7BE0
3DE0
0000
0000
0000
0000
0000
ENDCHAR

STARTCHAR char_0x0076
ENCODING 118
SWIDTH 1122 0
DWIDTH 12 0
BBX 12 20 0 -5
BITMAP
0000
0000
0000
0000
0000
0000
0000
79E0
79E0
79E0
79E0
39C0
1F80
0F00
0600
0000
0000
0000
0000
0000
ENDCHAR

STARTCHAR char_0x0077
ENCODING 119
SWIDTH 1122 0
DWIDTH 12 0
BBX 12 20 0 -5
BITMAP
0000
0000
0000
0000
0000
0000
0000
79E0
79E0
79E0
7FE0
7FE0
7FE0
39C0
1080
0000
0000
0000
0000
0000
ENDCHAR

STARTCHAR char_0x0078
ENCODING 120
SWIDTH 1122 0
DWIDTH 12 0
BBX 12 20 0 -5
BITMAP
0000
0000
0000
0000
0000
0000
0000
79E0
79E0
3FC0
1F80
1F80
3FC0
79E0
79E0
0000
0000
0000
0000
0000
ENDCHAR

STARTCHAR char_0x0079
ENCODING 121
SWIDTH 1122 0
DWIDTH 12 0
BBX 12 20 0 -5
BITMAP
0000
0000
0000
0000
0000
0000
0000
79E0
79E0
79E0
79E0
79E0
79E0
79E0
3FE0
01E0
79E0
79E0
3FC0
0000
ENDCHAR

STARTCHAR char_0x007A
ENCODING 122
SWIDTH 1122 0
DWIDTH 12 0
BBX 12 20 0 -5
BITMAP
0000
0000
0000
0000
0000
0000
0000
7FE0
03E0
07C0
0F80
1F00
3E00
7C00
7FE0
0000
0000
0000
0000
0000
ENDCHAR

STARTCHAR char_0x007B
ENCODING 123
SWIDTH 1122 0
DWIDTH 12 0
BBX 12 20 0 -5
BITMAP
0000
0000
0000
07C0
0F00
0F00
0F00
0F00
07C0
3F00
07C0
0F00
0F00
0F00
0F00
07C0
0000
0000
0000
0000
ENDCHAR

STARTCHAR char_0x007C
ENCODING 124
SWIDTH 1122 0
DWIDTH 12 0
BBX 12 20 0 -5
BITMAP
0000
0000
0000
0F00
0F00
0F00
0F00
0F00
0F00
0F00
0F00
0F00
0F00
0F00
0F00
0F00
0000
0000
0000
0000
ENDCHAR

STARTCHAR char_0x007D
ENCODING 125
SWIDTH 1122 0
DWIDTH 12 0
BBX 12 20 0 -5
BITMAP
0000
0000
0000
3E00
0F00
0F00
0F00
0F00
3E00
0FC0
3E00
0F00
0F00
0F00
0F00
3E00
0000
0000
0000
0000
ENDCHAR

STARTCHAR char_0x007E
ENCODING 126
SWIDTH 1122 0
DWIDTH 12 0
BBX 12 20 0 -5
BITMAP
0000
3E60
7FE0
67C0
0000
0000
0000
0000
0000
0000
0000
0000
0000
0000
0000
0000
0000
0000
0000
0000
ENDCHAR

STARTCHAR char_0x0080
ENCODING 128
SWIDTH 1122 0
DWIDTH 12 0
BBX 12 20 0 -5
BITMAP
0000
0000
0000
0000
3FE0
7980
7980
7980
7980
79C0
7980
7980
7980
7980
3FE0
0000
0000
0000
0000
0000
ENDCHAR

STARTCHAR char_0x0081
ENCODING 129
SWIDTH 1122 0
DWIDTH 12 0
BBX 12 20 0 -5
BITMAP
0000
0000
0000
0000
0000
0000
0000
3FC0
67E0
67A0
67E0
6780
6780
6780
3FE0
0000
0000
0000
0000
0000
ENDCHAR

STARTCHAR char_0x0082
ENCODING 130
SWIDTH 1122 0
DWIDTH 12 0
BBX 12 20 0 -5
BITMAP
0000
79E0
79E0
0000
79E0
79E0
79E0
79E0
39C0
1F80
0F00
0F00
0F00
0F00
0F00
0000
0000
0000
0000
0000
ENDCHAR

STARTCHAR char_0x00A1
ENCODING 161
SWIDTH 1122 0
DWIDTH 12 0
BBX 12 20 0 -5
BITMAP
0000
0000
0000
0000
0F00
0F00
0000
0F00
0F00
0F00
0F00
0F00
0F00
0F00
0F00
0F00
0000
0000
0000
0000
ENDCHAR

STARTCHAR char_0x00A2
ENCODING 162
SWIDTH 1122 0
DWIDTH 12 0
BBX 12 20 0 -5
BITMAP
0000
0000
0000
0000
0600
0600
3FC0
79E0
79E0
7800
79E0
79E0
3FC0
0600
0600
0000
0000
0000
0000
0000
ENDCHAR

STARTCHAR char_0x00A3
ENCODING 163
SWIDTH 1122 0
DWIDTH 12 0
BBX 12 20 0 -5
BITMAP
0000
0000
0000
0000
0FC0
1E60
1E60
1E00
1E00
1E00
7F80
1E00
1E00
1E60
7BC0
0000
0000
0000
0000
0000
ENDCHAR

STARTCHAR char_0x00A4
ENCODING 164
SWIDTH 1122 0
DWIDTH 12 0
BBX 12 20 0 -5
BITMAP
0000
0000
0000
0000
0000
2040
1F80
1F80
1980
1980
1F80
1F80
2040
0000
0000
0000
0000
0000
0000
0000
ENDCHAR

STARTCHAR char_0x00A5
ENCODING 165
SWIDTH 1122 0
DWIDTH 12 0
BBX 12 20 0 -5
BITMAP
0000
0000
0000
0000
79E0
79E0
79E0
79E0
39C0
1F80
7FE0
0F00
7FE0
0F00
0F00
0000
0000
0000
0000
0000
ENDCHAR

STARTCHAR char_0x00A6
ENCODING 166
SWIDTH 1122 0
DWIDTH 12 0
BBX 12 20 0 -5
BITMAP
0000
0000
0000
0F00
0F00
0F00
0F00
0F00
0F00
0000
0F00
0F00
0F00
0F00
0F00
0F00
0000
0000
0000
0000
ENDCHAR

STARTCHAR char_0x00A7
ENCODING 167
SWIDTH 1122 0
DWIDTH 12 0
BBX 12 20 0 -5
BITMAP
0000
0000
0000
3FC0
79E0
78E0
7E00
3F80
67E0
79E0
7E60
1FC0
07E0
71E0
79E0
3FC0
0000
0000
0000
0000
ENDCHAR

STARTCHAR char_0x00A8
ENCODING 168
SWIDTH 1122 0
DWIDTH 12 0
BBX 12 20 0 -5
BITMAP
0000
79E0
79E0
0000
0000
0000
0000
0000
0000
0000
0000
0000
0000
0000
0000
0000
0000
0000
0000
0000
ENDCHAR

STARTCHAR char_0x00A9
ENCODING 169
SWIDTH 1122 0
DWIDTH 12 0
BBX 12 20 0 -5
BITMAP
0000
0000
0000
1F80
3FC0
6060
4F20
5DA0
5C20
5C20
5DA0
4F20
6060
3FC0
1F80
0000
0000
0000
0000
0000
ENDCHAR

STARTCHAR char_0x00AA
ENCODING 170
SWIDTH 1122 0
DWIDTH 12 0
BBX 12 20 0 -5
BITMAP
0000
0000
1FC0
01E0
3FE0
79E0
3FE0
0000
7FE0
7FE0
0000
0000
0000
0000
0000
0000
0000
0000
0000
0000
ENDCHAR

STARTCHAR char_0x00AB
ENCODING 171
SWIDTH 1122 0
DWIDTH 12 0
BBX 12 20 0 -5
BITMAP
0000
0000
0000
0000
0000
0420
0C60
1CE0
3DE0
39C0
3DE0
1CE0
0C60
0420
0000
0000
0000
0000
0000
0000
ENDCHAR

STARTCHAR char_0x00AC
ENCODING 172
SWIDTH 1122 0
DWIDTH 12 0
BBX 12 20 0 -5
BITMAP
0000
7FE0
7FE0
01E0
0000
0000
0000
0000
0000
0000
0000
0000
0000
0000
0000
0000
0000
0000
0000
0000
ENDCHAR

STARTCHAR char_0x00AD
ENCODING 173
SWIDTH 1122 0
DWIDTH 12 0
BBX 12 20 0 -5
BITMAP
0000
0000
0000
0000
0000
0000
0000
0000
1F80
1F80
0000
0000
0000
0000
0000
0000
0000
0000
0000
0000
ENDCHAR

STARTCHAR char_0x00AE
ENCODING 174
SWIDTH 1122 0
DWIDTH 12 0
BBX 12 20 0 -5
BITMAP
0000
0000
0000
1F80
3FC0
6060
5F20
5DA0
5DA0
5F20
5FA0
5DA0
6060
3FC0
1F80
0000
0000
0000
0000
0000
ENDCHAR

STARTCHAR char_0x00AF
ENCODING 175
SWIDTH 1122 0
DWIDTH 12 0
BBX 12 20 0 -5
BITMAP
0000
7FE0
7FE0
0000
0000
0000
0000
0000
0000
0000
0000
0000
0000
0000
0000
0000
0000
0000
0000
0000
ENDCHAR

STARTCHAR char_0x00B0
ENCODING 176
SWIDTH 1122 0
DWIDTH 12 0
BBX 12 20 0 -5
BITMAP
0000
0000
0F80
1FC0
1CC0
1FC0
0F80
0000
0000
0000
0000
0000
0000
0000
0000
0000
0000
0000
0000
0000
ENDCHAR

STARTCHAR char_0x00B1
ENCODING 177
SWIDTH 1122 0
DWIDTH 12 0
BBX 12 20 0 -5
BITMAP
0000
0000
0000
0000
0000
0000
0F00
0F00
3FC0
0F00
0F00
0000
3FC0
3FC0
0000
0000
0000
0000
0000
0000
ENDCHAR

STARTCHAR char_0x00B2
ENCODING 178
SWIDTH 1122 0
DWIDTH 12 0
BBX 12 20 0 -5
BITMAP
0000
1F80
33C0
03C0
0F80
3E00
3FC0
0000
0000
0000
0000
0000
0000
0000
0000
0000
0000
0000
0000
0000
ENDCHAR

STARTCHAR char_0x00B3
ENCODING 179
SWIDTH 1122 0
DWIDTH 12 0
BBX 12 20 0 -5
BITMAP
0000
3F80
03C0
0F80
03C0
33C0
1F80
0000
0000
0000
0000
0000
0000
0000
0000
0000
0000
0000
0000
0000
ENDCHAR

STARTCHAR char_0x00B4
ENCODING 180
SWIDTH 1122 0
DWIDTH 12 0
BBX 12 20 0 -5
BITMAP
0000
0780
0F00
1E00
3C00
0000
0000
0000
0000
0000
0000
0000
0000
0000
0000
0000
0000
0000
0000
0000
ENDCHAR

STARTCHAR char_0x00B5
ENCODING 181
SWIDTH 1122 0
DWIDTH 12 0
BBX 12 20 0 -5
BITMAP
0000
0000
0000
0000
0000
0000
0000
0000
79E0
79E0
79E0
79E0
79E0
79E0
7FE0
6000
4000
0000
0000
0000
ENDCHAR

STARTCHAR char_0x00B6
ENCODING 182
SWIDTH 1122 0
DWIDTH 12 0
BBX 12 20 0 -5
BITMAP
0000
0000
0000
1FE0
3E60
7E60
7E60
7E60
7E60
3E60
1E60
1E60
1E60
1E60
1E60
0000
0000
0000
0000
0000
ENDCHAR

STARTCHAR char_0x00B7
ENCODING 183
SWIDTH 1122 0
DWIDTH 12 0
BBX 12 20 0 -5
BITMAP
0000
0000
0000
0000
0000
0000
0000
0000
0F00
0F00
0000
0000
0000
0000
0000
0000
0000
0000
0000
0000
ENDCHAR

STARTCHAR char_0x00B8
ENCODING 184
SWIDTH 1122 0
DWIDTH 12 0
BBX 12 20 0 -5
BITMAP
0000
0000
0000
0000
0000
0000
0000
0000
0000
0000
0000
0000
0F00
0F00
0F00
3F00
0000
0000
0000
0000
ENDCHAR

STARTCHAR char_0x00B9
ENCODING 185
SWIDTH 1122 0
DWIDTH 12 0
BBX 12 20 0 -5
BITMAP
0000
0F00
3F00
0F00
0F00
0F00
3FC0
0000
0000
0000
0000
0000
0000
0000
0000
0000
0000
0000
0000
0000
ENDCHAR

STARTCHAR char_0x00BA
ENCODING 186
SWIDTH 1122 0
DWIDTH 12 0
BBX 12 20 0 -5
BITMAP
0000
3FC0
79E0
79E0
79E0
3FC0
0000
7FE0
7FE0
0000
0000
0000
0000
0000
0000
0000
0000
0000
0000
0000
ENDCHAR

STARTCHAR char_0x00BB
ENCODING 187
SWIDTH 1122 0
DWIDTH 12 0
BBX 12 20 0 -5
BITMAP
0000
0000
0000
0000
0000
4200
6300
7380
7BC0
39C0
7BC0
7380
6300
4200
0000
0000
0000
0000
0000
0000
ENDCHAR

STARTCHAR char_0x00BC
ENCODING 188
SWIDTH 1122 0
DWIDTH 12 0
BBX 12 20 0 -5
BITMAP
0000
0000
0000
0000
0000
1E00
7E00
1E60
7F80
0660
19E0
67E0
19E0
7FE0
01E0
0000
0000
0000
0000
0000
ENDCHAR

STARTCHAR char_0x00BD
ENCODING 189
SWIDTH 1122 0
DWIDTH 12 0
BBX 12 20 0 -5
BITMAP
0000
0000
0000
0000
0000
1E00
7E00
1E60
7F80
0780
1FE0
79E0
07C0
1F00
1FE0
0000
0000
0000
0000
0000
ENDCHAR

STARTCHAR char_0x00BE
ENCODING 190
SWIDTH 1122 0
DWIDTH 12 0
BBX 12 20 0 -5
BITMAP
0000
0000
0000
0000
0000
7C00
0600
1E60
0780
7E60
19E0
67E0
19E0
7FE0
01E0
0000
0000
0000
0000
0000
ENDCHAR

STARTCHAR char_0x00BF
ENCODING 191
SWIDTH 1122 0
DWIDTH 12 0
BBX 12 20 0 -5
BITMAP
0000
0000
0000
0000
0780
0780
0000
0780
0F80
3F80
7E00
7C00
79E0
79E0
7DE0
3FC0
0000
0000
0000
0000
ENDCHAR

STARTCHAR char_0x00C0
ENCODING 192
SWIDTH 1122 0
DWIDTH 12 0
BBX 12 20 0 -5
BITMAP
0000
1E00
0F00
0000
0600
0F00
1F80
39C0
79E0
79E0
7FE0
79E0
79E0
79E0
79E0
0000
0000
0000
0000
0000
ENDCHAR

STARTCHAR char_0x00C1
ENCODING 193
SWIDTH 1122 0
DWIDTH 12 0
BBX 12 20 0 -5
BITMAP
0000
0780
0F00
0000
0600
0F00
1F80
39C0
79E0
79E0
7FE0
79E0
79E0
79E0
79E0
0000
0000
0000
0000
0000
ENDCHAR

STARTCHAR char_0x00C2
ENCODING 194
SWIDTH 1122 0
DWIDTH 12 0
BBX 12 20 0 -5
BITMAP
0000
0600
1F80
0000
0600
0F00
1F80
39C0
79E0
79E0
7FE0
79E0
79E0
79E0
79E0
0000
0000
0000
0000
0000
ENDCHAR

STARTCHAR char_0x00C3
ENCODING 195
SWIDTH 1122 0
DWIDTH 12 0
BBX 12 20 0 -5
BITMAP
0000
1EC0
3780
0000
0600
0F00
1F80
39C0
79E0
79E0
7FE0
79E0
79E0
79E0
79E0
0000
0000
0000
0000
0000
ENDCHAR

STARTCHAR char_0x00C4
ENCODING 196
SWIDTH 1122 0
DWIDTH 12 0
BBX 12 20 0 -5
BITMAP
0000
79E0
79E0
0000
0600
0F00
1F80
39C0
79E0
79E0
7FE0
79E0
79E0
79E0
79E0
0000
0000
0000
0000
0000
ENDCHAR

STARTCHAR char_0x00C5
ENCODING 197
SWIDTH 1122 0
DWIDTH 12 0
BBX 12 20 0 -5
BITMAP
0000
0F00
0F00
0000
0600
0F00
1F80
39C0
79E0
79E0
7FE0
79E0
79E0
79E0
79E0
0000
0000
0000
0000
0000
ENDCHAR

STARTCHAR char_0x00C6
ENCODING 198
SWIDTH 1122 0
DWIDTH 12 0
BBX 12 20 0 -5
BITMAP
0000
0000
0000
0000
07E0
0D80
1980
3980
7980
7FE0
7980
7980
7980
7980
79E0
0000
0000
0000
0000
0000
ENDCHAR

STARTCHAR char_0x00C7
ENCODING 199
SWIDTH 1122 0
DWIDTH 12 0
BBX 12 20 0 -5
BITMAP
0000
0000
0000
0000
3FC0
79E0
79E0
7800
7800
7800
7800
79E0
79E0
79E0
3FC0
1F00
7C00
0000
0000
0000
ENDCHAR

STARTCHAR char_0x00C8
ENCODING 200
SWIDTH 1122 0
DWIDTH 12 0
BBX 12 20 0 -5
BITMAP
0000
1E00
0F00
0000
7FE0
7800
7800
7800
7800
7F80
7800
7800
7800
7800
7FE0
0000
0000
0000
0000
0000
ENDCHAR

STARTCHAR char_0x00C9
ENCODING 201
SWIDTH 1122 0
DWIDTH 12 0
BBX 12 20 0 -5
BITMAP
0000
0780
0F00
0000
7FE0
7800
7800
7800
7800
7F80
7800
7800
7800
7800
7FE0
0000
0000
0000
0000
0000
ENDCHAR

STARTCHAR char_0x00CA
ENCODING 202
SWIDTH 1122 0
DWIDTH 12 0
BBX 12 20 0 -5
BITMAP
0000
0600
1F80
0000
7FE0
7800
7800
7800
7800
7F80
7800
7800
7800
7800
7FE0
0000
0000
0000
0000
0000
ENDCHAR

STARTCHAR char_0x00CB
ENCODING 203
SWIDTH 1122 0
DWIDTH 12 0
BBX 12 20 0 -5
BITMAP
0000
79E0
79E0
0000
7FE0
7800
7800
7800
7F80
7800
7800
7800
7800
7800
7FE0
0000
0000
0000
0000
0000
ENDCHAR

STARTCHAR char_0x00CC
ENCODING 204
SWIDTH 1122 0
DWIDTH 12 0
BBX 12 20 0 -5
BITMAP
0000
1E00
0F00
0000
7FE0
0F00
0F00
0F00
0F00
0F00
0F00
0F00
0F00
0F00
7FE0
0000
0000
0000
0000
0000
ENDCHAR

STARTCHAR char_0x00CD
ENCODING 205
SWIDTH 1122 0
DWIDTH 12 0
BBX 12 20 0 -5
BITMAP
0000
0780
0F00
0000
7FE0
0F00
0F00
0F00
0F00
0F00
0F00
0F00
0F00
0F00
7FE0
0000
0000
0000
0000
0000
ENDCHAR

STARTCHAR char_0x00CE
ENCODING 206
SWIDTH 1122 0
DWIDTH 12 0
BBX 12 20 0 -5
BITMAP
0000
0F00
3FC0
0000
7FE0
0F00
0F00
0F00
0F00
0F00
0F00
0F00
0F00
0F00
7FE0
0000
0000
0000
0000
0000
ENDCHAR

STARTCHAR char_0x00CF
ENCODING 207
SWIDTH 1122 0
DWIDTH 12 0
BBX 12 20 0 -5
BITMAP
0000
79E0
79E0
0000
7FE0
0F00
0F00
0F00
0F00
0F00
0F00
0F00
0F00
0F00
7FE0
0000
0000
0000
0000
0000
ENDCHAR

STARTCHAR char_0x00D0
ENCODING 208
SWIDTH 1122 0
DWIDTH 12 0
BBX 12 20 0 -5
BITMAP
0000
0000
0000
0000
1FC0
1E60
1E60
1E60
1E60
7F60
1E60
1E60
1E60
1E60
1FC0
0000
0000
0000
0000
0000
ENDCHAR

STARTCHAR char_0x00D1
ENCODING 209
SWIDTH 1122 0
DWIDTH 12 0
BBX 12 20 0 -5
BITMAP
0000
1EC0
3780
0000
61E0
71E0
79E0
7DE0
7FE0
7FE0
7FE0
7BE0
79E0
78E0
7860
0000
0000
0000
0000
0000
ENDCHAR

STARTCHAR char_0x00D2
ENCODING 210
SWIDTH 1122 0
DWIDTH 12 0
BBX 12 20 0 -5
BITMAP
0000
1E00
0F00
0000
3FC0
79E0
79E0
79E0
79E0
79E0
79E0
79E0
79E0
79E0
3FC0
0000
0000
0000
0000
0000
ENDCHAR

STARTCHAR char_0x00D3
ENCODING 211
SWIDTH 1122 0
DWIDTH 12 0
BBX 12 20 0 -5
BITMAP
0000
0780
0F00
0000
3FC0
79E0
79E0
79E0
79E0
79E0
79E0
79E0
79E0
79E0
3FC0
0000
0000
0000
0000
0000
ENDCHAR

STARTCHAR char_0x00D4
ENCODING 212
SWIDTH 1122 0
DWIDTH 12 0
BBX 12 20 0 -5
BITMAP
0000
0600
1F80
0000
3FC0
79E0
79E0
79E0
79E0
79E0
79E0
79E0
79E0
79E0
3FC0
0000
0000
0000
0000
0000
ENDCHAR

STARTCHAR char_0x00D5
ENCODING 213
SWIDTH 1122 0
DWIDTH 12 0
BBX 12 20 0 -5
BITMAP
0000
1EC0
3780
0000
3FC0
79E0
79E0
79E0
79E0
79E0
79E0
79E0
79E0
79E0
3FC0
0000
0000
0000
0000
0000
ENDCHAR

STARTCHAR char_0x00D6
ENCODING 214
SWIDTH 1122 0
DWIDTH 12 0
BBX 12 20 0 -5
BITMAP
0000
79E0
79E0
0000
3FC0
79E0
79E0
79E0
79E0
79E0
79E0
79E0
79E0
79E0
3FC0
0000
0000
0000
0000
0000
ENDCHAR

STARTCHAR char_0x00D7
ENCODING 215
SWIDTH 1122 0
DWIDTH 12 0
BBX 12 20 0 -5
BITMAP
0000
0000
0000
0000
0000
0000
0000
39C0
3FC0
1F80
0F00
1F80
3FC0
39C0
0000
0000
0000
0000
0000
0000
ENDCHAR

STARTCHAR char_0x00D8
ENCODING 216
SWIDTH 1122 0
DWIDTH 12 0
BBX 12 20 0 -5
BITMAP
0000
0000
0000
0000
0F60
39C0
79E0
79E0
7BE0
7FE0
7DE0
79E0
79E0
39C0
6F00
0000
0000
0000
0000
0000
ENDCHAR

STARTCHAR char_0x00D9
ENCODING 217
SWIDTH 1122 0
DWIDTH 12 0
BBX 12 20 0 -5
BITMAP
0000
1E00
0F00
0000
79E0
79E0
79E0
79E0
79E0
79E0
79E0
79E0
79E0
79E0
3FC0
0000
0000
0000
0000
0000
ENDCHAR

STARTCHAR char_0x00DA
ENCODING 218
SWIDTH 1122 0
DWIDTH 12 0
BBX 12 20 0 -5
BITMAP
0000
0780
0F00
0000
79E0
79E0
79E0
79E0
79E0
79E0
79E0
79E0
79E0
79E0
1F80
0000
0000
0000
0000
0000
ENDCHAR

STARTCHAR char_0x00DB
ENCODING 219
SWIDTH 1122 0
DWIDTH 12 0
BBX 12 20 0 -5
BITMAP
0000
0600
1F80
0000
79E0
79E0
79E0
79E0
79E0
79E0
79E0
79E0
79E0
79E0
3FC0
0000
0000
0000
0000
0000
ENDCHAR

STARTCHAR char_0x00DC
ENCODING 220
SWIDTH 1122 0
DWIDTH 12 0
BBX 12 20 0 -5
BITMAP
0000
79E0
79E0
0000
79E0
79E0
79E0
79E0
79E0
79E0
79E0
79E0
79E0
79E0
3FC0
0000
0000
0000
0000
0000
ENDCHAR

STARTCHAR char_0x00DD
ENCODING 221
SWIDTH 1122 0
DWIDTH 12 0
BBX 12 20 0 -5
BITMAP
0000
0780
0F00
0000
79E0
79E0
79E0
79E0
39C0
1F80
0F00
0F00
0F00
0F00
0F00
0000
0000
0000
0000
0000
ENDCHAR

STARTCHAR char_0x00DE
ENCODING 222
SWIDTH 1122 0
DWIDTH 12 0
BBX 12 20 0 -5
BITMAP
0000
0000
0000
0000
7E00
3C00
3FE0
3CF0
3CF0
3CF0
3CF0
3FE0
3C00
3C00
7E00
0000
0000
0000
0000
0000
ENDCHAR

STARTCHAR char_0x00DF
ENCODING 223
SWIDTH 1122 0
DWIDTH 12 0
BBX 12 20 0 -5
BITMAP
0000
0000
0000
0000
6600
1800
6600
0780
3FC0
79E0
79E0
79E0
79E0
79E0
3FC0
0000
0000
0000
0000
0000
ENDCHAR

STARTCHAR char_0x00E0
ENCODING 224
SWIDTH 1122 0
DWIDTH 12 0
BBX 12 20 0 -5
BITMAP
0000
0000
0000
0000
1E00
0F00
0000
1FC0
39E0
01E0
3FE0
79E0
79E0
79E0
3FE0
0000
0000
0000
0000
0000
ENDCHAR

STARTCHAR char_0x00E1
ENCODING 225
SWIDTH 1122 0
DWIDTH 12 0
BBX 12 20 0 -5
BITMAP
0000
0000
0000
0000
0780
0F00
0000
1FC0
39E0
01E0
3FE0
79E0
79E0
79E0
3FE0
0000
0000
0000
0000
0000
ENDCHAR

STARTCHAR char_0x00E2
ENCODING 226
SWIDTH 1122 0
DWIDTH 12 0
BBX 12 20 0 -5
BITMAP
0000
0000
0000
0000
0600
1F80
0000
1FC0
39E0
01E0
3FE0
79E0
79E0
79E0
3FE0
0000
0000
0000
0000
0000
ENDCHAR

STARTCHAR char_0x00E3
ENCODING 227
SWIDTH 1122 0
DWIDTH 12 0
BBX 12 20 0 -5
BITMAP
0000
0000
0000
0000
1EC0
3780
0000
1FC0
39E0
01E0
3FE0
79E0
79E0
79E0
3FE0
0000
0000
0000
0000
0000
ENDCHAR

STARTCHAR char_0x00E4
ENCODING 228
SWIDTH 1122 0
DWIDTH 12 0
BBX 12 20 0 -5
BITMAP
0000
0000
0000
0000
79E0
79E0
0000
1FC0
39E0
01E0
3FE0
79E0
79E0
79E0
3FE0
0000
0000
0000
0000
0000
ENDCHAR

STARTCHAR char_0x00E5
ENCODING 229
SWIDTH 1122 0
DWIDTH 12 0
BBX 12 20 0 -5
BITMAP
0000
0000
0000
0000
0F00
0F00
0000
1FC0
39E0
01E0
3FE0
79E0
79E0
79E0
3FE0
0000
0000
0000
0000
0000
ENDCHAR

STARTCHAR char_0x00E6
ENCODING 230
SWIDTH 1122 0
DWIDTH 12 0
BBX 12 20 0 -5
BITMAP
0000
0000
0000
0000
0000
0000
0000
3FC0
67E0
0720
3FE0
6780
6780
67A0
3FC0
0000
0000
0000
0000
0000
ENDCHAR

STARTCHAR char_0x00E7
ENCODING 231
SWIDTH 1122 0
DWIDTH 12 0
BBX 12 20 0 -5
BITMAP
0000
0000
0000
0000
0000
0000
0000
3FC0
79E0
79E0
7800
7800
79E0
7FE0
3FC0
0780
1F00
0000
0000
0000
ENDCHAR

STARTCHAR char_0x00E8
ENCODING 232
SWIDTH 1122 0
DWIDTH 12 0
BBX 12 20 0 -5
BITMAP
0000
0000
0000
0000
1E00
0F00
0000
3FC0
79E0
79E0
7FE0
7800
79E0
79E0
3FC0
0000
0000
0000
0000
0000
ENDCHAR

STARTCHAR char_0x00E9
ENCODING 233
SWIDTH 1122 0
DWIDTH 12 0
BBX 12 20 0 -5
BITMAP
0000
0000
0000
0000
0780
0F00
0000
3FC0
79E0
79E0
7FE0
7800
79E0
79E0
3FC0
0000
0000
0000
0000
0000
ENDCHAR

STARTCHAR char_0x00EA
ENCODING 234
SWIDTH 1122 0
DWIDTH 12 0
BBX 12 20 0 -5
BITMAP
0000
0000
0000
0000
0600
1F80
0000
3FC0
79E0
79E0
7FE0
7800
79E0
79E0
3FC0
0000
0000
0000
0000
0000
ENDCHAR

STARTCHAR char_0x00EB
ENCODING 235
SWIDTH 1122 0
DWIDTH 12 0
BBX 12 20 0 -5
BITMAP
0000
0000
0000
0000
79E0
79E0
0000
3FC0
79E0
79E0
7FE0
7800
79E0
79E0
3FC0
0000
0000
0000
0000
0000
ENDCHAR

STARTCHAR char_0x00EC
ENCODING 236
SWIDTH 1122 0
DWIDTH 12 0
BBX 12 20 0 -5
BITMAP
0000
0000
0000
0000
1E00
0F00
0000
3F00
0F00
0F00
0F00
0F00
0F00
0F00
7FE0
0000
0000
0000
0000
0000
ENDCHAR

STARTCHAR char_0x00ED
ENCODING 237
SWIDTH 1122 0
DWIDTH 12 0
BBX 12 20 0 -5
BITMAP
0000
0000
0000
0000
0780
0F00
0000
3F00
0F00
0F00
0F00
0F00
0F00
0F00
7FE0
0000
0000
0000
0000
0000
ENDCHAR

STARTCHAR char_0x00EE
ENCODING 238
SWIDTH 1122 0
DWIDTH 12 0
BBX 12 20 0 -5
BITMAP
0000
0000
0000
0000
0600
1F80
0000
3F00
0F00
0F00
0F00
0F00
0F00
0F00
7FE0
0000
0000
0000
0000
0000
ENDCHAR

STARTCHAR char_0x00EF
ENCODING 239
SWIDTH 1122 0
DWIDTH 12 0
BBX 12 20 0 -5
BITMAP
0000
0000
0000
0000
79C0
79C0
0000
3F00
0F00
0F00
0F00
0F00
0F00
0F00
7FE0
0000
0000
0000
0000
0000
ENDCHAR

STARTCHAR char_0x00F0
ENCODING 240
SWIDTH 1122 0
DWIDTH 12 0
BBX 12 20 0 -5
BITMAP
0000
0000
0000
0000
6600
1800
6600
0780
3FC0
79E0
79E0
79E0
79E0
79E0
3FC0
0000
0000
0000
0000
0000
ENDCHAR

STARTCHAR char_0x00F1
ENCODING 241
SWIDTH 1122 0
DWIDTH 12 0
BBX 12 20 0 -5
BITMAP
0000
0000
0000
0000
1EC0
3780
0000
7FC0
79E0
79E0
79E0
79E0
79E0
79E0
79E0
0000
0000
0000
0000
0000
ENDCHAR

STARTCHAR char_0x00F2
ENCODING 242
SWIDTH 1122 0
DWIDTH 12 0
BBX 12 20 0 -5
BITMAP
0000
0000
0000
0000
1E00
0F00
0000
3FC0
79E0
79E0
79E0
79E0
79E0
79E0
3FC0
0000
0000
0000
0000
0000
ENDCHAR

STARTCHAR char_0x00F3
ENCODING 243
SWIDTH 1122 0
DWIDTH 12 0
BBX 12 20 0 -5
BITMAP
0000
0000
0000
0000
0780
0F00
0000
3FC0
79E0
79E0
79E0
79E0
79E0
79E0
3FC0
0000
0000
0000
0000
0000
ENDCHAR

STARTCHAR char_0x00F4
ENCODING 244
SWIDTH 1122 0
DWIDTH 12 0
BBX 12 20 0 -5
BITMAP
0000
0000
0000
0000
0600
1F80
0000
3FC0
79E0
79E0
79E0
79E0
79E0
79E0
3FC0
0000
0000
0000
0000
0000
ENDCHAR

STARTCHAR char_0x00F5
ENCODING 245
SWIDTH 1122 0
DWIDTH 12 0
BBX 12 20 0 -5
BITMAP
0000
0000
0000
0000
1EC0
3780
0000
3FC0
79E0
79E0
79E0
79E0
79E0
79E0
3FC0
0000
0000
0000
0000
0000
ENDCHAR

STARTCHAR char_0x00F6
ENCODING 246
SWIDTH 1122 0
DWIDTH 12 0
BBX 12 20 0 -5
BITMAP
0000
0000
0000
0000
79E0
79E0
0000
3FC0
79E0
79E0
79E0
79E0
79E0
79E0
3FC0
0000
0000
0000
0000
0000
ENDCHAR

STARTCHAR char_0x00F7
ENCODING 247
SWIDTH 1122 0
DWIDTH 12 0
BBX 12 20 0 -5
BITMAP
0000
0000
0000
0000
0000
0F00
0F00
0000
7FE0
7FE0
0000
0F00
0F00
0000
0000
0000
0000
0000
0000
0000
ENDCHAR

STARTCHAR char_0x00F8
ENCODING 248
SWIDTH 1122 0
DWIDTH 12 0
BBX 12 20 0 -5
BITMAP
0000
0000
0000
0000
0000
0000
0000
0F40
3FC0
79E0
7BE0
7DE0
79E0
3FC0
2F00
0000
0000
0000
0000
0000
ENDCHAR

STARTCHAR char_0x00F9
ENCODING 249
SWIDTH 1122 0
DWIDTH 12 0
BBX 12 20 0 -5
BITMAP
0000
0000
0000
0000
1E00
0F00
0000
79E0
79E0
79E0
79E0
79E0
79E0
7BE0
3DE0
0000
0000
0000
0000
0000
ENDCHAR

STARTCHAR char_0x00FA
ENCODING 250
SWIDTH 1122 0
DWIDTH 12 0
BBX 12 20 0 -5
BITMAP
0000
0000
0000
0000
0780
0F00
0000
79E0
79E0
79E0
79E0
79E0
79E0
7BE0
3DE0
0000
0000
0000
0000
0000
ENDCHAR

STARTCHAR char_0x00FB
ENCODING 251
SWIDTH 1122 0
DWIDTH 12 0
BBX 12 20 0 -5
BITMAP
0000
0000
0000
0000
0600
1F80
0000
79E0
79E0
79E0
79E0
79E0
79E0
7BE0
3DE0
0000
0000
0000
0000
0000
ENDCHAR

STARTCHAR char_0x00FC
ENCODING 252
SWIDTH 1122 0
DWIDTH 12 0
BBX 12 20 0 -5
BITMAP
0000
0000
0000
0000
79E0
79E0
0000
79E0
79E0
79E0
79E0
79E0
79E0
7BE0
3DE0
0000
0000
0000
0000
0000
ENDCHAR

STARTCHAR char_0x00FD
ENCODING 253
SWIDTH 1122 0
DWIDTH 12 0
BBX 12 20 0 -5
BITMAP
0000
0000
0000
0000
0780
0F00
0000
79E0
79E0
79E0
79E0
79E0
79E0
79E0
3FE0
01E0
79E0
79E0
3FC0
0000
ENDCHAR

STARTCHAR char_0x00FE
ENCODING 254
SWIDTH 1122 0
DWIDTH 12 0
BBX 12 20 0 -5
BITMAP
0000
0000
0000
0000
0000
0000
0000
7E00
3C00
3FE0
3CF0
3CF0
3CF0
3CF0
3FE0
3C00
3C00
3C00
7E00
0000
ENDCHAR

STARTCHAR char_0x00FF
ENCODING 255
SWIDTH 1122 0
DWIDTH 12 0
BBX 12 20 0 -5
BITMAP
0000
0000
0000
0000
79E0
79E0
0000
79E0
79E0
79E0
79E0
79E0
79E0
79E0
3FE0
01E0
79E0
79E0
3FC0
0000
ENDCHAR

ENDFONT
