STARTFONT 2.1
FONT -DIGITAL-VWSVT0-Bold-R-Narrow--20-190-75-75-C-60-ISO8859-1
SIZE 19 75 75
FONTBOUNDINGBOX 6 20 0 -5

STARTPROPERTIES 25
FONTNAME_REGISTRY ""
FAMILY_NAME "VWSVT0"
FOUNDRY_NAME "DIGITAL"
WEIGHT_NAME "Bold"
SETWIDTH_NAME "Narrow"
SLANT "R"
ADD_STYLE_NAME ""
PIXEL_SIZE 20
POINT_SIZE 190
RESOLUTION_X 75
RESOLUTION_Y 75
SPACING "C"
AVERAGE_WIDTH 60
CHARSET_REGISTRY "ISO8859"
CHARSET_ENCODING "1"
CHARSET_COLLECTIONS "ASCII ISO8859-1"
FULL_NAME "VWSVT0"
COPYRIGHT "Copyright ©1990 by Digital Equipment Corporation"
CAP_HEIGHT 11
X_HEIGHT 8
WEIGHT 10
QUAD_WIDTH 6
DEFAULT_CHAR 0
FONT_DESCENT 5
FONT_ASCENT 15
ENDPROPERTIES

CHARS 193

STARTCHAR char_0x0020
ENCODING 32
SWIDTH 561 0
DWIDTH 6 0
BBX 6 20 0 -5
BITMAP
00
00
00
00
00
00
00
00
00
00
00
00
00
00
00
00
00
00
00
00
ENDCHAR

STARTCHAR char_0x0021
ENCODING 33
SWIDTH 561 0
DWIDTH 6 0
BBX 6 20 0 -5
BITMAP
00
00
00
00
30
30
30
30
30
30
30
30
00
30
30
00
00
00
00
00
ENDCHAR

STARTCHAR char_0x0022
ENCODING 34
SWIDTH 561 0
DWIDTH 6 0
BBX 6 20 0 -5
BITMAP
00
6C
6C
6C
00
00
00
00
00
00
00
00
00
00
00
00
00
00
00
00
ENDCHAR

STARTCHAR char_0x0023
ENCODING 35
SWIDTH 561 0
DWIDTH 6 0
BBX 6 20 0 -5
BITMAP
00
00
00
00
00
28
28
7C
7C
28
28
7C
7C
28
28
00
00
00
00
00
ENDCHAR

STARTCHAR char_0x0024
ENCODING 36
SWIDTH 561 0
DWIDTH 6 0
BBX 6 20 0 -5
BITMAP
00
00
00
00
10
10
38
6C
60
38
0C
6C
38
10
10
00
00
00
00
00
ENDCHAR

STARTCHAR char_0x0025
ENCODING 37
SWIDTH 561 0
DWIDTH 6 0
BBX 6 20 0 -5
BITMAP
00
00
00
00
6C
6C
0C
18
18
18
30
30
30
6C
6C
00
00
00
00
00
ENDCHAR

STARTCHAR char_0x0026
ENCODING 38
SWIDTH 561 0
DWIDTH 6 0
BBX 6 20 0 -5
BITMAP
00
00
00
00
18
2C
2C
2C
18
2C
6C
6C
6C
7C
3C
00
00
00
00
00
ENDCHAR

STARTCHAR char_0x0027
ENCODING 39
SWIDTH 561 0
DWIDTH 6 0
BBX 6 20 0 -5
BITMAP
00
18
18
30
00
00
00
00
00
00
00
00
00
00
00
00
00
00
00
00
ENDCHAR

STARTCHAR char_0x0028
ENCODING 40
SWIDTH 561 0
DWIDTH 6 0
BBX 6 20 0 -5
BITMAP
00
00
00
18
30
30
60
60
60
60
60
60
60
30
30
18
00
00
00
00
ENDCHAR

STARTCHAR char_0x0029
ENCODING 41
SWIDTH 561 0
DWIDTH 6 0
BBX 6 20 0 -5
BITMAP
00
00
00
60
30
30
18
18
18
18
18
18
18
30
30
60
00
00
00
00
ENDCHAR

STARTCHAR char_0x002A
ENCODING 42
SWIDTH 561 0
DWIDTH 6 0
BBX 6 20 0 -5
BITMAP
00
00
00
00
00
00
54
38
38
7C
38
38
54
00
00
00
00
00
00
00
ENDCHAR

STARTCHAR char_0x002B
ENCODING 43
SWIDTH 561 0
DWIDTH 6 0
BBX 6 20 0 -5
BITMAP
00
00
00
00
00
30
30
30
78
78
30
30
30
00
00
00
00
00
00
00
ENDCHAR

STARTCHAR char_0x002C
ENCODING 44
SWIDTH 561 0
DWIDTH 6 0
BBX 6 20 0 -5
BITMAP
00
00
00
00
00
00
00
00
00
00
00
00
00
30
30
60
00
00
00
00
ENDCHAR

STARTCHAR char_0x002D
ENCODING 45
SWIDTH 561 0
DWIDTH 6 0
BBX 6 20 0 -5
BITMAP
00
00
00
00
00
00
00
00
7C
7C
00
00
00
00
00
00
00
00
00
00
ENDCHAR

STARTCHAR char_0x002E
ENCODING 46
SWIDTH 561 0
DWIDTH 6 0
BBX 6 20 0 -5
BITMAP
00
00
00
00
00
00
00
00
00
00
00
00
00
30
30
00
00
00
00
00
ENDCHAR

STARTCHAR char_0x002F
ENCODING 47
SWIDTH 561 0
DWIDTH 6 0
BBX 6 20 0 -5
BITMAP
00
00
00
0C
0C
0C
18
18
18
30
30
30
60
60
60
00
00
00
00
00
ENDCHAR

STARTCHAR char_0x0030
ENCODING 48
SWIDTH 561 0
DWIDTH 6 0
BBX 6 20 0 -5
BITMAP
00
00
00
00
10
28
6C
6C
6C
6C
6C
6C
6C
28
10
00
00
00
00
00
ENDCHAR

STARTCHAR char_0x0031
ENCODING 49
SWIDTH 561 0
DWIDTH 6 0
BBX 6 20 0 -5
BITMAP
00
00
00
00
08
18
38
18
18
18
18
18
18
18
3C
00
00
00
00
00
ENDCHAR

STARTCHAR char_0x0032
ENCODING 50
SWIDTH 561 0
DWIDTH 6 0
BBX 6 20 0 -5
BITMAP
00
00
00
00
38
6C
6C
0C
0C
18
30
60
60
60
7C
00
00
00
00
00
ENDCHAR

STARTCHAR char_0x0033
ENCODING 51
SWIDTH 561 0
DWIDTH 6 0
BBX 6 20 0 -5
BITMAP
00
00
00
00
38
6C
6C
0C
0C
18
0C
0C
6C
6C
38
00
00
00
00
00
ENDCHAR

STARTCHAR char_0x0034
ENCODING 52
SWIDTH 561 0
DWIDTH 6 0
BBX 6 20 0 -5
BITMAP
00
00
00
00
0C
0C
1C
1C
3C
2C
6C
6C
7C
0C
0C
00
00
00
00
00
ENDCHAR

STARTCHAR char_0x0035
ENCODING 53
SWIDTH 561 0
DWIDTH 6 0
BBX 6 20 0 -5
BITMAP
00
00
00
00
7C
60
60
60
78
0C
0C
0C
6C
6C
38
00
00
00
00
00
ENDCHAR

STARTCHAR char_0x0036
ENCODING 54
SWIDTH 561 0
DWIDTH 6 0
BBX 6 20 0 -5
BITMAP
00
00
00
00
38
6C
6C
60
78
6C
6C
6C
6C
6C
38
00
00
00
00
00
ENDCHAR

STARTCHAR char_0x0037
ENCODING 55
SWIDTH 561 0
DWIDTH 6 0
BBX 6 20 0 -5
BITMAP
00
00
00
00
7C
6C
6C
0C
18
18
18
30
30
30
30
00
00
00
00
00
ENDCHAR

STARTCHAR char_0x0038
ENCODING 56
SWIDTH 561 0
DWIDTH 6 0
BBX 6 20 0 -5
BITMAP
00
00
00
00
38
6C
6C
6C
6C
38
6C
6C
6C
6C
38
00
00
00
00
00
ENDCHAR

STARTCHAR char_0x0039
ENCODING 57
SWIDTH 561 0
DWIDTH 6 0
BBX 6 20 0 -5
BITMAP
00
00
00
00
38
6C
6C
6C
6C
6C
3C
0C
6C
6C
38
00
00
00
00
00
ENDCHAR

STARTCHAR char_0x003A
ENCODING 58
SWIDTH 561 0
DWIDTH 6 0
BBX 6 20 0 -5
BITMAP
00
00
00
00
00
00
00
30
30
00
00
00
00
30
30
00
00
00
00
00
ENDCHAR

STARTCHAR char_0x003B
ENCODING 59
SWIDTH 561 0
DWIDTH 6 0
BBX 6 20 0 -5
BITMAP
00
00
00
00
00
00
00
30
30
00
00
00
00
30
30
60
00
00
00
00
ENDCHAR

STARTCHAR char_0x003C
ENCODING 60
SWIDTH 561 0
DWIDTH 6 0
BBX 6 20 0 -5
BITMAP
00
00
00
00
00
0C
18
30
60
60
30
18
0C
00
00
00
00
00
00
00
ENDCHAR

STARTCHAR char_0x003D
ENCODING 61
SWIDTH 561 0
DWIDTH 6 0
BBX 6 20 0 -5
BITMAP
00
00
00
00
00
00
7C
7C
00
7C
7C
00
00
00
00
00
00
00
00
00
ENDCHAR

STARTCHAR char_0x003E
ENCODING 62
SWIDTH 561 0
DWIDTH 6 0
BBX 6 20 0 -5
BITMAP
00
00
00
00
00
60
30
18
0C
0C
18
30
60
00
00
00
00
00
00
00
ENDCHAR

STARTCHAR char_0x003F
ENCODING 63
SWIDTH 561 0
DWIDTH 6 0
BBX 6 20 0 -5
BITMAP
00
00
00
00
38
6C
6C
0C
0C
18
30
30
00
30
30
00
00
00
00
00
ENDCHAR

STARTCHAR char_0x0040
ENCODING 64
SWIDTH 561 0
DWIDTH 6 0
BBX 6 20 0 -5
BITMAP
00
00
00
00
38
6C
6C
7C
7C
7C
7C
68
60
60
38
00
00
00
00
00
ENDCHAR

STARTCHAR char_0x0041
ENCODING 65
SWIDTH 561 0
DWIDTH 6 0
BBX 6 20 0 -5
BITMAP
00
00
00
00
10
38
6C
6C
6C
6C
7C
6C
6C
6C
6C
00
00
00
00
00
ENDCHAR

STARTCHAR char_0x0042
ENCODING 66
SWIDTH 561 0
DWIDTH 6 0
BBX 6 20 0 -5
BITMAP
00
00
00
00
78
6C
6C
6C
6C
78
6C
6C
6C
6C
78
00
00
00
00
00
ENDCHAR

STARTCHAR char_0x0043
ENCODING 67
SWIDTH 561 0
DWIDTH 6 0
BBX 6 20 0 -5
BITMAP
00
00
00
00
38
6C
6C
60
60
60
60
60
6C
6C
38
00
00
00
00
00
ENDCHAR

STARTCHAR char_0x0044
ENCODING 68
SWIDTH 561 0
DWIDTH 6 0
BBX 6 20 0 -5
BITMAP
00
00
00
00
78
6C
6C
6C
6C
6C
6C
6C
6C
6C
78
00
00
00
00
00
ENDCHAR

STARTCHAR char_0x0045
ENCODING 69
SWIDTH 561 0
DWIDTH 6 0
BBX 6 20 0 -5
BITMAP
00
00
00
00
7C
60
60
60
60
78
60
60
60
60
7C
00
00
00
00
00
ENDCHAR

STARTCHAR char_0x0046
ENCODING 70
SWIDTH 561 0
DWIDTH 6 0
BBX 6 20 0 -5
BITMAP
00
00
00
00
7C
60
60
60
60
78
60
60
60
60
60
00
00
00
00
00
ENDCHAR

STARTCHAR char_0x0047
ENCODING 71
SWIDTH 561 0
DWIDTH 6 0
BBX 6 20 0 -5
BITMAP
00
00
00
00
38
6C
6C
60
60
6C
6C
6C
6C
6C
3C
00
00
00
00
00
ENDCHAR

STARTCHAR char_0x0048
ENCODING 72
SWIDTH 561 0
DWIDTH 6 0
BBX 6 20 0 -5
BITMAP
00
00
00
00
6C
6C
6C
6C
6C
7C
6C
6C
6C
6C
6C
00
00
00
00
00
ENDCHAR

STARTCHAR char_0x0049
ENCODING 73
SWIDTH 561 0
DWIDTH 6 0
BBX 6 20 0 -5
BITMAP
00
00
00
00
3C
18
18
18
18
18
18
18
18
18
3C
00
00
00
00
00
ENDCHAR

STARTCHAR char_0x004A
ENCODING 74
SWIDTH 561 0
DWIDTH 6 0
BBX 6 20 0 -5
BITMAP
00
00
00
00
1C
0C
0C
0C
0C
0C
0C
0C
6C
6C
38
00
00
00
00
00
ENDCHAR

STARTCHAR char_0x004B
ENCODING 75
SWIDTH 561 0
DWIDTH 6 0
BBX 6 20 0 -5
BITMAP
00
00
00
00
6C
6C
6C
68
70
70
68
6C
6C
6C
6C
00
00
00
00
00
ENDCHAR

STARTCHAR char_0x004C
ENCODING 76
SWIDTH 561 0
DWIDTH 6 0
BBX 6 20 0 -5
BITMAP
00
00
00
00
60
60
60
60
60
60
60
60
60
60
7C
00
00
00
00
00
ENDCHAR

STARTCHAR char_0x004D
ENCODING 77
SWIDTH 561 0
DWIDTH 6 0
BBX 6 20 0 -5
BITMAP
00
00
00
00
44
6C
7C
7C
7C
7C
6C
6C
6C
6C
6C
00
00
00
00
00
ENDCHAR

STARTCHAR char_0x004E
ENCODING 78
SWIDTH 561 0
DWIDTH 6 0
BBX 6 20 0 -5
BITMAP
00
00
00
00
4C
6C
6C
7C
7C
7C
7C
7C
6C
6C
64
00
00
00
00
00
ENDCHAR

STARTCHAR char_0x004F
ENCODING 79
SWIDTH 561 0
DWIDTH 6 0
BBX 6 20 0 -5
BITMAP
00
00
00
00
38
6C
6C
6C
6C
6C
6C
6C
6C
6C
38
00
00
00
00
00
ENDCHAR

STARTCHAR char_0x0050
ENCODING 80
SWIDTH 561 0
DWIDTH 6 0
BBX 6 20 0 -5
BITMAP
00
00
00
00
78
6C
6C
6C
6C
6C
6C
78
60
60
60
00
00
00
00
00
ENDCHAR

STARTCHAR char_0x0051
ENCODING 81
SWIDTH 561 0
DWIDTH 6 0
BBX 6 20 0 -5
BITMAP
00
00
00
00
38
6C
6C
6C
6C
6C
6C
6C
6C
6C
38
1C
00
00
00
00
ENDCHAR

STARTCHAR char_0x0052
ENCODING 82
SWIDTH 561 0
DWIDTH 6 0
BBX 6 20 0 -5
BITMAP
00
00
00
00
78
6C
6C
6C
6C
78
6C
6C
6C
6C
6C
00
00
00
00
00
ENDCHAR

STARTCHAR char_0x0053
ENCODING 83
SWIDTH 561 0
DWIDTH 6 0
BBX 6 20 0 -5
BITMAP
00
00
00
00
38
6C
6C
60
60
38
0C
0C
6C
6C
38
00
00
00
00
00
ENDCHAR

STARTCHAR char_0x0054
ENCODING 84
SWIDTH 561 0
DWIDTH 6 0
BBX 6 20 0 -5
BITMAP
00
00
00
00
78
30
30
30
30
30
30
30
30
30
30
00
00
00
00
00
ENDCHAR

STARTCHAR char_0x0055
ENCODING 85
SWIDTH 561 0
DWIDTH 6 0
BBX 6 20 0 -5
BITMAP
00
00
00
00
6C
6C
6C
6C
6C
6C
6C
6C
6C
6C
38
00
00
00
00
00
ENDCHAR

STARTCHAR char_0x0056
ENCODING 86
SWIDTH 561 0
DWIDTH 6 0
BBX 6 20 0 -5
BITMAP
00
00
00
00
6C
6C
6C
6C
6C
6C
6C
6C
6C
38
10
00
00
00
00
00
ENDCHAR

STARTCHAR char_0x0057
ENCODING 87
SWIDTH 561 0
DWIDTH 6 0
BBX 6 20 0 -5
BITMAP
00
00
00
00
6C
6C
6C
6C
6C
7C
7C
7C
7C
6C
44
00
00
00
00
00
ENDCHAR

STARTCHAR char_0x0058
ENCODING 88
SWIDTH 561 0
DWIDTH 6 0
BBX 6 20 0 -5
BITMAP
00
00
00
00
6C
6C
6C
6C
6C
38
6C
6C
6C
6C
6C
00
00
00
00
00
ENDCHAR

STARTCHAR char_0x0059
ENCODING 89
SWIDTH 561 0
DWIDTH 6 0
BBX 6 20 0 -5
BITMAP
00
00
00
00
6C
6C
6C
6C
6C
6C
38
38
38
38
38
00
00
00
00
00
ENDCHAR

STARTCHAR char_0x005A
ENCODING 90
SWIDTH 561 0
DWIDTH 6 0
BBX 6 20 0 -5
BITMAP
00
00
00
00
7C
0C
18
18
18
30
30
30
60
60
7C
00
00
00
00
00
ENDCHAR

STARTCHAR char_0x005B
ENCODING 91
SWIDTH 561 0
DWIDTH 6 0
BBX 6 20 0 -5
BITMAP
00
00
00
78
60
60
60
60
60
60
60
60
60
60
60
78
00
00
00
00
ENDCHAR

STARTCHAR char_0x005C
ENCODING 92
SWIDTH 561 0
DWIDTH 6 0
BBX 6 20 0 -5
BITMAP
00
00
00
60
60
60
30
30
30
18
18
18
0C
0C
0C
00
00
00
00
00
ENDCHAR

STARTCHAR char_0x005D
ENCODING 93
SWIDTH 561 0
DWIDTH 6 0
BBX 6 20 0 -5
BITMAP
00
00
00
78
18
18
18
18
18
18
18
18
18
18
18
78
00
00
00
00
ENDCHAR

STARTCHAR char_0x005E
ENCODING 94
SWIDTH 561 0
DWIDTH 6 0
BBX 6 20 0 -5
BITMAP
00
10
38
6C
00
00
00
00
00
00
00
00
00
00
00
00
00
00
00
00
ENDCHAR

STARTCHAR char_0x005F
ENCODING 95
SWIDTH 561 0
DWIDTH 6 0
BBX 6 20 0 -5
BITMAP
00
00
00
00
00
00
00
00
00
00
00
00
00
7C
7C
00
00
00
00
00
ENDCHAR

STARTCHAR char_0x0060
ENCODING 96
SWIDTH 561 0
DWIDTH 6 0
BBX 6 20 0 -5
BITMAP
00
30
30
18
00
00
00
00
00
00
00
00
00
00
00
00
00
00
00
00
ENDCHAR

STARTCHAR char_0x0061
ENCODING 97
SWIDTH 561 0
DWIDTH 6 0
BBX 6 20 0 -5
BITMAP
00
00
00
00
00
00
00
38
6C
0C
3C
6C
6C
6C
3C
00
00
00
00
00
ENDCHAR

STARTCHAR char_0x0062
ENCODING 98
SWIDTH 561 0
DWIDTH 6 0
BBX 6 20 0 -5
BITMAP
00
00
00
00
60
60
60
78
6C
6C
6C
6C
6C
6C
78
00
00
00
00
00
ENDCHAR

STARTCHAR char_0x0063
ENCODING 99
SWIDTH 561 0
DWIDTH 6 0
BBX 6 20 0 -5
BITMAP
00
00
00
00
00
00
00
38
6C
6C
60
60
6C
6C
38
00
00
00
00
00
ENDCHAR

STARTCHAR char_0x0064
ENCODING 100
SWIDTH 561 0
DWIDTH 6 0
BBX 6 20 0 -5
BITMAP
00
00
00
00
0C
0C
0C
3C
6C
6C
6C
6C
6C
6C
3C
00
00
00
00
00
ENDCHAR

STARTCHAR char_0x0065
ENCODING 101
SWIDTH 561 0
DWIDTH 6 0
BBX 6 20 0 -5
BITMAP
00
00
00
00
00
00
00
38
6C
6C
7C
60
6C
6C
38
00
00
00
00
00
ENDCHAR

STARTCHAR char_0x0066
ENCODING 102
SWIDTH 561 0
DWIDTH 6 0
BBX 6 20 0 -5
BITMAP
00
00
00
00
18
34
34
30
78
30
30
30
30
30
30
00
00
00
00
00
ENDCHAR

STARTCHAR char_0x0067
ENCODING 103
SWIDTH 561 0
DWIDTH 6 0
BBX 6 20 0 -5
BITMAP
00
00
00
00
00
00
00
3C
6C
6C
6C
6C
6C
6C
3C
0C
6C
6C
38
00
ENDCHAR

STARTCHAR char_0x0068
ENCODING 104
SWIDTH 561 0
DWIDTH 6 0
BBX 6 20 0 -5
BITMAP
00
00
00
00
60
60
60
78
6C
6C
6C
6C
6C
6C
6C
00
00
00
00
00
ENDCHAR

STARTCHAR char_0x0069
ENCODING 105
SWIDTH 561 0
DWIDTH 6 0
BBX 6 20 0 -5
BITMAP
00
00
00
00
18
18
00
38
18
18
18
18
18
18
3C
00
00
00
00
00
ENDCHAR

STARTCHAR char_0x006A
ENCODING 106
SWIDTH 561 0
DWIDTH 6 0
BBX 6 20 0 -5
BITMAP
00
00
00
00
0C
0C
00
1C
0C
0C
0C
0C
0C
0C
0C
6C
6C
6C
38
00
ENDCHAR

STARTCHAR char_0x006B
ENCODING 107
SWIDTH 561 0
DWIDTH 6 0
BBX 6 20 0 -5
BITMAP
00
00
00
00
60
60
60
64
6C
78
70
70
78
7C
6C
00
00
00
00
00
ENDCHAR

STARTCHAR char_0x006C
ENCODING 108
SWIDTH 561 0
DWIDTH 6 0
BBX 6 20 0 -5
BITMAP
00
00
00
00
38
18
18
18
18
18
18
18
18
18
3C
00
00
00
00
00
ENDCHAR

STARTCHAR char_0x006D
ENCODING 109
SWIDTH 561 0
DWIDTH 6 0
BBX 6 20 0 -5
BITMAP
00
00
00
00
00
00
00
6C
7C
7C
7C
6C
6C
6C
6C
00
00
00
00
00
ENDCHAR

STARTCHAR char_0x006E
ENCODING 110
SWIDTH 561 0
DWIDTH 6 0
BBX 6 20 0 -5
BITMAP
00
00
00
00
00
00
00
78
6C
6C
6C
6C
6C
6C
6C
00
00
00
00
00
ENDCHAR

STARTCHAR char_0x006F
ENCODING 111
SWIDTH 561 0
DWIDTH 6 0
BBX 6 20 0 -5
BITMAP
00
00
00
00
00
00
00
38
6C
6C
6C
6C
6C
6C
38
00
00
00
00
00
ENDCHAR

STARTCHAR char_0x0070
ENCODING 112
SWIDTH 561 0
DWIDTH 6 0
BBX 6 20 0 -5
BITMAP
00
00
00
00
00
00
00
78
6C
6C
6C
6C
6C
6C
78
60
60
60
60
00
ENDCHAR

STARTCHAR char_0x0071
ENCODING 113
SWIDTH 561 0
DWIDTH 6 0
BBX 6 20 0 -5
BITMAP
00
00
00
00
00
00
00
3C
6C
6C
6C
6C
6C
6C
3C
0C
0C
0C
0C
00
ENDCHAR

STARTCHAR char_0x0072
ENCODING 114
SWIDTH 561 0
DWIDTH 6 0
BBX 6 20 0 -5
BITMAP
00
00
00
00
00
00
00
58
6C
6C
60
60
60
60
60
00
00
00
00
00
ENDCHAR

STARTCHAR char_0x0073
ENCODING 115
SWIDTH 561 0
DWIDTH 6 0
BBX 6 20 0 -5
BITMAP
00
00
00
00
00
00
00
38
6C
60
38
0C
6C
6C
38
00
00
00
00
00
ENDCHAR

STARTCHAR char_0x0074
ENCODING 116
SWIDTH 561 0
DWIDTH 6 0
BBX 6 20 0 -5
BITMAP
00
00
00
00
30
30
30
78
30
30
30
30
34
34
18
00
00
00
00
00
ENDCHAR

STARTCHAR char_0x0075
ENCODING 117
SWIDTH 561 0
DWIDTH 6 0
BBX 6 20 0 -5
BITMAP
00
00
00
00
00
00
00
6C
6C
6C
6C
6C
6C
6C
38
00
00
00
00
00
ENDCHAR

STARTCHAR char_0x0076
ENCODING 118
SWIDTH 561 0
DWIDTH 6 0
BBX 6 20 0 -5
BITMAP
00
00
00
00
00
00
00
6C
6C
6C
6C
6C
6C
38
10
00
00
00
00
00
ENDCHAR

STARTCHAR char_0x0077
ENCODING 119
SWIDTH 561 0
DWIDTH 6 0
BBX 6 20 0 -5
BITMAP
00
00
00
00
00
00
00
6C
6C
6C
7C
7C
7C
6C
44
00
00
00
00
00
ENDCHAR

STARTCHAR char_0x0078
ENCODING 120
SWIDTH 561 0
DWIDTH 6 0
BBX 6 20 0 -5
BITMAP
00
00
00
00
00
00
00
6C
6C
6C
38
6C
6C
6C
6C
00
00
00
00
00
ENDCHAR

STARTCHAR char_0x0079
ENCODING 121
SWIDTH 561 0
DWIDTH 6 0
BBX 6 20 0 -5
BITMAP
00
00
00
00
00
00
00
6C
6C
6C
6C
6C
6C
6C
3C
0C
6C
6C
38
00
ENDCHAR

STARTCHAR char_0x007A
ENCODING 122
SWIDTH 561 0
DWIDTH 6 0
BBX 6 20 0 -5
BITMAP
00
00
00
00
00
00
00
7C
0C
18
18
30
30
60
7C
00
00
00
00
00
ENDCHAR

STARTCHAR char_0x007B
ENCODING 123
SWIDTH 561 0
DWIDTH 6 0
BBX 6 20 0 -5
BITMAP
00
00
00
18
30
30
30
30
18
70
18
30
30
30
30
18
00
00
00
00
ENDCHAR

STARTCHAR char_0x007C
ENCODING 124
SWIDTH 561 0
DWIDTH 6 0
BBX 6 20 0 -5
BITMAP
00
00
00
30
30
30
30
30
30
30
30
30
30
30
30
30
00
00
00
00
ENDCHAR

STARTCHAR char_0x007D
ENCODING 125
SWIDTH 561 0
DWIDTH 6 0
BBX 6 20 0 -5
BITMAP
00
00
00
60
30
30
30
30
60
38
60
30
30
30
30
60
00
00
00
00
ENDCHAR

STARTCHAR char_0x007E
ENCODING 126
SWIDTH 561 0
DWIDTH 6 0
BBX 6 20 0 -5
BITMAP
00
34
7C
68
00
00
00
00
00
00
00
00
00
00
00
00
00
00
00
00
ENDCHAR

STARTCHAR char_0x0080
ENCODING 128
SWIDTH 561 0
DWIDTH 6 0
BBX 6 20 0 -5
BITMAP
00
00
00
00
3C
68
68
68
68
6C
68
68
68
68
3C
00
00
00
00
00
ENDCHAR

STARTCHAR char_0x0081
ENCODING 129
SWIDTH 561 0
DWIDTH 6 0
BBX 6 20 0 -5
BITMAP
00
00
00
00
00
00
00
38
5C
5C
5C
58
58
58
3C
00
00
00
00
00
ENDCHAR

STARTCHAR char_0x0082
ENCODING 130
SWIDTH 561 0
DWIDTH 6 0
BBX 6 20 0 -5
BITMAP
00
6C
6C
00
6C
6C
6C
6C
6C
6C
6C
38
38
38
38
00
00
00
00
00
ENDCHAR

STARTCHAR char_0x00A1
ENCODING 161
SWIDTH 561 0
DWIDTH 6 0
BBX 6 20 0 -5
BITMAP
00
00
00
00
30
30
00
30
30
30
30
30
30
30
30
30
00
00
00
00
ENDCHAR

STARTCHAR char_0x00A2
ENCODING 162
SWIDTH 561 0
DWIDTH 6 0
BBX 6 20 0 -5
BITMAP
00
00
00
00
10
10
38
6C
6C
60
6C
6C
38
10
10
00
00
00
00
00
ENDCHAR

STARTCHAR char_0x00A3
ENCODING 163
SWIDTH 561 0
DWIDTH 6 0
BBX 6 20 0 -5
BITMAP
00
00
00
00
18
34
34
30
30
30
78
30
30
34
6C
00
00
00
00
00
ENDCHAR

STARTCHAR char_0x00A4
ENCODING 164
SWIDTH 561 0
DWIDTH 6 0
BBX 6 20 0 -5
BITMAP
00
00
00
00
00
00
44
38
38
38
38
44
00
00
00
00
00
00
00
00
ENDCHAR

STARTCHAR char_0x00A5
ENCODING 165
SWIDTH 561 0
DWIDTH 6 0
BBX 6 20 0 -5
BITMAP
00
00
00
00
6C
6C
6C
6C
6C
38
7C
38
7C
38
38
00
00
00
00
00
ENDCHAR

STARTCHAR char_0x00A6
ENCODING 166
SWIDTH 561 0
DWIDTH 6 0
BBX 6 20 0 -5
BITMAP
00
00
00
30
30
30
30
30
30
00
30
30
30
30
30
30
00
00
00
00
ENDCHAR

STARTCHAR char_0x00A7
ENCODING 167
SWIDTH 561 0
DWIDTH 6 0
BBX 6 20 0 -5
BITMAP
00
00
00
38
6C
64
70
38
5C
6C
74
38
1C
4C
6C
38
00
00
00
00
ENDCHAR

STARTCHAR char_0x00A8
ENCODING 168
SWIDTH 561 0
DWIDTH 6 0
BBX 6 20 0 -5
BITMAP
00
6C
6C
00
00
00
00
00
00
00
00
00
00
00
00
00
00
00
00
00
ENDCHAR

STARTCHAR char_0x00A9
ENCODING 169
SWIDTH 561 0
DWIDTH 6 0
BBX 6 20 0 -5
BITMAP
00
00
00
38
44
00
38
6C
60
60
6C
38
00
44
38
00
00
00
00
00
ENDCHAR

STARTCHAR char_0x00AA
ENCODING 170
SWIDTH 561 0
DWIDTH 6 0
BBX 6 20 0 -5
BITMAP
00
00
38
0C
3C
6C
3C
00
7C
7C
00
00
00
00
00
00
00
00
00
00
ENDCHAR

STARTCHAR char_0x00AB
ENCODING 171
SWIDTH 561 0
DWIDTH 6 0
BBX 6 20 0 -5
BITMAP
00
00
00
00
00
00
24
6C
6C
48
6C
6C
24
00
00
00
00
00
00
00
ENDCHAR

STARTCHAR char_0x00AC
ENCODING 172
SWIDTH 561 0
DWIDTH 6 0
BBX 6 20 0 -5
BITMAP
00
7C
7C
0C
00
00
00
00
00
00
00
00
00
00
00
00
00
00
00
00
ENDCHAR

STARTCHAR char_0x00AD
ENCODING 173
SWIDTH 561 0
DWIDTH 6 0
BBX 6 20 0 -5
BITMAP
00
00
00
00
00
00
00
00
38
38
00
00
00
00
00
00
00
00
00
00
ENDCHAR

STARTCHAR char_0x00AE
ENCODING 174
SWIDTH 561 0
DWIDTH 6 0
BBX 6 20 0 -5
BITMAP
00
00
00
00
00
00
00
78
6C
6C
6C
78
6C
6C
00
00
00
00
00
00
ENDCHAR

STARTCHAR char_0x00AF
ENCODING 175
SWIDTH 561 0
DWIDTH 6 0
BBX 6 20 0 -5
BITMAP
00
7C
7C
00
00
00
00
00
00
00
00
00
00
00
00
00
00
00
00
00
ENDCHAR

STARTCHAR char_0x00B0
ENCODING 176
SWIDTH 561 0
DWIDTH 6 0
BBX 6 20 0 -5
BITMAP
00
00
10
38
6C
38
10
00
00
00
00
00
00
00
00
00
00
00
00
00
ENDCHAR

STARTCHAR char_0x00B1
ENCODING 177
SWIDTH 561 0
DWIDTH 6 0
BBX 6 20 0 -5
BITMAP
00
00
00
00
00
00
30
30
78
30
30
00
78
78
00
00
00
00
00
00
ENDCHAR

STARTCHAR char_0x00B2
ENCODING 178
SWIDTH 561 0
DWIDTH 6 0
BBX 6 20 0 -5
BITMAP
00
30
58
18
30
60
78
00
00
00
00
00
00
00
00
00
00
00
00
00
ENDCHAR

STARTCHAR char_0x00B3
ENCODING 179
SWIDTH 561 0
DWIDTH 6 0
BBX 6 20 0 -5
BITMAP
00
70
18
30
18
58
30
00
00
00
00
00
00
00
00
00
00
00
00
00
ENDCHAR

STARTCHAR char_0x00B4
ENCODING 180
SWIDTH 561 0
DWIDTH 6 0
BBX 6 20 0 -5
BITMAP
00
18
30
00
00
00
00
00
00
00
00
00
00
00
00
00
00
00
00
00
ENDCHAR

STARTCHAR char_0x00B5
ENCODING 181
SWIDTH 561 0
DWIDTH 6 0
BBX 6 20 0 -5
BITMAP
00
00
00
00
00
00
00
00
6C
6C
6C
6C
6C
6C
7C
40
00
00
00
00
ENDCHAR

STARTCHAR char_0x00B6
ENCODING 182
SWIDTH 561 0
DWIDTH 6 0
BBX 6 20 0 -5
BITMAP
00
00
00
1C
34
74
74
74
74
34
34
34
34
34
34
00
00
00
00
00
ENDCHAR

STARTCHAR char_0x00B7
ENCODING 183
SWIDTH 561 0
DWIDTH 6 0
BBX 6 20 0 -5
BITMAP
00
00
00
00
00
00
00
00
30
30
00
00
00
00
00
00
00
00
00
00
ENDCHAR

STARTCHAR char_0x00B8
ENCODING 184
SWIDTH 561 0
DWIDTH 6 0
BBX 6 20 0 -5
BITMAP
00
00
00
00
00
00
00
00
00
00
00
00
00
30
30
70
00
00
00
00
ENDCHAR

STARTCHAR char_0x00B9
ENCODING 185
SWIDTH 561 0
DWIDTH 6 0
BBX 6 20 0 -5
BITMAP
00
30
70
30
30
30
78
00
00
00
00
00
00
00
00
00
00
00
00
00
ENDCHAR

STARTCHAR char_0x00BA
ENCODING 186
SWIDTH 561 0
DWIDTH 6 0
BBX 6 20 0 -5
BITMAP
00
38
6C
6C
6C
38
00
7C
7C
00
00
00
00
00
00
00
00
00
00
00
ENDCHAR

STARTCHAR char_0x00BB
ENCODING 187
SWIDTH 561 0
DWIDTH 6 0
BBX 6 20 0 -5
BITMAP
00
00
00
00
00
00
48
6C
6C
24
6C
6C
48
00
00
00
00
00
00
00
ENDCHAR

STARTCHAR char_0x00BC
ENCODING 188
SWIDTH 561 0
DWIDTH 6 0
BBX 6 20 0 -5
BITMAP
00
00
00
00
00
30
70
34
78
14
2C
5C
3C
7C
0C
00
00
00
00
00
ENDCHAR

STARTCHAR char_0x00BD
ENCODING 189
SWIDTH 561 0
DWIDTH 6 0
BBX 6 20 0 -5
BITMAP
00
00
00
00
00
30
70
34
78
18
3C
6C
18
30
3C
00
00
00
00
00
ENDCHAR

STARTCHAR char_0x00BE
ENCODING 190
SWIDTH 561 0
DWIDTH 6 0
BBX 6 20 0 -5
BITMAP
00
00
00
00
00
70
10
34
18
74
2C
5C
2C
7C
0C
00
00
00
00
00
ENDCHAR

STARTCHAR char_0x00BF
ENCODING 191
SWIDTH 561 0
DWIDTH 6 0
BBX 6 20 0 -5
BITMAP
00
00
00
00
18
18
00
18
18
38
70
60
6C
6C
6C
38
00
00
00
00
ENDCHAR

STARTCHAR char_0x00C0
ENCODING 192
SWIDTH 561 0
DWIDTH 6 0
BBX 6 20 0 -5
BITMAP
00
30
18
00
10
38
6C
6C
6C
6C
7C
6C
6C
6C
6C
00
00
00
00
00
ENDCHAR

STARTCHAR char_0x00C1
ENCODING 193
SWIDTH 561 0
DWIDTH 6 0
BBX 6 20 0 -5
BITMAP
00
18
30
00
10
38
6C
6C
6C
6C
7C
6C
6C
6C
6C
00
00
00
00
00
ENDCHAR

STARTCHAR char_0x00C2
ENCODING 194
SWIDTH 561 0
DWIDTH 6 0
BBX 6 20 0 -5
BITMAP
00
10
38
00
10
38
6C
6C
6C
6C
7C
6C
6C
6C
6C
00
00
00
00
00
ENDCHAR

STARTCHAR char_0x00C3
ENCODING 195
SWIDTH 561 0
DWIDTH 6 0
BBX 6 20 0 -5
BITMAP
00
34
58
00
10
38
6C
6C
6C
6C
7C
6C
6C
6C
6C
00
00
00
00
00
ENDCHAR

STARTCHAR char_0x00C4
ENCODING 196
SWIDTH 561 0
DWIDTH 6 0
BBX 6 20 0 -5
BITMAP
00
6C
6C
00
10
38
6C
6C
6C
6C
7C
6C
6C
6C
6C
00
00
00
00
00
ENDCHAR

STARTCHAR char_0x00C5
ENCODING 197
SWIDTH 561 0
DWIDTH 6 0
BBX 6 20 0 -5
BITMAP
00
30
30
00
10
38
6C
6C
6C
6C
7C
6C
6C
6C
6C
00
00
00
00
00
ENDCHAR

STARTCHAR char_0x00C6
ENCODING 198
SWIDTH 561 0
DWIDTH 6 0
BBX 6 20 0 -5
BITMAP
00
00
00
00
1C
28
68
68
68
7C
68
68
68
68
6C
00
00
00
00
00
ENDCHAR

STARTCHAR char_0x00C7
ENCODING 199
SWIDTH 561 0
DWIDTH 6 0
BBX 6 20 0 -5
BITMAP
00
00
00
00
38
6C
6C
60
60
60
60
6C
6C
6C
38
30
60
00
00
00
ENDCHAR

STARTCHAR char_0x00C8
ENCODING 200
SWIDTH 561 0
DWIDTH 6 0
BBX 6 20 0 -5
BITMAP
00
30
18
00
7C
60
60
60
60
78
60
60
60
60
7C
00
00
00
00
00
ENDCHAR

STARTCHAR char_0x00C9
ENCODING 201
SWIDTH 561 0
DWIDTH 6 0
BBX 6 20 0 -5
BITMAP
00
18
30
00
7C
60
60
60
60
78
60
60
60
60
7C
00
00
00
00
00
ENDCHAR

STARTCHAR char_0x00CA
ENCODING 202
SWIDTH 561 0
DWIDTH 6 0
BBX 6 20 0 -5
BITMAP
00
10
38
00
7C
60
60
60
60
78
60
60
60
60
7C
00
00
00
00
00
ENDCHAR

STARTCHAR char_0x00CB
ENCODING 203
SWIDTH 561 0
DWIDTH 6 0
BBX 6 20 0 -5
BITMAP
00
6C
6C
00
7C
60
60
60
78
60
60
60
60
60
7C
00
00
00
00
00
ENDCHAR

STARTCHAR char_0x00CC
ENCODING 204
SWIDTH 561 0
DWIDTH 6 0
BBX 6 20 0 -5
BITMAP
00
30
18
00
3C
18
18
18
18
18
18
18
18
18
3C
00
00
00
00
00
ENDCHAR

STARTCHAR char_0x00CD
ENCODING 205
SWIDTH 561 0
DWIDTH 6 0
BBX 6 20 0 -5
BITMAP
00
0C
18
00
3C
18
18
18
18
18
18
18
18
18
3C
00
00
00
00
00
ENDCHAR

STARTCHAR char_0x00CE
ENCODING 206
SWIDTH 561 0
DWIDTH 6 0
BBX 6 20 0 -5
BITMAP
00
18
3C
00
3C
18
18
18
18
18
18
18
18
18
3C
00
00
00
00
00
ENDCHAR

STARTCHAR char_0x00CF
ENCODING 207
SWIDTH 561 0
DWIDTH 6 0
BBX 6 20 0 -5
BITMAP
00
6C
6C
00
3C
18
18
18
18
18
18
18
18
18
3C
00
00
00
00
00
ENDCHAR

STARTCHAR char_0x00D0
ENCODING 208
SWIDTH 561 0
DWIDTH 6 0
BBX 6 20 0 -5
BITMAP
00
00
00
00
38
34
34
34
34
7C
34
34
34
34
38
00
00
00
00
00
ENDCHAR

STARTCHAR char_0x00D1
ENCODING 209
SWIDTH 561 0
DWIDTH 6 0
BBX 6 20 0 -5
BITMAP
00
34
58
00
4C
6C
6C
7C
7C
7C
7C
7C
6C
6C
64
00
00
00
00
00
ENDCHAR

STARTCHAR char_0x00D2
ENCODING 210
SWIDTH 561 0
DWIDTH 6 0
BBX 6 20 0 -5
BITMAP
00
30
18
00
38
6C
6C
6C
6C
6C
6C
6C
6C
6C
38
00
00
00
00
00
ENDCHAR

STARTCHAR char_0x00D3
ENCODING 211
SWIDTH 561 0
DWIDTH 6 0
BBX 6 20 0 -5
BITMAP
00
18
30
00
38
6C
6C
6C
6C
6C
6C
6C
6C
6C
38
00
00
00
00
00
ENDCHAR

STARTCHAR char_0x00D4
ENCODING 212
SWIDTH 561 0
DWIDTH 6 0
BBX 6 20 0 -5
BITMAP
00
10
38
00
38
6C
6C
6C
6C
6C
6C
6C
6C
6C
38
00
00
00
00
00
ENDCHAR

STARTCHAR char_0x00D5
ENCODING 213
SWIDTH 561 0
DWIDTH 6 0
BBX 6 20 0 -5
BITMAP
00
34
58
00
38
6C
6C
6C
6C
6C
6C
6C
6C
6C
38
00
00
00
00
00
ENDCHAR

STARTCHAR char_0x00D6
ENCODING 214
SWIDTH 561 0
DWIDTH 6 0
BBX 6 20 0 -5
BITMAP
00
6C
6C
00
38
6C
6C
6C
6C
6C
6C
6C
6C
6C
38
00
00
00
00
00
ENDCHAR

STARTCHAR char_0x00D7
ENCODING 215
SWIDTH 561 0
DWIDTH 6 0
BBX 6 20 0 -5
BITMAP
00
00
00
00
00
00
00
00
6C
7C
38
7C
6C
00
00
00
00
00
00
00
ENDCHAR

STARTCHAR char_0x00D8
ENCODING 216
SWIDTH 561 0
DWIDTH 6 0
BBX 6 20 0 -5
BITMAP
00
00
00
00
14
28
6C
6C
7C
7C
7C
6C
6C
28
50
00
00
00
00
00
ENDCHAR

STARTCHAR char_0x00D9
ENCODING 217
SWIDTH 561 0
DWIDTH 6 0
BBX 6 20 0 -5
BITMAP
00
30
18
00
6C
6C
6C
6C
6C
6C
6C
6C
6C
6C
38
00
00
00
00
00
ENDCHAR

STARTCHAR char_0x00DA
ENCODING 218
SWIDTH 561 0
DWIDTH 6 0
BBX 6 20 0 -5
BITMAP
00
18
30
00
6C
6C
6C
6C
6C
6C
6C
6C
6C
6C
38
00
00
00
00
00
ENDCHAR

STARTCHAR char_0x00DB
ENCODING 219
SWIDTH 561 0
DWIDTH 6 0
BBX 6 20 0 -5
BITMAP
00
10
38
00
6C
6C
6C
6C
6C
6C
6C
6C
6C
6C
38
00
00
00
00
00
ENDCHAR

STARTCHAR char_0x00DC
ENCODING 220
SWIDTH 561 0
DWIDTH 6 0
BBX 6 20 0 -5
BITMAP
00
6C
6C
00
6C
6C
6C
6C
6C
6C
6C
6C
6C
6C
38
00
00
00
00
00
ENDCHAR

STARTCHAR char_0x00DD
ENCODING 221
SWIDTH 561 0
DWIDTH 6 0
BBX 6 20 0 -5
BITMAP
00
18
30
00
6C
6C
6C
6C
6C
6C
6C
38
38
38
38
00
00
00
00
00
ENDCHAR

STARTCHAR char_0x00DE
ENCODING 222
SWIDTH 561 0
DWIDTH 6 0
BBX 6 20 0 -5
BITMAP
00
00
00
00
F0
60
78
6C
6C
6C
6C
78
60
60
F0
00
00
00
00
00
ENDCHAR

STARTCHAR char_0x00DF
ENCODING 223
SWIDTH 561 0
DWIDTH 6 0
BBX 6 20 0 -5
BITMAP
00
00
00
00
50
20
50
18
3C
6C
6C
6C
6C
6C
38
00
00
00
00
00
ENDCHAR

STARTCHAR char_0x00E0
ENCODING 224
SWIDTH 561 0
DWIDTH 6 0
BBX 6 20 0 -5
BITMAP
00
00
00
00
30
18
00
38
6C
0C
3C
6C
6C
6C
3C
00
00
00
00
00
ENDCHAR

STARTCHAR char_0x00E1
ENCODING 225
SWIDTH 561 0
DWIDTH 6 0
BBX 6 20 0 -5
BITMAP
00
00
00
00
18
30
00
38
6C
0C
3C
6C
6C
6C
3C
00
00
00
00
00
ENDCHAR

STARTCHAR char_0x00E2
ENCODING 226
SWIDTH 561 0
DWIDTH 6 0
BBX 6 20 0 -5
BITMAP
00
00
00
00
10
38
00
38
6C
0C
3C
6C
6C
6C
3C
00
00
00
00
00
ENDCHAR

STARTCHAR char_0x00E3
ENCODING 227
SWIDTH 561 0
DWIDTH 6 0
BBX 6 20 0 -5
BITMAP
00
00
00
00
34
58
00
38
6C
0C
3C
6C
6C
6C
3C
00
00
00
00
00
ENDCHAR

STARTCHAR char_0x00E4
ENCODING 228
SWIDTH 561 0
DWIDTH 6 0
BBX 6 20 0 -5
BITMAP
00
00
00
00
6C
6C
00
38
6C
0C
3C
6C
6C
6C
3C
00
00
00
00
00
ENDCHAR

STARTCHAR char_0x00E5
ENCODING 229
SWIDTH 561 0
DWIDTH 6 0
BBX 6 20 0 -5
BITMAP
00
00
00
00
18
18
00
38
6C
0C
3C
6C
6C
6C
3C
00
00
00
00
00
ENDCHAR

STARTCHAR char_0x00E6
ENCODING 230
SWIDTH 561 0
DWIDTH 6 0
BBX 6 20 0 -5
BITMAP
00
00
00
00
00
00
00
38
5C
1C
3C
58
58
58
3C
00
00
00
00
00
ENDCHAR

STARTCHAR char_0x00E7
ENCODING 231
SWIDTH 561 0
DWIDTH 6 0
BBX 6 20 0 -5
BITMAP
00
00
00
00
00
00
00
38
6C
6C
60
60
6C
7C
38
18
30
00
00
00
ENDCHAR

STARTCHAR char_0x00E8
ENCODING 232
SWIDTH 561 0
DWIDTH 6 0
BBX 6 20 0 -5
BITMAP
00
00
00
00
30
18
00
38
6C
6C
7C
60
6C
6C
38
00
00
00
00
00
ENDCHAR

STARTCHAR char_0x00E9
ENCODING 233
SWIDTH 561 0
DWIDTH 6 0
BBX 6 20 0 -5
BITMAP
00
00
00
00
18
30
00
38
6C
6C
7C
60
6C
6C
38
00
00
00
00
00
ENDCHAR

STARTCHAR char_0x00EA
ENCODING 234
SWIDTH 561 0
DWIDTH 6 0
BBX 6 20 0 -5
BITMAP
00
00
00
00
10
38
00
38
6C
6C
7C
60
6C
6C
38
00
00
00
00
00
ENDCHAR

STARTCHAR char_0x00EB
ENCODING 235
SWIDTH 561 0
DWIDTH 6 0
BBX 6 20 0 -5
BITMAP
00
00
00
00
6C
6C
00
38
6C
6C
7C
60
6C
6C
38
00
00
00
00
00
ENDCHAR

STARTCHAR char_0x00EC
ENCODING 236
SWIDTH 561 0
DWIDTH 6 0
BBX 6 20 0 -5
BITMAP
00
00
00
00
30
18
00
38
18
18
18
18
18
18
3C
00
00
00
00
00
ENDCHAR

STARTCHAR char_0x00ED
ENCODING 237
SWIDTH 561 0
DWIDTH 6 0
BBX 6 20 0 -5
BITMAP
00
00
00
00
18
30
00
38
18
18
18
18
18
18
3C
00
00
00
00
00
ENDCHAR

STARTCHAR char_0x00EE
ENCODING 238
SWIDTH 561 0
DWIDTH 6 0
BBX 6 20 0 -5
BITMAP
00
00
00
00
10
38
00
38
18
18
18
18
18
18
3C
00
00
00
00
00
ENDCHAR

STARTCHAR char_0x00EF
ENCODING 239
SWIDTH 561 0
DWIDTH 6 0
BBX 6 20 0 -5
BITMAP
00
00
00
00
6C
6C
00
38
18
18
18
18
18
18
3C
00
00
00
00
00
ENDCHAR

STARTCHAR char_0x00F0
ENCODING 240
SWIDTH 561 0
DWIDTH 6 0
BBX 6 20 0 -5
BITMAP
00
00
00
00
50
20
50
18
3C
6C
6C
6C
6C
6C
38
00
00
00
00
00
ENDCHAR

STARTCHAR char_0x00F1
ENCODING 241
SWIDTH 561 0
DWIDTH 6 0
BBX 6 20 0 -5
BITMAP
00
00
00
00
34
58
00
58
6C
6C
6C
6C
6C
6C
6C
00
00
00
00
00
ENDCHAR

STARTCHAR char_0x00F2
ENCODING 242
SWIDTH 561 0
DWIDTH 6 0
BBX 6 20 0 -5
BITMAP
00
00
00
00
30
18
00
38
6C
6C
6C
6C
6C
6C
38
00
00
00
00
00
ENDCHAR

STARTCHAR char_0x00F3
ENCODING 243
SWIDTH 561 0
DWIDTH 6 0
BBX 6 20 0 -5
BITMAP
00
00
00
00
18
30
00
38
6C
6C
6C
6C
6C
6C
38
00
00
00
00
00
ENDCHAR

STARTCHAR char_0x00F4
ENCODING 244
SWIDTH 561 0
DWIDTH 6 0
BBX 6 20 0 -5
BITMAP
00
00
00
00
10
38
00
38
6C
6C
6C
6C
6C
6C
38
00
00
00
00
00
ENDCHAR

STARTCHAR char_0x00F5
ENCODING 245
SWIDTH 561 0
DWIDTH 6 0
BBX 6 20 0 -5
BITMAP
00
00
00
00
34
58
00
38
6C
6C
6C
6C
6C
6C
38
00
00
00
00
00
ENDCHAR

STARTCHAR char_0x00F6
ENCODING 246
SWIDTH 561 0
DWIDTH 6 0
BBX 6 20 0 -5
BITMAP
00
00
00
00
6C
6C
00
38
6C
6C
6C
6C
6C
6C
38
00
00
00
00
00
ENDCHAR

STARTCHAR char_0x00F7
ENCODING 247
SWIDTH 561 0
DWIDTH 6 0
BBX 6 20 0 -5
BITMAP
00
00
00
00
00
10
10
00
7C
7C
00
10
10
00
00
00
00
00
00
00
ENDCHAR

STARTCHAR char_0x00F8
ENCODING 248
SWIDTH 561 0
DWIDTH 6 0
BBX 6 20 0 -5
BITMAP
00
00
00
00
00
00
00
14
38
6C
7C
7C
6C
38
50
00
00
00
00
00
ENDCHAR

STARTCHAR char_0x00F9
ENCODING 249
SWIDTH 561 0
DWIDTH 6 0
BBX 6 20 0 -5
BITMAP
00
00
00
00
30
18
00
6C
6C
6C
6C
6C
6C
6C
38
00
00
00
00
00
ENDCHAR

STARTCHAR char_0x00FA
ENCODING 250
SWIDTH 561 0
DWIDTH 6 0
BBX 6 20 0 -5
BITMAP
00
00
00
00
18
30
00
6C
6C
6C
6C
6C
6C
6C
38
00
00
00
00
00
ENDCHAR

STARTCHAR char_0x00FB
ENCODING 251
SWIDTH 561 0
DWIDTH 6 0
BBX 6 20 0 -5
BITMAP
00
00
00
00
10
38
00
6C
6C
6C
6C
6C
6C
6C
38
00
00
00
00
00
ENDCHAR

STARTCHAR char_0x00FC
ENCODING 252
SWIDTH 561 0
DWIDTH 6 0
BBX 6 20 0 -5
BITMAP
00
00
00
00
6C
6C
00
6C
6C
6C
6C
6C
6C
6C
38
00
00
00
00
00
ENDCHAR

STARTCHAR char_0x00FD
ENCODING 253
SWIDTH 561 0
DWIDTH 6 0
BBX 6 20 0 -5
BITMAP
00
00
00
00
18
30
00
6C
6C
6C
6C
6C
6C
6C
3C
0C
6C
6C
38
00
ENDCHAR

STARTCHAR char_0x00FE
ENCODING 254
SWIDTH 561 0
DWIDTH 6 0
BBX 6 20 0 -5
BITMAP
00
00
00
00
00
00
00
F0
60
78
6C
6C
6C
6C
78
60
60
60
F0
00
ENDCHAR

STARTCHAR char_0x00FF
ENCODING 255
SWIDTH 561 0
DWIDTH 6 0
BBX 6 20 0 -5
BITMAP
00
00
00
00
6C
6C
00
6C
6C
6C
6C
6C
6C
6C
3C
0C
6C
6C
38
00
ENDCHAR

ENDFONT
