STARTFONT 2.1
FONT -DIGITAL-VWSVT0-Medium-R-Normal--20-190-75-75-C-100-DEC-DECtech
SIZE 19 75 75
FONTBOUNDINGBOX 10 20 0 -5

STARTPROPERTIES 25
FONTNAME_REGISTRY ""
FAMILY_NAME "VWSVT0"
FOUNDRY_NAME "DIGITAL"
WEIGHT_NAME "Medium"
SETWIDTH_NAME "Normal"
SLANT "R"
ADD_STYLE_NAME ""
PIXEL_SIZE 20
POINT_SIZE 190
RESOLUTION_X 75
RESOLUTION_Y 75
SPACING "C"
AVERAGE_WIDTH 100
CHARSET_REGISTRY "DEC"
CHARSET_ENCODING "DECtech"
CHARSET_COLLECTIONS "ASCII ISO8859-1"
FULL_NAME "VWSVT0"
COPYRIGHT "Copyright ©1990 by Digital Equipment Corporation"
CAP_HEIGHT 11
X_HEIGHT 8
WEIGHT 10
QUAD_WIDTH 10
DEFAULT_CHAR 0
FONT_DESCENT 5
FONT_ASCENT 15
ENDPROPERTIES

CHARS 180

STARTCHAR char_0x0020
ENCODING 32
SWIDTH 935 0
DWIDTH 10 0
BBX 10 20 0 -5
BITMAP
0000
0000
0000
0000
0000
0000
0000
0000
0000
0000
0000
0000
0000
0000
0000
0000
0000
0000
0000
0000
ENDCHAR

STARTCHAR char_0x0021
ENCODING 33
SWIDTH 935 0
DWIDTH 10 0
BBX 10 20 0 -5
BITMAP
0000
0000
0000
0C00
0C00
0C00
0C00
0C00
0C00
0C00
0C00
0C00
0000
0C00
0C00
0000
0000
0000
0000
0000
ENDCHAR

STARTCHAR char_0x0022
ENCODING 34
SWIDTH 935 0
DWIDTH 10 0
BBX 10 20 0 -5
BITMAP
0000
3300
3300
3300
3300
0000
0000
0000
0000
0000
0000
0000
0000
0000
0000
0000
0000
0000
0000
0000
ENDCHAR

STARTCHAR char_0x0023
ENCODING 35
SWIDTH 935 0
DWIDTH 10 0
BBX 10 20 0 -5
BITMAP
0000
0000
0000
0000
3300
3300
3300
7F80
3300
3300
7F80
3300
3300
3300
0000
0000
0000
0000
0000
0000
ENDCHAR

STARTCHAR char_0x0024
ENCODING 36
SWIDTH 935 0
DWIDTH 10 0
BBX 10 20 0 -5
BITMAP
0000
0000
0000
0000
0400
1F00
3580
3580
3C00
1F00
0780
3580
3580
1F00
0400
0000
0000
0000
0000
0000
ENDCHAR

STARTCHAR char_0x0025
ENCODING 37
SWIDTH 935 0
DWIDTH 10 0
BBX 10 20 0 -5
BITMAP
0000
0000
0000
0000
3000
6B00
6B00
6E00
3600
0C00
0D80
1B40
1B40
3340
3180
0000
0000
0000
0000
0000
ENDCHAR

STARTCHAR char_0x0026
ENCODING 38
SWIDTH 935 0
DWIDTH 10 0
BBX 10 20 0 -5
BITMAP
0000
0000
0000
0000
1800
3400
3400
3400
1800
1C00
3680
6300
6180
72C0
3C40
0000
0000
0000
0000
0000
ENDCHAR

STARTCHAR char_0x0027
ENCODING 39
SWIDTH 935 0
DWIDTH 10 0
BBX 10 20 0 -5
BITMAP
0000
0600
0C00
1800
0000
0000
0000
0000
0000
0000
0000
0000
0000
0000
0000
0000
0000
0000
0000
0000
ENDCHAR

STARTCHAR char_0x0028
ENCODING 40
SWIDTH 935 0
DWIDTH 10 0
BBX 10 20 0 -5
BITMAP
0000
0000
0000
0180
0300
0600
0600
0C00
0C00
0C00
0C00
0C00
0600
0600
0300
0180
0000
0000
0000
0000
ENDCHAR

STARTCHAR char_0x0029
ENCODING 41
SWIDTH 935 0
DWIDTH 10 0
BBX 10 20 0 -5
BITMAP
0000
0000
0000
6000
3000
1800
1800
0C00
0C00
0C00
0C00
0C00
1800
1800
3000
6000
0000
0000
0000
0000
ENDCHAR

STARTCHAR char_0x002A
ENCODING 42
SWIDTH 935 0
DWIDTH 10 0
BBX 10 20 0 -5
BITMAP
0000
0000
0000
0000
0000
0400
2480
1500
0E00
7FC0
0E00
1500
2480
0400
0000
0000
0000
0000
0000
0000
ENDCHAR

STARTCHAR char_0x002B
ENCODING 43
SWIDTH 935 0
DWIDTH 10 0
BBX 10 20 0 -5
BITMAP
0000
0000
0000
0000
0000
0C00
0C00
0C00
0C00
7F80
0C00
0C00
0C00
0C00
0000
0000
0000
0000
0000
0000
ENDCHAR

STARTCHAR char_0x002C
ENCODING 44
SWIDTH 935 0
DWIDTH 10 0
BBX 10 20 0 -5
BITMAP
0000
0000
0000
0000
0000
0000
0000
0000
0000
0000
0000
0000
0000
0C00
0C00
1800
0000
0000
0000
0000
ENDCHAR

STARTCHAR char_0x002D
ENCODING 45
SWIDTH 935 0
DWIDTH 10 0
BBX 10 20 0 -5
BITMAP
0000
0000
0000
0000
0000
0000
0000
0000
0000
7F80
0000
0000
0000
0000
0000
0000
0000
0000
0000
0000
ENDCHAR

STARTCHAR char_0x002E
ENCODING 46
SWIDTH 935 0
DWIDTH 10 0
BBX 10 20 0 -5
BITMAP
0000
0000
0000
0000
0000
0000
0000
0000
0000
0000
0000
0000
0000
0C00
0C00
0000
0000
0000
0000
0000
ENDCHAR

STARTCHAR char_0x002F
ENCODING 47
SWIDTH 935 0
DWIDTH 10 0
BBX 10 20 0 -5
BITMAP
0000
0000
0000
0180
0180
0300
0300
0600
0600
0C00
0C00
1800
1800
3000
3000
0000
0000
0000
0000
0000
ENDCHAR

STARTCHAR char_0x0030
ENCODING 48
SWIDTH 935 0
DWIDTH 10 0
BBX 10 20 0 -5
BITMAP
0000
0000
0000
0000
0E00
1B00
3180
3180
3180
3180
3180
3180
3180
1B00
0E00
0000
0000
0000
0000
0000
ENDCHAR

STARTCHAR char_0x0031
ENCODING 49
SWIDTH 935 0
DWIDTH 10 0
BBX 10 20 0 -5
BITMAP
0000
0000
0000
0000
0600
0E00
1E00
0600
0600
0600
0600
0600
0600
0600
1F80
0000
0000
0000
0000
0000
ENDCHAR

STARTCHAR char_0x0032
ENCODING 50
SWIDTH 935 0
DWIDTH 10 0
BBX 10 20 0 -5
BITMAP
0000
0000
0000
0000
1F00
3180
3180
0180
0300
0600
0C00
1800
3000
3180
3F80
0000
0000
0000
0000
0000
ENDCHAR

STARTCHAR char_0x0033
ENCODING 51
SWIDTH 935 0
DWIDTH 10 0
BBX 10 20 0 -5
BITMAP
0000
0000
0000
0000
1F00
3180
3180
0180
0180
0F00
0180
0180
3180
3180
1F00
0000
0000
0000
0000
0000
ENDCHAR

STARTCHAR char_0x0034
ENCODING 52
SWIDTH 935 0
DWIDTH 10 0
BBX 10 20 0 -5
BITMAP
0000
0000
0000
0000
0300
0300
0700
0700
0F00
1B00
1B00
3300
3F80
0300
0300
0000
0000
0000
0000
0000
ENDCHAR

STARTCHAR char_0x0035
ENCODING 53
SWIDTH 935 0
DWIDTH 10 0
BBX 10 20 0 -5
BITMAP
0000
0000
0000
0000
3F80
3000
3000
3000
3F00
0180
0180
3180
3180
3180
1F00
0000
0000
0000
0000
0000
ENDCHAR

STARTCHAR char_0x0036
ENCODING 54
SWIDTH 935 0
DWIDTH 10 0
BBX 10 20 0 -5
BITMAP
0000
0000
0000
0000
1F00
3180
3180
3000
3F00
3180
3180
3180
3180
3180
1F00
0000
0000
0000
0000
0000
ENDCHAR

STARTCHAR char_0x0037
ENCODING 55
SWIDTH 935 0
DWIDTH 10 0
BBX 10 20 0 -5
BITMAP
0000
0000
0000
0000
3F80
3180
3180
0300
0300
0600
0600
0C00
0C00
1800
1800
0000
0000
0000
0000
0000
ENDCHAR

STARTCHAR char_0x0038
ENCODING 56
SWIDTH 935 0
DWIDTH 10 0
BBX 10 20 0 -5
BITMAP
0000
0000
0000
0000
1F00
3180
3180
3180
1F00
3180
3180
3180
3180
3180
1F00
0000
0000
0000
0000
0000
ENDCHAR

STARTCHAR char_0x0039
ENCODING 57
SWIDTH 935 0
DWIDTH 10 0
BBX 10 20 0 -5
BITMAP
0000
0000
0000
0000
1F00
3180
3180
3180
3180
3180
1F80
0180
3180
3180
1F00
0000
0000
0000
0000
0000
ENDCHAR

STARTCHAR char_0x003A
ENCODING 58
SWIDTH 935 0
DWIDTH 10 0
BBX 10 20 0 -5
BITMAP
0000
0000
0000
0000
0000
0000
0000
0C00
0C00
0000
0000
0000
0000
0C00
0C00
0000
0000
0000
0000
0000
ENDCHAR

STARTCHAR char_0x003B
ENCODING 59
SWIDTH 935 0
DWIDTH 10 0
BBX 10 20 0 -5
BITMAP
0000
0000
0000
0000
0000
0000
0000
0C00
0C00
0000
0000
0000
0000
0C00
0C00
1800
0000
0000
0000
0000
ENDCHAR

STARTCHAR char_0x003C
ENCODING 60
SWIDTH 935 0
DWIDTH 10 0
BBX 10 20 0 -5
BITMAP
0000
0000
0000
0000
0180
0300
0600
0C00
1800
3000
1800
0C00
0600
0300
0180
0000
0000
0000
0000
0000
ENDCHAR

STARTCHAR char_0x003D
ENCODING 61
SWIDTH 935 0
DWIDTH 10 0
BBX 10 20 0 -5
BITMAP
0000
0000
0000
0000
0000
0000
0000
7F80
0000
0000
7F80
0000
0000
0000
0000
0000
0000
0000
0000
0000
ENDCHAR

STARTCHAR char_0x003E
ENCODING 62
SWIDTH 935 0
DWIDTH 10 0
BBX 10 20 0 -5
BITMAP
0000
0000
0000
0000
6000
3000
1800
0C00
0600
0300
0600
0C00
1800
3000
6000
0000
0000
0000
0000
0000
ENDCHAR

STARTCHAR char_0x003F
ENCODING 63
SWIDTH 935 0
DWIDTH 10 0
BBX 10 20 0 -5
BITMAP
0000
0000
0000
1E00
3300
6180
6180
0180
0180
0300
0600
0C00
0000
0C00
0C00
0000
0000
0000
0000
0000
ENDCHAR

STARTCHAR char_0x0040
ENCODING 64
SWIDTH 935 0
DWIDTH 10 0
BBX 10 20 0 -5
BITMAP
0000
0000
0000
0000
3F00
6180
6180
6780
6D80
6D80
6D80
6D80
6780
6000
3F00
0000
0000
0000
0000
0000
ENDCHAR

STARTCHAR char_0x0041
ENCODING 65
SWIDTH 935 0
DWIDTH 10 0
BBX 10 20 0 -5
BITMAP
0000
0000
0000
0000
0C00
1E00
3300
6180
6180
6180
7F80
6180
6180
6180
6180
0000
0000
0000
0000
0000
ENDCHAR

STARTCHAR char_0x0042
ENCODING 66
SWIDTH 935 0
DWIDTH 10 0
BBX 10 20 0 -5
BITMAP
0000
0000
0000
0000
7F00
6180
6180
6180
6180
7F00
6180
6180
6180
6180
7F00
0000
0000
0000
0000
0000
ENDCHAR

STARTCHAR char_0x0043
ENCODING 67
SWIDTH 935 0
DWIDTH 10 0
BBX 10 20 0 -5
BITMAP
0000
0000
0000
0000
3F00
6180
6180
6000
6000
6000
6000
6000
6180
6180
3F00
0000
0000
0000
0000
0000
ENDCHAR

STARTCHAR char_0x0044
ENCODING 68
SWIDTH 935 0
DWIDTH 10 0
BBX 10 20 0 -5
BITMAP
0000
0000
0000
0000
7E00
6300
6180
6180
6180
6180
6180
6180
6180
6300
7E00
0000
0000
0000
0000
0000
ENDCHAR

STARTCHAR char_0x0045
ENCODING 69
SWIDTH 935 0
DWIDTH 10 0
BBX 10 20 0 -5
BITMAP
0000
0000
0000
0000
7F80
6000
6000
6000
6000
7E00
6000
6000
6000
6000
7F80
0000
0000
0000
0000
0000
ENDCHAR

STARTCHAR char_0x0046
ENCODING 70
SWIDTH 935 0
DWIDTH 10 0
BBX 10 20 0 -5
BITMAP
0000
0000
0000
0000
7F80
6000
6000
6000
6000
7E00
6000
6000
6000
6000
6000
0000
0000
0000
0000
0000
ENDCHAR

STARTCHAR char_0x0047
ENCODING 71
SWIDTH 935 0
DWIDTH 10 0
BBX 10 20 0 -5
BITMAP
0000
0000
0000
0000
3F00
6180
6180
6000
6000
6780
6180
6180
6180
6180
3F00
0000
0000
0000
0000
0000
ENDCHAR

STARTCHAR char_0x0048
ENCODING 72
SWIDTH 935 0
DWIDTH 10 0
BBX 10 20 0 -5
BITMAP
0000
0000
0000
0000
6180
6180
6180
6180
6180
7F80
6180
6180
6180
6180
6180
0000
0000
0000
0000
0000
ENDCHAR

STARTCHAR char_0x0049
ENCODING 73
SWIDTH 935 0
DWIDTH 10 0
BBX 10 20 0 -5
BITMAP
0000
0000
0000
0000
7F80
0C00
0C00
0C00
0C00
0C00
0C00
0C00
0C00
0C00
7F80
0000
0000
0000
0000
0000
ENDCHAR

STARTCHAR char_0x004A
ENCODING 74
SWIDTH 935 0
DWIDTH 10 0
BBX 10 20 0 -5
BITMAP
0000
0000
0000
0000
0F80
0300
0300
0300
0300
0300
0300
0300
6300
6300
3E00
0000
0000
0000
0000
0000
ENDCHAR

STARTCHAR char_0x004B
ENCODING 75
SWIDTH 935 0
DWIDTH 10 0
BBX 10 20 0 -5
BITMAP
0000
0000
0000
0000
6180
6300
6600
6C00
7800
7000
7800
6C00
6600
6300
6180
0000
0000
0000
0000
0000
ENDCHAR

STARTCHAR char_0x004C
ENCODING 76
SWIDTH 935 0
DWIDTH 10 0
BBX 10 20 0 -5
BITMAP
0000
0000
0000
0000
6000
6000
6000
6000
6000
6000
6000
6000
6000
6000
7F80
0000
0000
0000
0000
0000
ENDCHAR

STARTCHAR char_0x004D
ENCODING 77
SWIDTH 935 0
DWIDTH 10 0
BBX 10 20 0 -5
BITMAP
0000
0000
0000
0000
6180
7380
7F80
6D80
6D80
6180
6180
6180
6180
6180
6180
0000
0000
0000
0000
0000
ENDCHAR

STARTCHAR char_0x004E
ENCODING 78
SWIDTH 935 0
DWIDTH 10 0
BBX 10 20 0 -5
BITMAP
0000
0000
0000
0000
6180
7180
7180
6980
6980
6580
6580
6380
6380
6180
6180
0000
0000
0000
0000
0000
ENDCHAR

STARTCHAR char_0x004F
ENCODING 79
SWIDTH 935 0
DWIDTH 10 0
BBX 10 20 0 -5
BITMAP
0000
0000
0000
0000
3F00
6180
6180
6180
6180
6180
6180
6180
6180
6180
3F00
0000
0000
0000
0000
0000
ENDCHAR

STARTCHAR char_0x0050
ENCODING 80
SWIDTH 935 0
DWIDTH 10 0
BBX 10 20 0 -5
BITMAP
0000
0000
0000
0000
7E00
6300
6180
6180
6180
6300
7E00
6000
6000
6000
6000
0000
0000
0000
0000
0000
ENDCHAR

STARTCHAR char_0x0051
ENCODING 81
SWIDTH 935 0
DWIDTH 10 0
BBX 10 20 0 -5
BITMAP
0000
0000
0000
0000
1E00
3300
6180
6180
6180
6180
6180
6D80
6780
3700
1F00
0180
0000
0000
0000
0000
ENDCHAR

STARTCHAR char_0x0052
ENCODING 82
SWIDTH 935 0
DWIDTH 10 0
BBX 10 20 0 -5
BITMAP
0000
0000
0000
0000
7E00
6300
6180
6180
6180
6300
7E00
6300
6300
6180
6180
0000
0000
0000
0000
0000
ENDCHAR

STARTCHAR char_0x0053
ENCODING 83
SWIDTH 935 0
DWIDTH 10 0
BBX 10 20 0 -5
BITMAP
0000
0000
0000
0000
3F00
6180
6180
6000
6000
3F00
0180
0180
6180
6180
3F00
0000
0000
0000
0000
0000
ENDCHAR

STARTCHAR char_0x0054
ENCODING 84
SWIDTH 935 0
DWIDTH 10 0
BBX 10 20 0 -5
BITMAP
0000
0000
0000
0000
7F80
0C00
0C00
0C00
0C00
0C00
0C00
0C00
0C00
0C00
0C00
0000
0000
0000
0000
0000
ENDCHAR

STARTCHAR char_0x0055
ENCODING 85
SWIDTH 935 0
DWIDTH 10 0
BBX 10 20 0 -5
BITMAP
0000
0000
0000
0000
6180
6180
6180
6180
6180
6180
6180
6180
6180
6180
3F00
0000
0000
0000
0000
0000
ENDCHAR

STARTCHAR char_0x0056
ENCODING 86
SWIDTH 935 0
DWIDTH 10 0
BBX 10 20 0 -5
BITMAP
0000
0000
0000
0000
6180
6180
6180
6180
6180
6180
6180
6180
3300
1E00
0C00
0000
0000
0000
0000
0000
ENDCHAR

STARTCHAR char_0x0057
ENCODING 87
SWIDTH 935 0
DWIDTH 10 0
BBX 10 20 0 -5
BITMAP
0000
0000
0000
0000
6180
6180
6180
6180
6180
6180
6D80
6D80
6D80
3F00
1200
0000
0000
0000
0000
0000
ENDCHAR

STARTCHAR char_0x0058
ENCODING 88
SWIDTH 935 0
DWIDTH 10 0
BBX 10 20 0 -5
BITMAP
0000
0000
0000
0000
6180
6180
3300
3300
1E00
0C00
1E00
3300
3300
6180
6180
0000
0000
0000
0000
0000
ENDCHAR

STARTCHAR char_0x0059
ENCODING 89
SWIDTH 935 0
DWIDTH 10 0
BBX 10 20 0 -5
BITMAP
0000
0000
0000
0000
6180
6180
6180
6180
6180
3300
1E00
0C00
0C00
0C00
0C00
0000
0000
0000
0000
0000
ENDCHAR

STARTCHAR char_0x005A
ENCODING 90
SWIDTH 935 0
DWIDTH 10 0
BBX 10 20 0 -5
BITMAP
0000
0000
0000
0000
7F80
0180
0180
0300
0600
0C00
1800
3000
6000
6000
7F80
0000
0000
0000
0000
0000
ENDCHAR

STARTCHAR char_0x005B
ENCODING 91
SWIDTH 935 0
DWIDTH 10 0
BBX 10 20 0 -5
BITMAP
0000
0000
0000
0F00
0C00
0C00
0C00
0C00
0C00
0C00
0C00
0C00
0C00
0C00
0C00
0F00
0000
0000
0000
0000
ENDCHAR

STARTCHAR char_0x005C
ENCODING 92
SWIDTH 935 0
DWIDTH 10 0
BBX 10 20 0 -5
BITMAP
0000
0000
0000
3000
3000
1800
1800
0C00
0C00
0600
0600
0300
0300
0180
0180
0000
0000
0000
0000
0000
ENDCHAR

STARTCHAR char_0x005D
ENCODING 93
SWIDTH 935 0
DWIDTH 10 0
BBX 10 20 0 -5
BITMAP
0000
0000
0000
3C00
0C00
0C00
0C00
0C00
0C00
0C00
0C00
0C00
0C00
0C00
0C00
3C00
0000
0000
0000
0000
ENDCHAR

STARTCHAR char_0x005E
ENCODING 94
SWIDTH 935 0
DWIDTH 10 0
BBX 10 20 0 -5
BITMAP
0000
0C00
1E00
3300
6180
0000
0000
0000
0000
0000
0000
0000
0000
0000
0000
0000
0000
0000
0000
0000
ENDCHAR

STARTCHAR char_0x005F
ENCODING 95
SWIDTH 935 0
DWIDTH 10 0
BBX 10 20 0 -5
BITMAP
0000
0000
0000
0000
0000
0000
0000
0000
0000
0000
0000
0000
0000
0000
0000
0000
0000
0000
0000
0000
ENDCHAR

STARTCHAR char_0x0060
ENCODING 96
SWIDTH 935 0
DWIDTH 10 0
BBX 10 20 0 -5
BITMAP
0000
0000
0000
0000
0000
0400
0E00
1F00
3F80
1F00
0E00
0400
0000
0000
0000
0000
0000
0000
0000
0000
ENDCHAR

STARTCHAR char_0x0061
ENCODING 97
SWIDTH 935 0
DWIDTH 10 0
BBX 10 20 0 -5
BITMAP
AA80
AA80
5540
5540
AA80
AA80
5540
5540
AA80
AA80
5540
5540
AA80
AA80
5540
5540
AA80
AA80
5540
5540
ENDCHAR

STARTCHAR char_0x0062
ENCODING 98
SWIDTH 935 0
DWIDTH 10 0
BBX 10 20 0 -5
BITMAP
0000
0000
6C00
6C00
6C00
7C00
6C00
6C00
6C00
0000
0000
1F80
0600
0600
0600
0600
0600
0600
0000
0000
ENDCHAR

STARTCHAR char_0x0063
ENCODING 99
SWIDTH 935 0
DWIDTH 10 0
BBX 10 20 0 -5
BITMAP
0000
0000
3E00
3000
3000
3C00
3000
3000
3000
0000
0000
0F80
0C00
0C00
0F00
0C00
0C00
0C00
0000
0000
ENDCHAR

STARTCHAR char_0x0064
ENCODING 100
SWIDTH 935 0
DWIDTH 10 0
BBX 10 20 0 -5
BITMAP
0000
0000
3C00
6600
6000
6000
6000
6600
3C00
0000
0000
1F00
1980
1980
1F00
1980
1980
1980
0000
0000
ENDCHAR

STARTCHAR char_0x0065
ENCODING 101
SWIDTH 935 0
DWIDTH 10 0
BBX 10 20 0 -5
BITMAP
0000
0000
6000
6000
6000
6000
6000
6000
7C00
0000
0000
0F80
0C00
0C00
0F00
0C00
0C00
0C00
0000
0000
ENDCHAR

STARTCHAR char_0x0066
ENCODING 102
SWIDTH 935 0
DWIDTH 10 0
BBX 10 20 0 -5
BITMAP
0000
0000
1C00
3200
3200
3200
1C00
0000
0000
0000
0000
0000
0000
0000
0000
0000
0000
0000
0000
0000
ENDCHAR

STARTCHAR char_0x0067
ENCODING 103
SWIDTH 935 0
DWIDTH 10 0
BBX 10 20 0 -5
BITMAP
0000
0000
0000
0000
0C00
0C00
0C00
0C00
7F80
0C00
0C00
0C00
0C00
0000
7F80
0000
0000
0000
0000
0000
ENDCHAR

STARTCHAR char_0x0068
ENCODING 104
SWIDTH 935 0
DWIDTH 10 0
BBX 10 20 0 -5
BITMAP
0000
0000
6600
6600
7600
7E00
6E00
6600
6600
0000
0000
0C00
0C00
0C00
0C00
0C00
0C00
0F80
0000
0000
ENDCHAR

STARTCHAR char_0x0069
ENCODING 105
SWIDTH 935 0
DWIDTH 10 0
BBX 10 20 0 -5
BITMAP
0000
0000
6300
6300
3600
3600
1C00
1C00
0800
0000
0000
1F80
0600
0600
0600
0600
0600
0600
0000
0000
ENDCHAR

STARTCHAR char_0x006A
ENCODING 106
SWIDTH 935 0
DWIDTH 10 0
BBX 10 20 0 -5
BITMAP
0C00
0C00
0C00
0C00
0C00
0C00
0C00
0C00
FC00
FC00
0000
0000
0000
0000
0000
0000
0000
0000
0000
0000
ENDCHAR

STARTCHAR char_0x006B
ENCODING 107
SWIDTH 935 0
DWIDTH 10 0
BBX 10 20 0 -5
BITMAP
0000
0000
0000
0000
0000
0000
0000
0000
FC00
FC00
0C00
0C00
0C00
0C00
0C00
0C00
0C00
0C00
0C00
0C00
ENDCHAR

STARTCHAR char_0x006C
ENCODING 108
SWIDTH 935 0
DWIDTH 10 0
BBX 10 20 0 -5
BITMAP
0000
0000
0000
0000
0000
0000
0000
0000
0FC0
0FC0
0C00
0C00
0C00
0C00
0C00
0C00
0C00
0C00
0C00
0C00
ENDCHAR

STARTCHAR char_0x006D
ENCODING 109
SWIDTH 935 0
DWIDTH 10 0
BBX 10 20 0 -5
BITMAP
0C00
0C00
0C00
0C00
0C00
0C00
0C00
0C00
0FC0
0FC0
0000
0000
0000
0000
0000
0000
0000
0000
0000
0000
ENDCHAR

STARTCHAR char_0x006E
ENCODING 110
SWIDTH 935 0
DWIDTH 10 0
BBX 10 20 0 -5
BITMAP
0C00
0C00
0C00
0C00
0C00
0C00
0C00
0C00
FFC0
FFC0
0C00
0C00
0C00
0C00
0C00
0C00
0C00
0C00
0C00
0C00
ENDCHAR

STARTCHAR char_0x006F
ENCODING 111
SWIDTH 935 0
DWIDTH 10 0
BBX 10 20 0 -5
BITMAP
FFC0
FFC0
0000
0000
0000
0000
0000
0000
0000
0000
0000
0000
0000
0000
0000
0000
0000
0000
0000
0000
ENDCHAR

STARTCHAR char_0x0070
ENCODING 112
SWIDTH 935 0
DWIDTH 10 0
BBX 10 20 0 -5
BITMAP
0000
0000
0000
0000
FFC0
FFC0
0000
0000
0000
0000
0000
0000
0000
0000
0000
0000
0000
0000
0000
0000
ENDCHAR

STARTCHAR char_0x0071
ENCODING 113
SWIDTH 935 0
DWIDTH 10 0
BBX 10 20 0 -5
BITMAP
0000
0000
0000
0000
0000
0000
0000
0000
FFC0
FFC0
0000
0000
0000
0000
0000
0000
0000
0000
0000
0000
ENDCHAR

STARTCHAR char_0x0072
ENCODING 114
SWIDTH 935 0
DWIDTH 10 0
BBX 10 20 0 -5
BITMAP
0000
0000
0000
0000
0000
0000
0000
0000
0000
0000
0000
0000
FFC0
FFC0
0000
0000
0000
0000
0000
0000
ENDCHAR

STARTCHAR char_0x0073
ENCODING 115
SWIDTH 935 0
DWIDTH 10 0
BBX 10 20 0 -5
BITMAP
0000
0000
0000
0000
0000
0000
0000
0000
0000
0000
0000
0000
0000
0000
0000
0000
FFC0
FFC0
0000
0000
ENDCHAR

STARTCHAR char_0x0074
ENCODING 116
SWIDTH 935 0
DWIDTH 10 0
BBX 10 20 0 -5
BITMAP
0C00
0C00
0C00
0C00
0C00
0C00
0C00
0C00
0FC0
0FC0
0C00
0C00
0C00
0C00
0C00
0C00
0C00
0C00
0C00
0C00
ENDCHAR

STARTCHAR char_0x0075
ENCODING 117
SWIDTH 935 0
DWIDTH 10 0
BBX 10 20 0 -5
BITMAP
0C00
0C00
0C00
0C00
0C00
0C00
0C00
0C00
FC00
FC00
0C00
0C00
0C00
0C00
0C00
0C00
0C00
0C00
0C00
0C00
ENDCHAR

STARTCHAR char_0x0076
ENCODING 118
SWIDTH 935 0
DWIDTH 10 0
BBX 10 20 0 -5
BITMAP
0C00
0C00
0C00
0C00
0C00
0C00
0C00
0C00
FFC0
FFC0
0000
0000
0000
0000
0000
0000
0000
0000
0000
0000
ENDCHAR

STARTCHAR char_0x0077
ENCODING 119
SWIDTH 935 0
DWIDTH 10 0
BBX 10 20 0 -5
BITMAP
0000
0000
0000
0000
0000
0000
0000
0000
FFC0
FFC0
0C00
0C00
0C00
0C00
0C00
0C00
0C00
0C00
0C00
0C00
ENDCHAR

STARTCHAR char_0x0078
ENCODING 120
SWIDTH 935 0
DWIDTH 10 0
BBX 10 20 0 -5
BITMAP
0C00
0C00
0C00
0C00
0C00
0C00
0C00
0C00
0C00
0C00
0C00
0C00
0C00
0C00
0C00
0C00
0C00
0C00
0C00
0C00
ENDCHAR

STARTCHAR char_0x0079
ENCODING 121
SWIDTH 935 0
DWIDTH 10 0
BBX 10 20 0 -5
BITMAP
0000
0000
0000
0000
0000
0300
0600
0C00
1800
3000
1800
0C00
0600
0300
3F00
0000
0000
0000
0000
0000
ENDCHAR

STARTCHAR char_0x007A
ENCODING 122
SWIDTH 935 0
DWIDTH 10 0
BBX 10 20 0 -5
BITMAP
0000
0000
0000
0000
0000
3000
1800
0C00
0600
0300
0600
0C00
1800
3000
3F00
0000
0000
0000
0000
0000
ENDCHAR

STARTCHAR char_0x007B
ENCODING 123
SWIDTH 935 0
DWIDTH 10 0
BBX 10 20 0 -5
BITMAP
0000
0000
0000
0000
0000
0000
1980
3F00
5B00
1B00
1B00
1B00
1B00
1B00
3300
0000
0000
0000
0000
0000
ENDCHAR

STARTCHAR char_0x007C
ENCODING 124
SWIDTH 935 0
DWIDTH 10 0
BBX 10 20 0 -5
BITMAP
0000
0000
0000
0000
0000
0000
0000
0180
7F80
0600
0C00
7F80
3000
0000
0000
0000
0000
0000
0000
0000
ENDCHAR

STARTCHAR char_0x007D
ENCODING 125
SWIDTH 935 0
DWIDTH 10 0
BBX 10 20 0 -5
BITMAP
0000
0000
0000
0000
0F00
1980
1980
1800
1800
3E00
1800
1800
1C80
3780
6300
0000
0000
0000
0000
0000
ENDCHAR

STARTCHAR char_0x007E
ENCODING 126
SWIDTH 935 0
DWIDTH 10 0
BBX 10 20 0 -5
BITMAP
0000
0000
0000
0000
0000
0000
0000
0000
0C00
0C00
0000
0000
0000
0000
0000
0000
0000
0000
0000
0000
ENDCHAR

STARTCHAR char_0x00A1
ENCODING 161
SWIDTH 935 0
DWIDTH 10 0
BBX 10 20 0 -5
BITMAP
0C00
0C00
0C00
0C00
0C00
0C00
0C00
0C00
0C00
0C00
0C00
4C00
6C00
3C00
1C00
0C00
0000
0000
0000
0000
ENDCHAR

STARTCHAR char_0x00A2
ENCODING 162
SWIDTH 935 0
DWIDTH 10 0
BBX 10 20 0 -5
BITMAP
0000
0000
0000
0000
0000
0000
0000
0000
0000
0FC0
0FC0
0C00
0C00
0C00
0C00
0C00
0C00
0C00
0C00
0C00
ENDCHAR

STARTCHAR char_0x00A3
ENCODING 163
SWIDTH 935 0
DWIDTH 10 0
BBX 10 20 0 -5
BITMAP
0000
0000
0000
0000
0000
0000
0000
0000
0000
FFC0
FFC0
0000
0000
0000
0000
0000
0000
0000
0000
0000
ENDCHAR

STARTCHAR char_0x00A4
ENCODING 164
SWIDTH 935 0
DWIDTH 10 0
BBX 10 20 0 -5
BITMAP
0000
0700
0D80
0D80
0C00
0C00
0C00
0C00
0C00
0C00
0C00
0C00
0C00
0C00
0C00
0C00
0C00
0C00
0C00
0C00
ENDCHAR

STARTCHAR char_0x00A5
ENCODING 165
SWIDTH 935 0
DWIDTH 10 0
BBX 10 20 0 -5
BITMAP
0C00
0C00
0C00
0C00
0C00
0C00
0C00
0C00
0C00
0C00
0C00
0C00
0C00
0C00
0C00
0C00
6C00
6C00
3800
0000
ENDCHAR

STARTCHAR char_0x00A6
ENCODING 166
SWIDTH 935 0
DWIDTH 10 0
BBX 10 20 0 -5
BITMAP
0C00
0C00
0C00
0C00
0C00
0C00
0C00
0C00
0C00
0C00
0C00
0C00
0C00
0C00
0C00
0C00
0C00
0C00
0C00
0C00
ENDCHAR

STARTCHAR char_0x00A7
ENCODING 167
SWIDTH 935 0
DWIDTH 10 0
BBX 10 20 0 -5
BITMAP
0000
0F80
0F80
0C00
0C00
0C00
0C00
0C00
0C00
0C00
0C00
0C00
0C00
0C00
0C00
0C00
0C00
0C00
0C00
0C00
ENDCHAR

STARTCHAR char_0x00A8
ENCODING 168
SWIDTH 935 0
DWIDTH 10 0
BBX 10 20 0 -5
BITMAP
0C00
0C00
0C00
0C00
0C00
0C00
0C00
0C00
0C00
0C00
0C00
0C00
0C00
0C00
0C00
0C00
0C00
0F80
0F80
0000
ENDCHAR

STARTCHAR char_0x00A9
ENCODING 169
SWIDTH 935 0
DWIDTH 10 0
BBX 10 20 0 -5
BITMAP
0000
7C00
7C00
0C00
0C00
0C00
0C00
0C00
0C00
0C00
0C00
0C00
0C00
0C00
0C00
0C00
0C00
0C00
0C00
0C00
ENDCHAR

STARTCHAR char_0x00AA
ENCODING 170
SWIDTH 935 0
DWIDTH 10 0
BBX 10 20 0 -5
BITMAP
0C00
0C00
0C00
0C00
0C00
0C00
0C00
0C00
0C00
0C00
0C00
0C00
0C00
0C00
0C00
0C00
0C00
7C00
7C00
0000
ENDCHAR

STARTCHAR char_0x00AB
ENCODING 171
SWIDTH 935 0
DWIDTH 10 0
BBX 10 20 0 -5
BITMAP
0000
0780
0F80
0C00
0C00
0C00
0C00
0C00
0C00
0C00
0C00
0C00
0C00
0C00
0C00
0C00
0C00
0C00
0C00
0C00
ENDCHAR

STARTCHAR char_0x00AC
ENCODING 172
SWIDTH 935 0
DWIDTH 10 0
BBX 10 20 0 -5
BITMAP
0C00
0C00
0C00
0C00
0C00
0C00
0C00
0C00
0C00
0C00
0C00
0C00
0C00
0C00
0C00
0C00
0C00
0F80
0780
0000
ENDCHAR

STARTCHAR char_0x00AD
ENCODING 173
SWIDTH 935 0
DWIDTH 10 0
BBX 10 20 0 -5
BITMAP
0000
7800
7C00
0C00
0C00
0C00
0C00
0C00
0C00
0C00
0C00
0C00
0C00
0C00
0C00
0C00
0C00
0C00
0C00
0C00
ENDCHAR

STARTCHAR char_0x00AE
ENCODING 174
SWIDTH 935 0
DWIDTH 10 0
BBX 10 20 0 -5
BITMAP
0C00
0C00
0C00
0C00
0C00
0C00
0C00
0C00
0C00
0C00
0C00
0C00
0C00
0C00
0C00
0C00
0C00
7C00
7800
0000
ENDCHAR

STARTCHAR char_0x00AF
ENCODING 175
SWIDTH 935 0
DWIDTH 10 0
BBX 10 20 0 -5
BITMAP
0C00
0C00
0C00
0C00
0C00
0C00
0C00
0C00
1800
7000
1800
0C00
0C00
0C00
0C00
0C00
0C00
0C00
0C00
0C00
ENDCHAR

STARTCHAR char_0x00B0
ENCODING 176
SWIDTH 935 0
DWIDTH 10 0
BBX 10 20 0 -5
BITMAP
0C00
0C00
0C00
0C00
0C00
0C00
0C00
0C00
0600
0380
0600
0C00
0C00
0C00
0C00
0C00
0C00
0C00
0C00
0C00
ENDCHAR

STARTCHAR char_0x00B1
ENCODING 177
SWIDTH 935 0
DWIDTH 10 0
BBX 10 20 0 -5
BITMAP
0000
0000
0000
0000
0000
0000
0000
0000
0000
1FC0
1FC0
0C00
0C00
0600
0600
0300
0300
0180
0180
00C0
ENDCHAR

STARTCHAR char_0x00B2
ENCODING 178
SWIDTH 935 0
DWIDTH 10 0
BBX 10 20 0 -5
BITMAP
00C0
0180
0180
0300
0300
0600
0600
0C00
0C00
1FC0
1FC0
0000
0000
0000
0000
0000
0000
0000
0000
0000
ENDCHAR

STARTCHAR char_0x00B3
ENCODING 179
SWIDTH 935 0
DWIDTH 10 0
BBX 10 20 0 -5
BITMAP
C000
C000
6000
6000
3000
3000
1800
1800
1800
0C00
0C00
0600
0600
0600
0300
0300
0180
0180
00C0
00C0
ENDCHAR

STARTCHAR char_0x00B4
ENCODING 180
SWIDTH 935 0
DWIDTH 10 0
BBX 10 20 0 -5
BITMAP
00C0
00C0
0180
0180
0300
0300
0600
0600
0600
0C00
0C00
1800
1800
1800
3000
3000
6000
6000
C000
C000
ENDCHAR

STARTCHAR char_0x00B5
ENCODING 181
SWIDTH 935 0
DWIDTH 10 0
BBX 10 20 0 -5
BITMAP
0000
0000
0000
0000
0000
0000
0000
0000
0000
FF80
FF80
0180
0180
0000
0000
0000
0000
0000
0000
0000
ENDCHAR

STARTCHAR char_0x00B6
ENCODING 182
SWIDTH 935 0
DWIDTH 10 0
BBX 10 20 0 -5
BITMAP
0000
0000
0000
0000
0000
0000
0000
0180
0180
FF80
FF80
0000
0000
0000
0000
0000
0000
0000
0000
0000
ENDCHAR

STARTCHAR char_0x00B7
ENCODING 183
SWIDTH 935 0
DWIDTH 10 0
BBX 10 20 0 -5
BITMAP
C000
C000
6000
6000
3000
3000
1800
1800
0C00
0E00
0E00
0C00
1800
1800
3000
3000
6000
6000
C000
C000
ENDCHAR

STARTCHAR char_0x00BC
ENCODING 188
SWIDTH 935 0
DWIDTH 10 0
BBX 10 20 0 -5
BITMAP
0000
0000
0000
0000
0300
0600
0C00
1800
3000
1800
0C00
0600
0300
0000
3F00
3F00
0000
0000
0000
0000
ENDCHAR

STARTCHAR char_0x00BD
ENCODING 189
SWIDTH 935 0
DWIDTH 10 0
BBX 10 20 0 -5
BITMAP
0000
0000
0000
0000
0000
0000
0000
0080
0100
7F80
7F80
0400
0800
7F80
7F80
2000
4000
0000
0000
0000
ENDCHAR

STARTCHAR char_0x00BE
ENCODING 190
SWIDTH 935 0
DWIDTH 10 0
BBX 10 20 0 -5
BITMAP
0000
0000
0000
0000
3000
1800
0C00
0600
0300
0600
0C00
1800
3000
0000
3F00
3F00
0000
0000
0000
0000
ENDCHAR

STARTCHAR char_0x00BF
ENCODING 191
SWIDTH 935 0
DWIDTH 10 0
BBX 10 20 0 -5
BITMAP
0000
0000
0600
0D00
0C00
0C00
0C00
0C00
0C00
0C00
0C00
0C00
0C00
0C00
0C00
0C00
0C00
2C00
1800
0000
ENDCHAR

STARTCHAR char_0x00C0
ENCODING 192
SWIDTH 935 0
DWIDTH 10 0
BBX 10 20 0 -5
BITMAP
0000
0000
0000
0000
0000
0000
0000
0C00
0C00
0000
0000
0000
0000
6180
6180
0000
0000
0000
0000
0000
ENDCHAR

STARTCHAR char_0x00C1
ENCODING 193
SWIDTH 935 0
DWIDTH 10 0
BBX 10 20 0 -5
BITMAP
0000
0000
0000
0000
0000
0000
0000
0000
1CC0
3380
6300
6300
6300
6300
3380
1DC0
0000
0000
0000
0000
ENDCHAR

STARTCHAR char_0x00C2
ENCODING 194
SWIDTH 935 0
DWIDTH 10 0
BBX 10 20 0 -5
BITMAP
0000
0000
0000
0000
0000
0000
0000
0000
3380
6DC0
CCC0
CCC0
CCC0
CCC0
6D80
3300
0000
0000
0000
0000
ENDCHAR

STARTCHAR char_0x00C3
ENCODING 195
SWIDTH 935 0
DWIDTH 10 0
BBX 10 20 0 -5
BITMAP
0000
0000
0000
0000
0000
0000
0C00
0C00
0000
0000
7F80
7F80
0000
0000
0C00
0C00
0000
0000
0000
0000
ENDCHAR

STARTCHAR char_0x00C4
ENCODING 196
SWIDTH 935 0
DWIDTH 10 0
BBX 10 20 0 -5
BITMAP
0000
0000
0000
0000
0000
0400
0E00
0A00
1B00
1B00
3180
3180
3180
60C0
60C0
7FC0
0000
0000
0000
0000
ENDCHAR

STARTCHAR char_0x00C5
ENCODING 197
SWIDTH 935 0
DWIDTH 10 0
BBX 10 20 0 -5
BITMAP
0000
0000
0000
0000
0000
0000
7FC0
60C0
60C0
3180
3180
3180
1B00
1B00
0E00
0400
0000
0000
0000
0000
ENDCHAR

STARTCHAR char_0x00C6
ENCODING 198
SWIDTH 935 0
DWIDTH 10 0
BBX 10 20 0 -5
BITMAP
0000
0000
0000
0000
0000
3F00
0C00
3F00
6D80
6D80
6D80
6D80
3F00
0C00
0C00
3F00
0000
0000
0000
0000
ENDCHAR

STARTCHAR char_0x00C7
ENCODING 199
SWIDTH 935 0
DWIDTH 10 0
BBX 10 20 0 -5
BITMAP
0000
0000
0000
0000
0000
7F80
3080
3080
3000
3000
3000
3000
3000
3000
3000
7800
0000
0000
0000
0000
ENDCHAR

STARTCHAR char_0x00C8
ENCODING 200
SWIDTH 935 0
DWIDTH 10 0
BBX 10 20 0 -5
BITMAP
0000
0000
0000
0000
0000
0000
0000
0000
0000
3880
6D80
4700
0000
0000
0000
0000
0000
0000
0000
0000
ENDCHAR

STARTCHAR char_0x00C9
ENCODING 201
SWIDTH 935 0
DWIDTH 10 0
BBX 10 20 0 -5
BITMAP
0000
0000
0000
0000
0000
0000
0000
3880
6D80
4700
0000
0000
7F80
7F80
0000
0000
0000
0000
0000
0000
ENDCHAR

STARTCHAR char_0x00CA
ENCODING 202
SWIDTH 935 0
DWIDTH 10 0
BBX 10 20 0 -5
BITMAP
0000
0000
0000
0000
0000
1E00
3300
6180
6180
7D80
6F80
6180
6180
6180
3300
1E00
0000
0000
0000
0000
ENDCHAR

STARTCHAR char_0x00CB
ENCODING 203
SWIDTH 935 0
DWIDTH 10 0
BBX 10 20 0 -5
BITMAP
0000
0000
0000
0000
0000
0000
0000
6180
3300
1E00
0C00
1E00
3300
6180
0000
0000
0000
0000
0000
0000
ENDCHAR

STARTCHAR char_0x00CC
ENCODING 204
SWIDTH 935 0
DWIDTH 10 0
BBX 10 20 0 -5
BITMAP
0000
0000
0000
0000
0000
0400
0E00
0A00
1B00
1B00
3180
3180
3180
60C0
60C0
F1C0
0000
0000
0000
0000
ENDCHAR

STARTCHAR char_0x00CD
ENCODING 205
SWIDTH 935 0
DWIDTH 10 0
BBX 10 20 0 -5
BITMAP
0000
0000
0000
0000
0000
0000
0000
0000
1200
3F00
7F80
C0C0
7F80
3F00
1200
0000
0000
0000
0000
0000
ENDCHAR

STARTCHAR char_0x00CE
ENCODING 206
SWIDTH 935 0
DWIDTH 10 0
BBX 10 20 0 -5
BITMAP
0000
0000
0000
0000
0000
0000
0000
0000
0200
7F00
7F80
00C0
7F80
7F00
0200
0000
0000
0000
0000
0000
ENDCHAR

STARTCHAR char_0x00CF
ENCODING 207
SWIDTH 935 0
DWIDTH 10 0
BBX 10 20 0 -5
BITMAP
0000
0000
0000
0000
0000
0000
3F80
3F80
0000
0000
3F80
3F80
0000
0000
3F80
3F80
0000
0000
0000
0000
ENDCHAR

STARTCHAR char_0x00D0
ENCODING 208
SWIDTH 935 0
DWIDTH 10 0
BBX 10 20 0 -5
BITMAP
0000
0000
0000
0000
0000
FFC0
3300
3300
3300
3300
3300
3300
3300
3300
3300
7380
0000
0000
0000
0000
ENDCHAR

STARTCHAR char_0x00D1
ENCODING 209
SWIDTH 935 0
DWIDTH 10 0
BBX 10 20 0 -5
BITMAP
0000
0000
0000
0000
0000
CCC0
6D80
6D80
6D80
2D00
1E00
0C00
0C00
0C00
0C00
0C00
0000
0000
0000
0000
ENDCHAR

STARTCHAR char_0x00D3
ENCODING 211
SWIDTH 935 0
DWIDTH 10 0
BBX 10 20 0 -5
BITMAP
0000
0000
0000
0000
0000
7FC0
3040
1840
0C00
0600
0600
0C00
1800
3040
6040
7FC0
0000
0000
0000
0000
ENDCHAR

STARTCHAR char_0x00D6
ENCODING 214
SWIDTH 935 0
DWIDTH 10 0
BBX 10 20 0 -5
BITMAP
0000
0000
0000
0000
01C0
0180
0300
0300
0200
0600
0600
8400
CC00
6C00
3800
1800
0000
0000
0000
0000
ENDCHAR

STARTCHAR char_0x00D7
ENCODING 215
SWIDTH 935 0
DWIDTH 10 0
BBX 10 20 0 -5
BITMAP
0000
0000
0000
0000
0000
1E00
3300
6180
6180
6180
6180
6180
6180
3300
B340
E1C0
0000
0000
0000
0000
ENDCHAR

STARTCHAR char_0x00D8
ENCODING 216
SWIDTH 935 0
DWIDTH 10 0
BBX 10 20 0 -5
BITMAP
0000
0000
0000
0000
0000
7F80
7F80
4080
0000
3F00
3F00
2100
0000
4080
7F80
7F80
0000
0000
0000
0000
ENDCHAR

STARTCHAR char_0x00D9
ENCODING 217
SWIDTH 935 0
DWIDTH 10 0
BBX 10 20 0 -5
BITMAP
0000
0000
0000
0000
0000
4080
E1C0
3300
3300
1200
1E00
0C00
0C00
0C00
0C00
1E00
0000
0000
0000
0000
ENDCHAR

STARTCHAR char_0x00DA
ENCODING 218
SWIDTH 935 0
DWIDTH 10 0
BBX 10 20 0 -5
BITMAP
0000
0000
0000
0000
0000
0000
0000
1F80
7F80
6000
C000
C000
C000
6000
7F80
1F80
0000
0000
0000
0000
ENDCHAR

STARTCHAR char_0x00DB
ENCODING 219
SWIDTH 935 0
DWIDTH 10 0
BBX 10 20 0 -5
BITMAP
0000
0000
0000
0000
0000
0000
0000
7E00
7F80
0180
00C0
00C0
00C0
0180
7F80
7E00
0000
0000
0000
0000
ENDCHAR

STARTCHAR char_0x00DC
ENCODING 220
SWIDTH 935 0
DWIDTH 10 0
BBX 10 20 0 -5
BITMAP
0000
0000
0000
0000
0000
0000
0E00
3F80
3180
60C0
60C0
60C0
60C0
60C0
60C0
60C0
0000
0000
0000
0000
ENDCHAR

STARTCHAR char_0x00DD
ENCODING 221
SWIDTH 935 0
DWIDTH 10 0
BBX 10 20 0 -5
BITMAP
0000
0000
0000
0000
0000
0000
60C0
60C0
60C0
60C0
60C0
60C0
60C0
3180
3F80
0E00
0000
0000
0000
0000
ENDCHAR

STARTCHAR char_0x00DE
ENCODING 222
SWIDTH 935 0
DWIDTH 10 0
BBX 10 20 0 -5
BITMAP
0000
0000
0000
0000
0000
0400
0E00
0A00
1B00
1B00
3180
3180
3180
60C0
60C0
60C0
0000
0000
0000
0000
ENDCHAR

STARTCHAR char_0x00DF
ENCODING 223
SWIDTH 935 0
DWIDTH 10 0
BBX 10 20 0 -5
BITMAP
0000
0000
0000
0000
0000
0000
60C0
60C0
60C0
3180
3180
3180
1B00
1B00
0E00
0400
0000
0000
0000
0000
ENDCHAR

STARTCHAR char_0x00E0
ENCODING 224
SWIDTH 935 0
DWIDTH 10 0
BBX 10 20 0 -5
BITMAP
0000
0000
0000
0000
0000
0000
0000
0000
0000
3F80
3F80
0080
0080
0000
0000
0000
0000
0000
0000
0000
ENDCHAR

STARTCHAR char_0x00E1
ENCODING 225
SWIDTH 935 0
DWIDTH 10 0
BBX 10 20 0 -5
BITMAP
0000
0000
0000
0000
0000
0000
0000
0000
1EC0
33C0
6180
6180
6180
6180
33C0
1EC0
0000
0000
0000
0000
ENDCHAR

STARTCHAR char_0x00E2
ENCODING 226
SWIDTH 935 0
DWIDTH 10 0
BBX 10 20 0 -5
BITMAP
0000
0000
0000
0000
1E00
3300
6180
6180
6180
6300
7E00
6300
6180
6180
6180
7300
6E00
6000
6000
0000
ENDCHAR

STARTCHAR char_0x00E3
ENCODING 227
SWIDTH 935 0
DWIDTH 10 0
BBX 10 20 0 -5
BITMAP
0000
0000
0000
0000
0000
C040
60C0
3180
3300
1A00
1E00
0C00
0C00
1E00
1600
3300
6300
C180
80C0
0000
ENDCHAR

STARTCHAR char_0x00E4
ENCODING 228
SWIDTH 935 0
DWIDTH 10 0
BBX 10 20 0 -5
BITMAP
0000
0000
0000
0000
1C00
3000
1800
0E00
0300
1F00
3180
6180
6180
6180
3300
1E00
0000
0000
0000
0000
ENDCHAR

STARTCHAR char_0x00E5
ENCODING 229
SWIDTH 935 0
DWIDTH 10 0
BBX 10 20 0 -5
BITMAP
0000
0000
0000
0000
0000
0000
0000
0000
3F00
7180
6000
3E00
6000
6000
7180
3F00
0000
0000
0000
0000
ENDCHAR

STARTCHAR char_0x00E6
ENCODING 230
SWIDTH 935 0
DWIDTH 10 0
BBX 10 20 0 -5
BITMAP
0000
0000
0000
0000
0000
0000
0C00
0C00
1E00
2D00
6D80
6D80
6D80
6D80
2D00
1E00
0C00
0C00
0000
0000
ENDCHAR

STARTCHAR char_0x00E7
ENCODING 231
SWIDTH 935 0
DWIDTH 10 0
BBX 10 20 0 -5
BITMAP
0000
0000
0000
0000
0000
0000
0000
0000
E0C0
6180
3300
3300
1600
1E00
0C00
0C00
0C00
0C00
0C00
0000
ENDCHAR

STARTCHAR char_0x00E8
ENCODING 232
SWIDTH 935 0
DWIDTH 10 0
BBX 10 20 0 -5
BITMAP
0000
0000
0000
0000
0000
0000
0000
0000
EF00
7380
6180
6180
6180
6180
6180
6180
0180
0180
0180
0000
ENDCHAR

STARTCHAR char_0x00E9
ENCODING 233
SWIDTH 935 0
DWIDTH 10 0
BBX 10 20 0 -5
BITMAP
0000
0000
0000
0000
0000
0000
0000
0000
1C00
0C00
0C00
0C00
0C00
0C00
0C00
0E00
0000
0000
0000
0000
ENDCHAR

STARTCHAR char_0x00EA
ENCODING 234
SWIDTH 935 0
DWIDTH 10 0
BBX 10 20 0 -5
BITMAP
0000
0000
0000
0000
0000
0E00
1B00
3180
3180
3180
3F80
3B80
3180
3180
1B00
0E00
0000
0000
0000
0000
ENDCHAR

STARTCHAR char_0x00EB
ENCODING 235
SWIDTH 935 0
DWIDTH 10 0
BBX 10 20 0 -5
BITMAP
0000
0000
0000
0000
0000
0000
0000
0000
6300
6780
6C00
7800
6C00
6600
6300
6180
0000
0000
0000
0000
ENDCHAR

STARTCHAR char_0x00EC
ENCODING 236
SWIDTH 935 0
DWIDTH 10 0
BBX 10 20 0 -5
BITMAP
0000
0000
0000
0000
0000
7000
1800
1800
0C00
0C00
0E00
1A00
1300
3300
3180
61C0
0000
0000
0000
0000
ENDCHAR

STARTCHAR char_0x00EE
ENCODING 238
SWIDTH 935 0
DWIDTH 10 0
BBX 10 20 0 -5
BITMAP
0000
0000
0000
0000
0000
0000
0000
0000
E100
6380
3180
3180
1B00
1E00
0C00
0C00
0000
0000
0000
0000
ENDCHAR

STARTCHAR char_0x00EF
ENCODING 239
SWIDTH 935 0
DWIDTH 10 0
BBX 10 20 0 -5
BITMAP
0000
0000
0000
0000
0000
3000
3C00
0E00
0300
1F00
3380
6180
6180
6180
3300
1E00
0000
0000
0000
0000
ENDCHAR

STARTCHAR char_0x00F0
ENCODING 240
SWIDTH 935 0
DWIDTH 10 0
BBX 10 20 0 -5
BITMAP
0000
0000
0000
0000
0000
0000
0000
0000
7FC0
B300
B300
3300
3300
3300
3300
3300
0000
0000
0000
0000
ENDCHAR

STARTCHAR char_0x00F1
ENCODING 241
SWIDTH 935 0
DWIDTH 10 0
BBX 10 20 0 -5
BITMAP
0000
0000
0000
0000
0000
0000
0000
0000
CCC0
CCC0
6D80
6D80
2D00
3F00
1E00
0C00
0C00
0C00
0C00
0000
ENDCHAR

STARTCHAR char_0x00F2
ENCODING 242
SWIDTH 935 0
DWIDTH 10 0
BBX 10 20 0 -5
BITMAP
0000
0000
0000
0000
0000
0000
0000
0000
1E00
3300
6180
6180
6180
6180
7300
7E00
6000
6000
6000
6000
ENDCHAR

STARTCHAR char_0x00F3
ENCODING 243
SWIDTH 935 0
DWIDTH 10 0
BBX 10 20 0 -5
BITMAP
0000
0000
0000
0000
0000
0000
0000
0000
1FC0
33C0
6100
6180
6180
6180
3300
1E00
0000
0000
0000
0000
ENDCHAR

STARTCHAR char_0x00F4
ENCODING 244
SWIDTH 935 0
DWIDTH 10 0
BBX 10 20 0 -5
BITMAP
0000
0000
0000
0000
0000
0000
0000
0000
3F80
6C00
4C00
0C00
0C00
0C00
0E80
0700
0000
0000
0000
0000
ENDCHAR

STARTCHAR char_0x00F6
ENCODING 246
SWIDTH 935 0
DWIDTH 10 0
BBX 10 20 0 -5
BITMAP
0000
0000
0000
0180
0340
0300
0600
0600
0600
3F80
0C00
0C00
1800
1800
1800
3000
3000
B000
6000
0000
ENDCHAR

STARTCHAR char_0x00F7
ENCODING 247
SWIDTH 935 0
DWIDTH 10 0
BBX 10 20 0 -5
BITMAP
0000
0000
0000
0000
0000
0000
0000
0000
6180
CCC0
CCC0
CCC0
CCC0
CCC0
D2C0
7380
0000
0000
0000
0000
ENDCHAR

STARTCHAR char_0x00F8
ENCODING 248
SWIDTH 935 0
DWIDTH 10 0
BBX 10 20 0 -5
BITMAP
0000
0000
0000
0000
0000
1F00
0C00
1800
1800
1800
0E00
3800
3000
3000
3800
1E00
0300
0100
0600
0000
ENDCHAR

STARTCHAR char_0x00F9
ENCODING 249
SWIDTH 935 0
DWIDTH 10 0
BBX 10 20 0 -5
BITMAP
0000
0000
0000
0000
0000
0000
0000
0000
6300
6380
6180
6180
6180
6180
3300
1E00
0000
0000
0000
0000
ENDCHAR

STARTCHAR char_0x00FA
ENCODING 250
SWIDTH 935 0
DWIDTH 10 0
BBX 10 20 0 -5
BITMAP
0000
0000
0000
0000
0000
1F80
0600
0C00
1800
1800
3000
3000
3000
3000
1800
0F00
0080
0180
0700
0000
ENDCHAR

STARTCHAR char_0x00FB
ENCODING 251
SWIDTH 935 0
DWIDTH 10 0
BBX 10 20 0 -5
BITMAP
0000
0000
0000
0000
0000
0000
0800
1800
3000
7F80
7F80
3000
1800
0800
0000
0000
0000
0000
0000
0000
ENDCHAR

STARTCHAR char_0x00FC
ENCODING 252
SWIDTH 935 0
DWIDTH 10 0
BBX 10 20 0 -5
BITMAP
0000
0000
0000
0000
0000
0000
0C00
1E00
3F00
6D80
0C00
0C00
0C00
0C00
0C00
0000
0000
0000
0000
0000
ENDCHAR

STARTCHAR char_0x00FD
ENCODING 253
SWIDTH 935 0
DWIDTH 10 0
BBX 10 20 0 -5
BITMAP
0000
0000
0000
0000
0000
0000
0400
0600
0300
7F80
7F80
0300
0600
0400
0000
0000
0000
0000
0000
0000
ENDCHAR

STARTCHAR char_0x00FE
ENCODING 254
SWIDTH 935 0
DWIDTH 10 0
BBX 10 20 0 -5
BITMAP
0000
0000
0000
0000
0000
0000
0000
0C00
0C00
0C00
0C00
0C00
6D80
3F00
1E00
0C00
0000
0000
0000
0000
ENDCHAR

ENDFONT
